0
SECTION
2
HEADER
9
$INSUNITS
70
4
9
$ACADVER
1
AC1014
9
$HANDSEED
5
FFFF
0
ENDSEC
0
SECTION
2
TABLES
0
TABLE
2
VPORT
5
8
100
AcDbSymbolTable
0
ENDTAB
0
TABLE
2
LTYPE
5
5
100
AcDbSymbolTable
0
LTYPE
5
14
100
AcDbSymbolTableRecord
100
AcDbLinetypeTableRecord
2
BYBLOCK
70
0
0
LTYPE
5
15
100
AcDbSymbolTableRecord
100
AcDbLinetypeTableRecord
2
BYLAYER
70
0
0
LTYPE
5
16
100
AcDbSymbolTableRecord
100
AcDbLinetypeTableRecord
2
DASHED
70
0
3
Dashed __ __ __ __ __ __ __ __ __ __ __ __ __ _
72
65
73
2
40
0.75
49
0.5
74
0
49
-0.25
74
0
0
ENDTAB
0
TABLE
2
LAYER
5
2
100
AcDbSymbolTable
70
2
0
LAYER
5
50
100
AcDbSymbolTableRecord
100
AcDbLayerTableRecord
2
0
70
0
62
7
6
CONTINUOUS
0
ENDTAB
0
TABLE
2
STYLE
5
3
100
AcDbSymbolTable
70
1
0
STYLE
5
11
100
AcDbSymbolTableRecord
100
AcDbTextStyleTableRecord
2
STANDARD
70
0
0
ENDTAB
0
TABLE
2
VIEW
5
6
100
AcDbSymbolTable
70
0
0
ENDTAB
0
TABLE
2
UCS
5
7
100
AcDbSymbolTable
70
0
0
ENDTAB
0
TABLE
2
APPID
5
9
100
AcDbSymbolTable
70
2
0
APPID
5
12
100
AcDbSymbolTableRecord
100
AcDbRegAppTableRecord
2
ACAD
70
0
0
ENDTAB
0
TABLE
2
DIMSTYLE
5
A
100
AcDbSymbolTable
70
1
0
ENDTAB
0
TABLE
2
BLOCK_RECORD
5
1
100
AcDbSymbolTable
70
1
0
BLOCK_RECORD
5
1F
100
AcDbSymbolTableRecord
100
AcDbBlockTableRecord
2
*MODEL_SPACE
0
BLOCK_RECORD
5
1B
100
AcDbSymbolTableRecord
100
AcDbBlockTableRecord
2
*PAPER_SPACE
0
ENDTAB
0
ENDSEC
0
SECTION
2
BLOCKS
0
BLOCK
5
20
100
AcDbEntity
100
AcDbBlockBegin
2
*MODEL_SPACE
0
ENDBLK
5
21
100
AcDbEntity
100
AcDbBlockEnd
0
BLOCK
5
1C
100
AcDbEntity
100
AcDbBlockBegin
2
*PAPER_SPACE
0
ENDBLK
5
1D
100
AcDbEntity
100
AcDbBlockEnd
0
ENDSEC
0
SECTION
2
ENTITIES
0
LWPOLYLINE
5
100
100
AcDbEntity
8
0
100
AcDbPolyline
90
60
70
1
43
0.0
10
223.5
20
-74.899999999999991
10
223.79110800000004
20
-74.916347999999999
10
224.07855400000003
20
-74.965187
10
224.35872599999999
20
-75.045902999999981
10
224.62809800000002
20
-75.157480999999976
10
224.88328300000003
20
-75.298517000000004
10
225.121073
20
-75.467237999999981
10
225.33847800000004
20
-75.661521999999991
10
225.53276199999999
20
-75.87892699999999
10
225.701483
20
-76.116716999999994
10
225.84251900000001
20
-76.371901999999992
10
225.95409700000002
20
-76.641273999999981
10
226.03481300000001
20
-76.921446000000003
10
226.08365200000003
20
-77.208891999999992
10
226.09999999999999
20
-77.5
10
226.09999999999999
20
-143.75
10
226.08365200000003
20
-144.04110799999998
10
226.03481300000001
20
-144.328554
10
225.95409700000002
20
-144.60872599999999
10
225.84251900000001
20
-144.87809800000002
10
225.701483
20
-145.13328300000001
10
225.53276199999999
20
-145.371073
10
225.33847800000004
20
-145.58847799999998
10
225.121073
20
-145.78276199999999
10
224.88328300000003
20
-145.951483
10
224.62809800000002
20
-146.09251899999998
10
224.35872599999999
20
-146.20409699999999
10
224.07855400000003
20
-146.28481299999999
10
223.79110800000004
20
-146.333652
10
223.5
20
-146.34999999999999
10
53.500000000000014
20
-146.34999999999999
10
53.208891999999999
20
-146.333652
10
52.921446000000003
20
-146.28481299999999
10
52.641274000000003
20
-146.20409699999999
10
52.371902000000006
20
-146.09251899999998
10
52.116717000000001
20
-145.951483
10
51.878926999999997
20
-145.78276199999999
10
51.661521999999998
20
-145.58847799999998
10
51.467238000000002
20
-145.371073
10
51.298516999999997
20
-145.13328300000001
10
51.157481000000004
20
-144.87809800000002
10
51.04590300000001
20
-144.60872599999999
10
50.965187000000007
20
-144.328554
10
50.916348000000006
20
-144.04110799999998
10
50.899999999999999
20
-143.75
10
50.899999999999999
20
-77.5
10
50.916348000000006
20
-77.208891999999992
10
50.965187000000007
20
-76.921446000000003
10
51.04590300000001
20
-76.641273999999981
10
51.157481000000004
20
-76.371901999999992
10
51.298516999999997
20
-76.116716999999994
10
51.467238000000002
20
-75.87892699999999
10
51.661521999999998
20
-75.661521999999991
10
51.878926999999997
20
-75.467237999999981
10
52.116717000000001
20
-75.298517000000004
10
52.371902000000006
20
-75.157480999999976
10
52.641274000000003
20
-75.045902999999981
10
52.921446000000003
20
-74.965187
10
53.208891999999999
20
-74.916347999999999
10
53.500000000000007
20
-74.899999999999991
0
LWPOLYLINE
5
101
100
AcDbEntity
8
0
100
AcDbPolyline
90
60
70
1
43
0.0
10
53.500000000000007
20
-75.09999999999998
10
53.354827
20
-75.09999999999998
10
53.066597000000009
20
-75.134996999999998
10
52.784688000000003
20
-75.204482000000013
10
52.513209000000003
20
-75.30744
10
52.25612000000001
20
-75.442371000000009
10
52.01716900000001
20
-75.607305999999994
10
51.799841999999998
20
-75.799841999999998
10
51.607306000000008
20
-76.017168999999981
10
51.442371000000009
20
-76.256119999999981
10
51.30744
20
-76.513209000000003
10
51.204481999999999
20
-76.784688000000017
10
51.134996999999998
20
-77.066597000000002
10
51.100000000000001
20
-77.354827
10
51.100000000000001
20
-77.5
10
51.100000000000001
20
-143.75
10
51.100000000000001
20
-143.89517300000003
10
51.134996999999998
20
-144.183403
10
51.204481999999999
20
-144.46531199999998
10
51.30744
20
-144.73679099999998
10
51.442371000000009
20
-144.99387999999999
10
51.607306000000008
20
-145.232831
10
51.799841999999998
20
-145.45015799999999
10
52.01716900000001
20
-145.64269400000001
10
52.25612000000001
20
-145.80762899999999
10
52.513209000000003
20
-145.94255999999999
10
52.784688000000003
20
-146.04551799999999
10
53.066597000000009
20
-146.115003
10
53.354827
20
-146.15000000000003
10
53.500000000000007
20
-146.15000000000003
10
223.5
20
-146.15000000000003
10
223.64517300000003
20
-146.15000000000003
10
223.93340300000003
20
-146.115003
10
224.21531200000004
20
-146.04551799999999
10
224.48679100000004
20
-145.94255999999999
10
224.74388000000002
20
-145.80762899999999
10
224.98283100000003
20
-145.64269400000001
10
225.20015799999999
20
-145.45015799999999
10
225.39269400000001
20
-145.232831
10
225.55762900000002
20
-144.99387999999999
10
225.69255999999999
20
-144.73679099999998
10
225.79551800000002
20
-144.46531199999998
10
225.865003
20
-144.183403
10
225.90000000000003
20
-143.89517300000003
10
225.90000000000003
20
-143.75
10
225.90000000000003
20
-77.5
10
225.90000000000003
20
-77.354827
10
225.865003
20
-77.066597000000002
10
225.79551800000002
20
-76.784688000000017
10
225.69255999999999
20
-76.513209000000003
10
225.55762900000002
20
-76.256119999999981
10
225.39269400000001
20
-76.017168999999981
10
225.20015799999999
20
-75.799841999999998
10
224.98283100000003
20
-75.607305999999994
10
224.74388000000002
20
-75.442371000000009
10
224.48679100000004
20
-75.30744
10
224.21531200000004
20
-75.204482000000013
10
223.93340300000003
20
-75.134996999999998
10
223.64517300000003
20
-75.09999999999998
10
223.5
20
-75.09999999999998
0
CIRCLE
5
102
100
AcDbEntity
8
0
100
AcDbCircle
10
77.700000000000003
20
-131.29999999999998
30
0
40
1.5000000000000002
210
0
220
0
230
1
0
CIRCLE
5
103
100
AcDbEntity
8
0
100
AcDbCircle
10
133.29999999999998
20
-125.60000000000001
30
0
40
1.5000000000000002
210
0
220
0
230
1
0
CIRCLE
5
104
100
AcDbEntity
8
0
100
AcDbCircle
10
221.90000000000001
20
-85.299999999999997
30
0
40
1.5000000000000002
210
0
220
0
230
1
0
CIRCLE
5
105
100
AcDbEntity
8
0
100
AcDbCircle
10
195.60000000000002
20
-140.69999999999999
30
0
40
1.5000000000000002
210
0
220
0
230
1
0
CIRCLE
5
106
100
AcDbEntity
8
0
100
AcDbCircle
10
73
20
-84.299999999999983
30
0
40
1.5000000000000002
210
0
220
0
230
1
0
CIRCLE
5
107
100
AcDbEntity
8
0
100
AcDbCircle
10
157.40000000000003
20
-89.700000000000003
30
0
40
1.5000000000000002
210
0
220
0
230
1
0
CIRCLE
5
108
100
AcDbEntity
8
0
100
AcDbCircle
10
77.700000000000003
20
-131.29999999999998
30
0
40
1.4999990000000003
210
0
220
0
230
1
0
CIRCLE
5
109
100
AcDbEntity
8
0
100
AcDbCircle
10
133.29999999999998
20
-125.60000000000001
30
0
40
1.4999990000000003
210
0
220
0
230
1
0
CIRCLE
5
110
100
AcDbEntity
8
0
100
AcDbCircle
10
221.90000000000001
20
-85.299999999999997
30
0
40
1.4999990000000003
210
0
220
0
230
1
0
CIRCLE
5
111
100
AcDbEntity
8
0
100
AcDbCircle
10
195.60000000000002
20
-140.69999999999999
30
0
40
1.4999990000000003
210
0
220
0
230
1
0
CIRCLE
5
112
100
AcDbEntity
8
0
100
AcDbCircle
10
73
20
-84.299999999999983
30
0
40
1.4999990000000003
210
0
220
0
230
1
0
CIRCLE
5
113
100
AcDbEntity
8
0
100
AcDbCircle
10
157.40000000000003
20
-89.700000000000003
30
0
40
1.4999990000000003
210
0
220
0
230
1
0
ENDSEC
0
SECTION
2
OBJECTS
0
DICTIONARY
5
C
100
AcDbDictionary
3
ACAD_GROUP
350
D
3
ACAD_MLINESTYLE
350
17
0
DICTIONARY
5
D
100
AcDbDictionary
0
DICTIONARY
5
1A
330
C
100
AcDbDictionary
0
DICTIONARY
5
17
100
AcDbDictionary
0
ENDSEC
0
EOF
