0
SECTION
2
HEADER
9
$INSUNITS
70
4
9
$ACADVER
1
AC1014
9
$HANDSEED
5
FFFF
0
ENDSEC
0
SECTION
2
TABLES
0
TABLE
2
VPORT
5
8
100
AcDbSymbolTable
0
ENDTAB
0
TABLE
2
LTYPE
5
5
100
AcDbSymbolTable
0
LTYPE
5
14
100
AcDbSymbolTableRecord
100
AcDbLinetypeTableRecord
2
BYBLOCK
70
0
0
LTYPE
5
15
100
AcDbSymbolTableRecord
100
AcDbLinetypeTableRecord
2
BYLAYER
70
0
0
LTYPE
5
16
100
AcDbSymbolTableRecord
100
AcDbLinetypeTableRecord
2
DASHED
70
0
3
Dashed __ __ __ __ __ __ __ __ __ __ __ __ __ _
72
65
73
2
40
0.75
49
0.5
74
0
49
-0.25
74
0
0
ENDTAB
0
TABLE
2
LAYER
5
2
100
AcDbSymbolTable
70
2
0
LAYER
5
50
100
AcDbSymbolTableRecord
100
AcDbLayerTableRecord
2
0
70
0
62
7
6
CONTINUOUS
0
ENDTAB
0
TABLE
2
STYLE
5
3
100
AcDbSymbolTable
70
1
0
STYLE
5
11
100
AcDbSymbolTableRecord
100
AcDbTextStyleTableRecord
2
STANDARD
70
0
0
ENDTAB
0
TABLE
2
VIEW
5
6
100
AcDbSymbolTable
70
0
0
ENDTAB
0
TABLE
2
UCS
5
7
100
AcDbSymbolTable
70
0
0
ENDTAB
0
TABLE
2
APPID
5
9
100
AcDbSymbolTable
70
2
0
APPID
5
12
100
AcDbSymbolTableRecord
100
AcDbRegAppTableRecord
2
ACAD
70
0
0
ENDTAB
0
TABLE
2
DIMSTYLE
5
A
100
AcDbSymbolTable
70
1
0
ENDTAB
0
TABLE
2
BLOCK_RECORD
5
1
100
AcDbSymbolTable
70
1
0
BLOCK_RECORD
5
1F
100
AcDbSymbolTableRecord
100
AcDbBlockTableRecord
2
*MODEL_SPACE
0
BLOCK_RECORD
5
1B
100
AcDbSymbolTableRecord
100
AcDbBlockTableRecord
2
*PAPER_SPACE
0
ENDTAB
0
ENDSEC
0
SECTION
2
BLOCKS
0
BLOCK
5
20
100
AcDbEntity
100
AcDbBlockBegin
2
*MODEL_SPACE
0
ENDBLK
5
21
100
AcDbEntity
100
AcDbBlockEnd
0
BLOCK
5
1C
100
AcDbEntity
100
AcDbBlockBegin
2
*PAPER_SPACE
0
ENDBLK
5
1D
100
AcDbEntity
100
AcDbBlockEnd
0
ENDSEC
0
SECTION
2
ENTITIES
0
LWPOLYLINE
5
100
100
AcDbEntity
8
0
100
AcDbPolyline
90
60
70
1
43
0.0
10
8.7992125984251963
20
-2.9488188976377963
10
8.810673543307086
20
-2.9494625196850395
10
8.8219903149606296
20
-2.9513853149606302
10
8.8330207086614188
20
-2.9545631102362209
10
8.8436259055118089
20
-2.9589559448818896
10
8.85367255905512
20
-2.9645085433070868
10
8.86303437007874
20
-2.9711511023622048
10
8.8715936220472447
20
-2.9788000787401576
10
8.879242598425197
20
-2.987359330708661
10
8.885885157480315
20
-2.9967211417322832
10
8.8914377559055122
20
-3.0067677952755911
10
8.8958305905511814
20
-3.017372992125984
10
8.8990083858267717
20
-3.0284033858267723
10
8.9009311811023615
20
-3.039720157480315
10
8.9015748031496056
20
-3.0511811023622046
10
8.9015748031496056
20
-5.659448818897638
10
8.9009311811023615
20
-5.6709097637795285
10
8.8990083858267717
20
-5.6822265354330703
10
8.8958305905511814
20
-5.6932569291338577
10
8.8914377559055122
20
-5.7038621259842524
10
8.885885157480315
20
-5.7139087795275589
10
8.879242598425197
20
-5.7232705905511807
10
8.8715936220472447
20
-5.7318298425196845
10
8.86303437007874
20
-5.7394788188976378
10
8.85367255905512
20
-5.7461213779527567
10
8.8436259055118089
20
-5.7516739763779521
10
8.8330207086614188
20
-5.7560668110236222
10
8.8219903149606296
20
-5.7592446062992133
10
8.810673543307086
20
-5.761167401574804
10
8.7992125984251963
20
-5.7618110236220481
10
2.106299212598425
20
-5.7618110236220481
10
2.0948382677165358
20
-5.761167401574804
10
2.0835214960629922
20
-5.7592446062992133
10
2.0724911023622052
20
-5.7560668110236222
10
2.0618859055118111
20
-5.7516739763779521
10
2.051839251968504
20
-5.7461213779527567
10
2.0424774409448823
20
-5.7394788188976378
10
2.033918188976378
20
-5.7318298425196845
10
2.0262692125984252
20
-5.7232705905511807
10
2.0196266535433072
20
-5.7139087795275589
10
2.01407405511811
20
-5.7038621259842524
10
2.0096812204724408
20
-5.6932569291338577
10
2.0065034251968505
20
-5.6822265354330703
10
2.0045806299212598
20
-5.6709097637795285
10
2.0039370078740162
20
-5.659448818897638
10
2.0039370078740162
20
-3.0511811023622046
10
2.0045806299212598
20
-3.039720157480315
10
2.0065034251968505
20
-3.0284033858267723
10
2.0096812204724408
20
-3.017372992125984
10
2.01407405511811
20
-3.0067677952755911
10
2.0196266535433072
20
-2.9967211417322832
10
2.0262692125984252
20
-2.987359330708661
10
2.033918188976378
20
-2.9788000787401576
10
2.0424774409448823
20
-2.9711511023622048
10
2.051839251968504
20
-2.9645085433070868
10
2.0618859055118111
20
-2.9589559448818896
10
2.0724911023622052
20
-2.9545631102362209
10
2.0835214960629922
20
-2.9513853149606302
10
2.0948382677165358
20
-2.9494625196850395
10
2.106299212598425
20
-2.9488188976377963
0
LWPOLYLINE
5
101
100
AcDbEntity
8
0
100
AcDbPolyline
90
60
70
1
43
0.0
10
2.106299212598425
20
-2.9566929133858273
10
2.1005837401574801
20
-2.9566929133858273
10
2.0892361023622046
20
-2.9580707480314961
10
2.0781373228346456
20
-2.9608063779527565
10
2.0674491732283462
20
-2.9648598425196848
10
2.0573275590551181
20
-2.970172086614173
10
2.0479200393700787
20
-2.9766655905511814
10
2.0393638582677163
20
-2.9842457480314959
10
2.0317837007874013
20
-2.9928019291338588
10
2.0252901968503938
20
-3.0022094488188977
10
2.0199779527559061
20
-3.0123310629921258
10
2.0159244881889764
20
-3.0230192125984252
10
2.0131888582677164
20
-3.0341179921259842
10
2.0118110236220472
20
-3.0454656299212601
10
2.0118110236220472
20
-3.0511811023622046
10
2.0118110236220472
20
-5.659448818897638
10
2.0118110236220472
20
-5.6651642913385833
10
2.0131888582677164
20
-5.6765119291338575
10
2.0159244881889764
20
-5.6876107086614169
10
2.0199779527559061
20
-5.6982988582677176
10
2.0252901968503938
20
-5.7084204724409453
10
2.0317837007874013
20
-5.7178279921259847
10
2.0393638582677163
20
-5.7263841732283467
10
2.0479200393700787
20
-5.7339643307086616
10
2.0573275590551181
20
-5.7404578346456692
10
2.0674491732283462
20
-5.7457700787401578
10
2.0781373228346456
20
-5.7498235433070874
10
2.0892361023622046
20
-5.7525591732283452
10
2.1005837401574801
20
-5.7539370078740157
10
2.106299212598425
20
-5.7539370078740157
10
8.7992125984251963
20
-5.7539370078740157
10
8.8049280708661399
20
-5.7539370078740157
10
8.8162757086614167
20
-5.7525591732283452
10
8.8273744881889762
20
-5.7498235433070874
10
8.8380626377952751
20
-5.7457700787401578
10
8.8481842519685046
20
-5.7404578346456692
10
8.8575917716535439
20
-5.7339643307086616
10
8.8661479527559077
20
-5.7263841732283467
10
8.8737281102362218
20
-5.7178279921259847
10
8.8802216141732302
20
-5.7084204724409453
10
8.885533858267717
20
-5.6982988582677176
10
8.8895873228346449
20
-5.6876107086614169
10
8.8923229527559045
20
-5.6765119291338575
10
8.8937007874015741
20
-5.6651642913385833
10
8.8937007874015741
20
-5.659448818897638
10
8.8937007874015741
20
-3.0511811023622046
10
8.8937007874015741
20
-3.0454656299212601
10
8.8923229527559045
20
-3.0341179921259842
10
8.8895873228346449
20
-3.0230192125984252
10
8.885533858267717
20
-3.0123310629921258
10
8.8802216141732302
20
-3.0022094488188977
10
8.8737281102362218
20
-2.9928019291338588
10
8.8661479527559077
20
-2.9842457480314959
10
8.8575917716535439
20
-2.9766655905511814
10
8.8481842519685046
20
-2.970172086614173
10
8.8380626377952751
20
-2.9648598425196848
10
8.8273744881889762
20
-2.9608063779527565
10
8.8162757086614167
20
-2.9580707480314961
10
8.8049280708661399
20
-2.9566929133858273
10
8.7992125984251963
20
-2.9566929133858273
0
CIRCLE
5
102
100
AcDbEntity
8
0
100
AcDbCircle
10
3.0590551181102366
20
-5.1692913385826769
30
0
40
0.059055118110236199
210
0
220
0
230
1
0
CIRCLE
5
103
100
AcDbEntity
8
0
100
AcDbCircle
10
5.2480314960629917
20
-4.9448818897637796
30
0
40
0.059055118110236199
210
0
220
0
230
1
0
CIRCLE
5
104
100
AcDbEntity
8
0
100
AcDbCircle
10
8.7362204724409445
20
-3.3582677165354329
30
0
40
0.059055118110236199
210
0
220
0
230
1
0
CIRCLE
5
105
100
AcDbEntity
8
0
100
AcDbCircle
10
7.7007874015748037
20
-5.5393700787401565
30
0
40
0.059055118110236199
210
0
220
0
230
1
0
CIRCLE
5
106
100
AcDbEntity
8
0
100
AcDbCircle
10
2.8740157480314958
20
-3.3188976377952755
30
0
40
0.059055118110236199
210
0
220
0
230
1
0
CIRCLE
5
107
100
AcDbEntity
8
0
100
AcDbCircle
10
6.1968503937007879
20
-3.5314960629921255
30
0
40
0.059055118110236199
210
0
220
0
230
1
0
CIRCLE
5
108
100
AcDbEntity
8
0
100
AcDbCircle
10
3.0590551181102366
20
-5.1692913385826769
30
0
40
0.059055078740157502
210
0
220
0
230
1
0
CIRCLE
5
109
100
AcDbEntity
8
0
100
AcDbCircle
10
5.2480314960629917
20
-4.9448818897637796
30
0
40
0.059055078740157502
210
0
220
0
230
1
0
CIRCLE
5
110
100
AcDbEntity
8
0
100
AcDbCircle
10
8.7362204724409445
20
-3.3582677165354329
30
0
40
0.059055078740157502
210
0
220
0
230
1
0
CIRCLE
5
111
100
AcDbEntity
8
0
100
AcDbCircle
10
7.7007874015748037
20
-5.5393700787401565
30
0
40
0.059055078740157502
210
0
220
0
230
1
0
CIRCLE
5
112
100
AcDbEntity
8
0
100
AcDbCircle
10
2.8740157480314958
20
-3.3188976377952755
30
0
40
0.059055078740157502
210
0
220
0
230
1
0
CIRCLE
5
113
100
AcDbEntity
8
0
100
AcDbCircle
10
6.1968503937007879
20
-3.5314960629921255
30
0
40
0.059055078740157502
210
0
220
0
230
1
0
ENDSEC
0
SECTION
2
OBJECTS
0
DICTIONARY
5
C
100
AcDbDictionary
3
ACAD_GROUP
350
D
3
ACAD_MLINESTYLE
350
17
0
DICTIONARY
5
D
100
AcDbDictionary
0
DICTIONARY
5
1A
330
C
100
AcDbDictionary
0
DICTIONARY
5
17
100
AcDbDictionary
0
ENDSEC
0
EOF
