  0
SECTION
  2
HEADER
  9
$ANGBASE
  50
0.0
  9
$ANGDIR
  70
1
  9
$MEASUREMENT
  70
0
  0
ENDSEC
  0
SECTION
  2
TABLES
  0
TABLE
  2
LTYPE
  70
4
  0
LTYPE
  5
40F
  2
CONTINUOUS
  70
0
  3
Solid line
  72
65
  73
0
  40
0.0
  0
LTYPE
  5
410
  2
DASHDOT
 70
0
  3
Dash Dot ____ _ ____ _
 72
65
 73
4
 40
2.0
 49
1.25
 49
-0.25
 49
0.25
 49
-0.25
  0
LTYPE
  5
411
  2
DASHED
 70
0
  3
Dashed __ __ __ __ __
 72
65
 73
2
 40
0.75
 49
0.5
 49
-0.25
  0
LTYPE
  5
43B
  2
DOTTED
 70
0
  3
Dotted .  .  .  .
 72
65
 73
2
 40
0.2
 49
0.0
 49
-0.2
  0
ENDTAB
  0
TABLE
  2
STYLE
  70
4
  0
STYLE
  2
KICAD
  70
0
  40
0
  41
1
  42
1
  50
0
  71
0
  3
isocp.shx
  0
STYLE
  2
KICADB
  70
0
  40
0
  41
1
  42
1
  50
0
  71
0
  3
isocp.shx
  0
STYLE
  2
KICADI
  70
0
  40
0
  41
1
  42
1
  50
15
  71
0
  3
isocp.shx
  0
STYLE
  2
KICADBI
  70
0
  40
0
  41
1
  42
1
  50
15
  71
0
  3
isocp.shx
  0
ENDTAB
  0
TABLE
  2
LAYER
  70
1
  0
LAYER
  2
BLACK
  70
0
  62
7
  6
CONTINUOUS
  0
ENDTAB
  0
ENDSEC
  0
SECTION
  2
ENTITIES
0
LINE
8
BLACK
6
CONTINUOUS
10
8.7992125984251963
20
-2.9488188976377954
11
8.810673543307086
21
-2.9494625196850395
0
LINE
8
BLACK
6
CONTINUOUS
10
8.810673543307086
20
-2.9494625196850395
11
8.8219903149606296
21
-2.9513853149606297
0
LINE
8
BLACK
6
CONTINUOUS
10
8.8219903149606296
20
-2.9513853149606297
11
8.833020708661417
21
-2.9545631102362204
0
LINE
8
BLACK
6
CONTINUOUS
10
8.833020708661417
20
-2.9545631102362204
11
8.8436259055118107
21
-2.9589559448818896
0
LINE
8
BLACK
6
CONTINUOUS
10
8.8436259055118107
20
-2.9589559448818896
11
8.8536725590551182
21
-2.9645085433070864
0
LINE
8
BLACK
6
CONTINUOUS
10
8.8536725590551182
20
-2.9645085433070864
11
8.86303437007874
21
-2.9711511023622048
0
LINE
8
BLACK
6
CONTINUOUS
10
8.86303437007874
20
-2.9711511023622048
11
8.8715936220472447
21
-2.9788000787401576
0
LINE
8
BLACK
6
CONTINUOUS
10
8.8715936220472447
20
-2.9788000787401576
11
8.879242598425197
21
-2.9873593307086614
0
LINE
8
BLACK
6
CONTINUOUS
10
8.879242598425197
20
-2.9873593307086614
11
8.885885157480315
21
-2.9967211417322832
0
LINE
8
BLACK
6
CONTINUOUS
10
8.885885157480315
20
-2.9967211417322832
11
8.8914377559055122
21
-3.0067677952755907
0
LINE
8
BLACK
6
CONTINUOUS
10
8.8914377559055122
20
-3.0067677952755907
11
8.8958305905511814
21
-3.017372992125984
0
LINE
8
BLACK
6
CONTINUOUS
10
8.8958305905511814
20
-3.017372992125984
11
8.8990083858267717
21
-3.0284033858267714
0
LINE
8
BLACK
6
CONTINUOUS
10
8.8990083858267717
20
-3.0284033858267714
11
8.9009311811023615
21
-3.039720157480315
0
LINE
8
BLACK
6
CONTINUOUS
10
8.9009311811023615
20
-3.039720157480315
11
8.9015748031496056
21
-3.0511811023622046
0
LINE
8
BLACK
6
CONTINUOUS
10
8.9015748031496056
20
-3.0511811023622046
11
8.9015748031496056
21
-5.659448818897638
0
LINE
8
BLACK
6
CONTINUOUS
10
8.9015748031496056
20
-5.659448818897638
11
8.9009311811023615
21
-5.6709097637795276
0
LINE
8
BLACK
6
CONTINUOUS
10
8.9009311811023615
20
-5.6709097637795276
11
8.8990083858267717
21
-5.6822265354330703
0
LINE
8
BLACK
6
CONTINUOUS
10
8.8990083858267717
20
-5.6822265354330703
11
8.8958305905511814
21
-5.6932569291338577
0
LINE
8
BLACK
6
CONTINUOUS
10
8.8958305905511814
20
-5.6932569291338577
11
8.8914377559055122
21
-5.7038621259842515
0
LINE
8
BLACK
6
CONTINUOUS
10
8.8914377559055122
20
-5.7038621259842515
11
8.885885157480315
21
-5.7139087795275589
0
LINE
8
BLACK
6
CONTINUOUS
10
8.885885157480315
20
-5.7139087795275589
11
8.879242598425197
21
-5.7232705905511807
0
LINE
8
BLACK
6
CONTINUOUS
10
8.879242598425197
20
-5.7232705905511807
11
8.8715936220472447
21
-5.7318298425196845
0
LINE
8
BLACK
6
CONTINUOUS
10
8.8715936220472447
20
-5.7318298425196845
11
8.86303437007874
21
-5.7394788188976378
0
LINE
8
BLACK
6
CONTINUOUS
10
8.86303437007874
20
-5.7394788188976378
11
8.8536725590551182
21
-5.7461213779527558
0
LINE
8
BLACK
6
CONTINUOUS
10
8.8536725590551182
20
-5.7461213779527558
11
8.8436259055118107
21
-5.751673976377953
0
LINE
8
BLACK
6
CONTINUOUS
10
8.8436259055118107
20
-5.751673976377953
11
8.833020708661417
21
-5.7560668110236222
0
LINE
8
BLACK
6
CONTINUOUS
10
8.833020708661417
20
-5.7560668110236222
11
8.8219903149606296
21
-5.7592446062992124
0
LINE
8
BLACK
6
CONTINUOUS
10
8.8219903149606296
20
-5.7592446062992124
11
8.810673543307086
21
-5.7611674015748031
0
LINE
8
BLACK
6
CONTINUOUS
10
8.810673543307086
20
-5.7611674015748031
11
8.7992125984251963
21
-5.7618110236220472
0
LINE
8
BLACK
6
CONTINUOUS
10
8.7992125984251963
20
-5.7618110236220472
11
2.106299212598425
21
-5.7618110236220472
0
LINE
8
BLACK
6
CONTINUOUS
10
2.106299212598425
20
-5.7618110236220472
11
2.0948382677165354
21
-5.7611674015748031
0
LINE
8
BLACK
6
CONTINUOUS
10
2.0948382677165354
20
-5.7611674015748031
11
2.0835214960629922
21
-5.7592446062992124
0
LINE
8
BLACK
6
CONTINUOUS
10
2.0835214960629922
20
-5.7592446062992124
11
2.0724911023622048
21
-5.7560668110236222
0
LINE
8
BLACK
6
CONTINUOUS
10
2.0724911023622048
20
-5.7560668110236222
11
2.0618859055118111
21
-5.751673976377953
0
LINE
8
BLACK
6
CONTINUOUS
10
2.0618859055118111
20
-5.751673976377953
11
2.051839251968504
21
-5.7461213779527558
0
LINE
8
BLACK
6
CONTINUOUS
10
2.051839251968504
20
-5.7461213779527558
11
2.0424774409448818
21
-5.7394788188976378
0
LINE
8
BLACK
6
CONTINUOUS
10
2.0424774409448818
20
-5.7394788188976378
11
2.033918188976378
21
-5.7318298425196845
0
LINE
8
BLACK
6
CONTINUOUS
10
2.033918188976378
20
-5.7318298425196845
11
2.0262692125984252
21
-5.7232705905511807
0
LINE
8
BLACK
6
CONTINUOUS
10
2.0262692125984252
20
-5.7232705905511807
11
2.0196266535433072
21
-5.7139087795275589
0
LINE
8
BLACK
6
CONTINUOUS
10
2.0196266535433072
20
-5.7139087795275589
11
2.01407405511811
21
-5.7038621259842515
0
LINE
8
BLACK
6
CONTINUOUS
10
2.01407405511811
20
-5.7038621259842515
11
2.0096812204724408
21
-5.6932569291338577
0
LINE
8
BLACK
6
CONTINUOUS
10
2.0096812204724408
20
-5.6932569291338577
11
2.0065034251968505
21
-5.6822265354330703
0
LINE
8
BLACK
6
CONTINUOUS
10
2.0065034251968505
20
-5.6822265354330703
11
2.0045806299212598
21
-5.6709097637795276
0
LINE
8
BLACK
6
CONTINUOUS
10
2.0045806299212598
20
-5.6709097637795276
11
2.0039370078740157
21
-5.659448818897638
0
LINE
8
BLACK
6
CONTINUOUS
10
2.0039370078740157
20
-5.659448818897638
11
2.0039370078740157
21
-3.0511811023622046
0
LINE
8
BLACK
6
CONTINUOUS
10
2.0039370078740157
20
-3.0511811023622046
11
2.0045806299212598
21
-3.039720157480315
0
LINE
8
BLACK
6
CONTINUOUS
10
2.0045806299212598
20
-3.039720157480315
11
2.0065034251968505
21
-3.0284033858267714
0
LINE
8
BLACK
6
CONTINUOUS
10
2.0065034251968505
20
-3.0284033858267714
11
2.0096812204724408
21
-3.017372992125984
0
LINE
8
BLACK
6
CONTINUOUS
10
2.0096812204724408
20
-3.017372992125984
11
2.01407405511811
21
-3.0067677952755907
0
LINE
8
BLACK
6
CONTINUOUS
10
2.01407405511811
20
-3.0067677952755907
11
2.0196266535433072
21
-2.9967211417322832
0
LINE
8
BLACK
6
CONTINUOUS
10
2.0196266535433072
20
-2.9967211417322832
11
2.0262692125984252
21
-2.9873593307086614
0
LINE
8
BLACK
6
CONTINUOUS
10
2.0262692125984252
20
-2.9873593307086614
11
2.033918188976378
21
-2.9788000787401576
0
LINE
8
BLACK
6
CONTINUOUS
10
2.033918188976378
20
-2.9788000787401576
11
2.0424774409448818
21
-2.9711511023622048
0
LINE
8
BLACK
6
CONTINUOUS
10
2.0424774409448818
20
-2.9711511023622048
11
2.051839251968504
21
-2.9645085433070864
0
LINE
8
BLACK
6
CONTINUOUS
10
2.051839251968504
20
-2.9645085433070864
11
2.0618859055118111
21
-2.9589559448818896
0
LINE
8
BLACK
6
CONTINUOUS
10
2.0618859055118111
20
-2.9589559448818896
11
2.0724911023622048
21
-2.9545631102362204
0
LINE
8
BLACK
6
CONTINUOUS
10
2.0724911023622048
20
-2.9545631102362204
11
2.0835214960629922
21
-2.9513853149606297
0
LINE
8
BLACK
6
CONTINUOUS
10
2.0835214960629922
20
-2.9513853149606297
11
2.0948382677165354
21
-2.9494625196850395
0
LINE
8
BLACK
6
CONTINUOUS
10
2.0948382677165354
20
-2.9494625196850395
11
2.106299212598425
21
-2.9488188976377954
0
LINE
8
BLACK
6
CONTINUOUS
10
2.106299212598425
20
-2.9488188976377954
11
8.7992125984251963
21
-2.9488188976377954
0
LINE
8
BLACK
6
CONTINUOUS
10
2.106299212598425
20
-2.9566929133858268
11
2.1005837401574801
21
-2.9566929133858268
0
LINE
8
BLACK
6
CONTINUOUS
10
2.1005837401574801
20
-2.9566929133858268
11
2.0892361023622046
21
-2.9580707480314961
0
LINE
8
BLACK
6
CONTINUOUS
10
2.0892361023622046
20
-2.9580707480314961
11
2.0781373228346456
21
-2.960806377952756
0
LINE
8
BLACK
6
CONTINUOUS
10
2.0781373228346456
20
-2.960806377952756
11
2.0674491732283462
21
-2.9648598425196848
0
LINE
8
BLACK
6
CONTINUOUS
10
2.0674491732283462
20
-2.9648598425196848
11
2.0573275590551181
21
-2.970172086614173
0
LINE
8
BLACK
6
CONTINUOUS
10
2.0573275590551181
20
-2.970172086614173
11
2.0479200393700787
21
-2.976665590551181
0
LINE
8
BLACK
6
CONTINUOUS
10
2.0479200393700787
20
-2.976665590551181
11
2.0393638582677163
21
-2.9842457480314959
0
LINE
8
BLACK
6
CONTINUOUS
10
2.0393638582677163
20
-2.9842457480314959
11
2.0317837007874013
21
-2.9928019291338583
0
LINE
8
BLACK
6
CONTINUOUS
10
2.0317837007874013
20
-2.9928019291338583
11
2.0252901968503938
21
-3.0022094488188977
0
LINE
8
BLACK
6
CONTINUOUS
10
2.0252901968503938
20
-3.0022094488188977
11
2.0199779527559056
21
-3.0123310629921258
0
LINE
8
BLACK
6
CONTINUOUS
10
2.0199779527559056
20
-3.0123310629921258
11
2.0159244881889764
21
-3.0230192125984252
0
LINE
8
BLACK
6
CONTINUOUS
10
2.0159244881889764
20
-3.0230192125984252
11
2.0131888582677164
21
-3.0341179921259842
0
LINE
8
BLACK
6
CONTINUOUS
10
2.0131888582677164
20
-3.0341179921259842
11
2.0118110236220472
21
-3.0454656299212597
0
LINE
8
BLACK
6
CONTINUOUS
10
2.0118110236220472
20
-3.0454656299212597
11
2.0118110236220472
21
-3.0511811023622046
0
LINE
8
BLACK
6
CONTINUOUS
10
2.0118110236220472
20
-3.0511811023622046
11
2.0118110236220472
21
-5.659448818897638
0
LINE
8
BLACK
6
CONTINUOUS
10
2.0118110236220472
20
-5.659448818897638
11
2.0118110236220472
21
-5.6651642913385825
0
LINE
8
BLACK
6
CONTINUOUS
10
2.0118110236220472
20
-5.6651642913385825
11
2.0131888582677164
21
-5.6765119291338584
0
LINE
8
BLACK
6
CONTINUOUS
10
2.0131888582677164
20
-5.6765119291338584
11
2.0159244881889764
21
-5.6876107086614169
0
LINE
8
BLACK
6
CONTINUOUS
10
2.0159244881889764
20
-5.6876107086614169
11
2.0199779527559056
21
-5.6982988582677168
0
LINE
8
BLACK
6
CONTINUOUS
10
2.0199779527559056
20
-5.6982988582677168
11
2.0252901968503938
21
-5.7084204724409444
0
LINE
8
BLACK
6
CONTINUOUS
10
2.0252901968503938
20
-5.7084204724409444
11
2.0317837007874013
21
-5.7178279921259838
0
LINE
8
BLACK
6
CONTINUOUS
10
2.0317837007874013
20
-5.7178279921259838
11
2.0393638582677163
21
-5.7263841732283467
0
LINE
8
BLACK
6
CONTINUOUS
10
2.0393638582677163
20
-5.7263841732283467
11
2.0479200393700787
21
-5.7339643307086616
0
LINE
8
BLACK
6
CONTINUOUS
10
2.0479200393700787
20
-5.7339643307086616
11
2.0573275590551181
21
-5.7404578346456692
0
LINE
8
BLACK
6
CONTINUOUS
10
2.0573275590551181
20
-5.7404578346456692
11
2.0674491732283462
21
-5.7457700787401578
0
LINE
8
BLACK
6
CONTINUOUS
10
2.0674491732283462
20
-5.7457700787401578
11
2.0781373228346456
21
-5.7498235433070866
0
LINE
8
BLACK
6
CONTINUOUS
10
2.0781373228346456
20
-5.7498235433070866
11
2.0892361023622046
21
-5.7525591732283461
0
LINE
8
BLACK
6
CONTINUOUS
10
2.0892361023622046
20
-5.7525591732283461
11
2.1005837401574801
21
-5.7539370078740157
0
LINE
8
BLACK
6
CONTINUOUS
10
2.1005837401574801
20
-5.7539370078740157
11
2.106299212598425
21
-5.7539370078740157
0
LINE
8
BLACK
6
CONTINUOUS
10
2.106299212598425
20
-5.7539370078740157
11
8.7992125984251963
21
-5.7539370078740157
0
LINE
8
BLACK
6
CONTINUOUS
10
8.7992125984251963
20
-5.7539370078740157
11
8.8049280708661417
21
-5.7539370078740157
0
LINE
8
BLACK
6
CONTINUOUS
10
8.8049280708661417
20
-5.7539370078740157
11
8.8162757086614167
21
-5.7525591732283461
0
LINE
8
BLACK
6
CONTINUOUS
10
8.8162757086614167
20
-5.7525591732283461
11
8.8273744881889762
21
-5.7498235433070866
0
LINE
8
BLACK
6
CONTINUOUS
10
8.8273744881889762
20
-5.7498235433070866
11
8.8380626377952751
21
-5.7457700787401578
0
LINE
8
BLACK
6
CONTINUOUS
10
8.8380626377952751
20
-5.7457700787401578
11
8.8481842519685046
21
-5.7404578346456692
0
LINE
8
BLACK
6
CONTINUOUS
10
8.8481842519685046
20
-5.7404578346456692
11
8.8575917716535439
21
-5.7339643307086616
0
LINE
8
BLACK
6
CONTINUOUS
10
8.8575917716535439
20
-5.7339643307086616
11
8.8661479527559059
21
-5.7263841732283467
0
LINE
8
BLACK
6
CONTINUOUS
10
8.8661479527559059
20
-5.7263841732283467
11
8.87372811023622
21
-5.7178279921259838
0
LINE
8
BLACK
6
CONTINUOUS
10
8.87372811023622
20
-5.7178279921259838
11
8.8802216141732284
21
-5.7084204724409444
0
LINE
8
BLACK
6
CONTINUOUS
10
8.8802216141732284
20
-5.7084204724409444
11
8.885533858267717
21
-5.6982988582677168
0
LINE
8
BLACK
6
CONTINUOUS
10
8.885533858267717
20
-5.6982988582677168
11
8.8895873228346449
21
-5.6876107086614169
0
LINE
8
BLACK
6
CONTINUOUS
10
8.8895873228346449
20
-5.6876107086614169
11
8.8923229527559045
21
-5.6765119291338584
0
LINE
8
BLACK
6
CONTINUOUS
10
8.8923229527559045
20
-5.6765119291338584
11
8.8937007874015741
21
-5.6651642913385825
0
LINE
8
BLACK
6
CONTINUOUS
10
8.8937007874015741
20
-5.6651642913385825
11
8.8937007874015741
21
-5.659448818897638
0
LINE
8
BLACK
6
CONTINUOUS
10
8.8937007874015741
20
-5.659448818897638
11
8.8937007874015741
21
-3.0511811023622046
0
LINE
8
BLACK
6
CONTINUOUS
10
8.8937007874015741
20
-3.0511811023622046
11
8.8937007874015741
21
-3.0454656299212597
0
LINE
8
BLACK
6
CONTINUOUS
10
8.8937007874015741
20
-3.0454656299212597
11
8.8923229527559045
21
-3.0341179921259842
0
LINE
8
BLACK
6
CONTINUOUS
10
8.8923229527559045
20
-3.0341179921259842
11
8.8895873228346449
21
-3.0230192125984252
0
LINE
8
BLACK
6
CONTINUOUS
10
8.8895873228346449
20
-3.0230192125984252
11
8.885533858267717
21
-3.0123310629921258
0
LINE
8
BLACK
6
CONTINUOUS
10
8.885533858267717
20
-3.0123310629921258
11
8.8802216141732284
21
-3.0022094488188977
0
LINE
8
BLACK
6
CONTINUOUS
10
8.8802216141732284
20
-3.0022094488188977
11
8.87372811023622
21
-2.9928019291338583
0
LINE
8
BLACK
6
CONTINUOUS
10
8.87372811023622
20
-2.9928019291338583
11
8.8661479527559059
21
-2.9842457480314959
0
LINE
8
BLACK
6
CONTINUOUS
10
8.8661479527559059
20
-2.9842457480314959
11
8.8575917716535439
21
-2.976665590551181
0
LINE
8
BLACK
6
CONTINUOUS
10
8.8575917716535439
20
-2.976665590551181
11
8.8481842519685046
21
-2.970172086614173
0
LINE
8
BLACK
6
CONTINUOUS
10
8.8481842519685046
20
-2.970172086614173
11
8.8380626377952751
21
-2.9648598425196848
0
LINE
8
BLACK
6
CONTINUOUS
10
8.8380626377952751
20
-2.9648598425196848
11
8.8273744881889762
21
-2.960806377952756
0
LINE
8
BLACK
6
CONTINUOUS
10
8.8273744881889762
20
-2.960806377952756
11
8.8162757086614167
21
-2.9580707480314961
0
LINE
8
BLACK
6
CONTINUOUS
10
8.8162757086614167
20
-2.9580707480314961
11
8.8049280708661417
21
-2.9566929133858268
0
LINE
8
BLACK
6
CONTINUOUS
10
8.8049280708661417
20
-2.9566929133858268
11
8.7992125984251963
21
-2.9566929133858268
0
LINE
8
BLACK
6
CONTINUOUS
10
8.7992125984251963
20
-2.9566929133858268
11
2.106299212598425
21
-2.9566929133858268
0
CIRCLE
8
BLACK
10
8.5039370078740149
20
-5.5649606299212593
40
0.0324803149606299
0
CIRCLE
8
BLACK
10
8.3169291338582667
20
-5.5649606299212593
40
0.0324803149606299
0
CIRCLE
8
BLACK
10
3.0590551181102361
20
-5.1692913385826769
40
0.0590551181102362
0
CIRCLE
8
BLACK
10
2.372047244094488
20
-5.4647637795275585
40
0.0196850393700787
0
CIRCLE
8
BLACK
10
2.4704724409448819
20
-5.4647637795275585
40
0.0196850393700787
0
CIRCLE
8
BLACK
10
6.5452755905511806
20
-5.5275590551181102
40
0.0196850393700787
0
CIRCLE
8
BLACK
10
6.643700787401575
20
-5.5275590551181102
40
0.0196850393700787
0
CIRCLE
8
BLACK
10
4.5515748031496059
20
-3.3822834645669291
40
0.0039370078740157
0
CIRCLE
8
BLACK
10
4.5515748031496059
20
-3.4374015748031495
40
0.0039370078740157
0
CIRCLE
8
BLACK
10
4.5791338582677161
20
-3.3547244094488189
40
0.0039370078740157
0
CIRCLE
8
BLACK
10
4.5791338582677161
20
-3.4098425196850393
40
0.0039370078740157
0
CIRCLE
8
BLACK
10
4.5791338582677161
20
-3.4649606299212596
40
0.0039370078740157
0
CIRCLE
8
BLACK
10
4.6066929133858263
20
-3.3822834645669291
40
0.0039370078740157
0
CIRCLE
8
BLACK
10
4.6066929133858263
20
-3.4374015748031495
40
0.0039370078740157
0
CIRCLE
8
BLACK
10
4.6342519685039365
20
-3.3547244094488189
40
0.0039370078740157
0
CIRCLE
8
BLACK
10
4.6342519685039365
20
-3.4098425196850393
40
0.0039370078740157
0
CIRCLE
8
BLACK
10
4.6342519685039365
20
-3.4649606299212596
40
0.0039370078740157
0
CIRCLE
8
BLACK
10
4.6618110236220476
20
-3.3822834645669291
40
0.0039370078740157
0
CIRCLE
8
BLACK
10
4.6618110236220476
20
-3.4374015748031495
40
0.0039370078740157
0
CIRCLE
8
BLACK
10
2.6082677165354329
20
-3.2458661417322836
40
0.0196850393700787
0
CIRCLE
8
BLACK
10
2.5098425196850394
20
-3.2458661417322836
40
0.0196850393700787
0
CIRCLE
8
BLACK
10
5.5925196850393704
20
-5.5295275590551176
40
0.0196850393700787
0
CIRCLE
8
BLACK
10
5.6909448818897639
20
-5.5295275590551176
40
0.0196850393700787
0
CIRCLE
8
BLACK
10
6.1893700787401578
20
-4.6098425196850394
40
0.0688976377952756
0
CIRCLE
8
BLACK
10
6.0893700787401572
20
-5.265748031496063
40
0.0216535433070866
0
CIRCLE
8
BLACK
10
6.1893700787401578
20
-5.265748031496063
40
0.0216535433070866
0
CIRCLE
8
BLACK
10
6.2893700787401574
20
-5.265748031496063
40
0.0216535433070866
0
CIRCLE
8
BLACK
10
3.8440944881889765
20
-4.0433070866141732
40
0.0196850393700787
0
CIRCLE
8
BLACK
10
3.9440944881889761
20
-4.0433070866141732
40
0.0196850393700787
0
CIRCLE
8
BLACK
10
4.0440944881889767
20
-4.0433070866141732
40
0.0196850393700787
0
CIRCLE
8
BLACK
10
4.1440944881889763
20
-4.0433070866141732
40
0.0196850393700787
0
CIRCLE
8
BLACK
10
3.4429133858267718
20
-5.5295275590551176
40
0.0196850393700787
0
CIRCLE
8
BLACK
10
3.5413385826771653
20
-5.5295275590551176
40
0.0196850393700787
0
CIRCLE
8
BLACK
10
7.9822834645669287
20
-3.0578740157480313
40
0.0196850393700787
0
CIRCLE
8
BLACK
10
7.9822834645669287
20
-3.1578740157480314
40
0.0196850393700787
0
CIRCLE
8
BLACK
10
7.9822834645669287
20
-3.2578740157480315
40
0.0196850393700787
0
LINE
8
BLACK
6
CONTINUOUS
10
7.7567939763779528
20
-3.0004268503937008
11
7.7575919685039372
21
-2.9974486220472438
0
LINE
8
BLACK
6
CONTINUOUS
10
7.7575919685039372
20
-2.9974486220472438
11
7.7591336220472442
21
-2.9947784251968503
0
LINE
8
BLACK
6
CONTINUOUS
10
7.7591336220472442
20
-2.9947784251968503
11
7.7613138582677159
21
-2.9925981889763777
0
LINE
8
BLACK
6
CONTINUOUS
10
7.7613138582677159
20
-2.9925981889763777
11
7.7639840551181099
21
-2.9910565354330707
0
LINE
8
BLACK
6
CONTINUOUS
10
7.7639840551181099
20
-2.9910565354330707
11
7.7669622834645669
21
-2.9902585433070867
0
LINE
8
BLACK
6
CONTINUOUS
10
7.7669622834645669
20
-2.9902585433070867
11
7.7700455905511809
21
-2.9902585433070867
0
LINE
8
BLACK
6
CONTINUOUS
10
7.7700455905511809
20
-2.9902585433070867
11
7.7730238188976379
21
-2.9910565354330707
0
LINE
8
BLACK
6
CONTINUOUS
10
7.7730238188976379
20
-2.9910565354330707
11
7.775694015748031
21
-2.9925981889763777
0
LINE
8
BLACK
6
CONTINUOUS
10
7.775694015748031
20
-2.9925981889763777
11
7.7778742519685036
21
-2.9947784251968503
0
LINE
8
BLACK
6
CONTINUOUS
10
7.7778742519685036
20
-2.9947784251968503
11
7.7794159055118106
21
-2.9974486220472438
0
LINE
8
BLACK
6
CONTINUOUS
10
7.7794159055118106
20
-2.9974486220472438
11
7.780213897637795
21
-3.0004268503937008
0
LINE
8
BLACK
6
CONTINUOUS
10
7.780213897637795
20
-3.0004268503937008
11
7.7803149606299211
21
-3.0019685039370079
0
LINE
8
BLACK
6
CONTINUOUS
10
7.7803149606299211
20
-3.0019685039370079
11
7.7803149606299211
21
-3.0492125984251968
0
LINE
8
BLACK
6
CONTINUOUS
10
7.7803149606299211
20
-3.0492125984251968
11
7.780213897637795
21
-3.0507542519685038
0
LINE
8
BLACK
6
CONTINUOUS
10
7.780213897637795
20
-3.0507542519685038
11
7.7794159055118106
21
-3.0537324803149604
0
LINE
8
BLACK
6
CONTINUOUS
10
7.7794159055118106
20
-3.0537324803149604
11
7.7778742519685036
21
-3.0564026771653543
0
LINE
8
BLACK
6
CONTINUOUS
10
7.7778742519685036
20
-3.0564026771653543
11
7.775694015748031
21
-3.0585829133858269
0
LINE
8
BLACK
6
CONTINUOUS
10
7.775694015748031
20
-3.0585829133858269
11
7.7730238188976379
21
-3.0601245669291339
0
LINE
8
BLACK
6
CONTINUOUS
10
7.7730238188976379
20
-3.0601245669291339
11
7.7700455905511809
21
-3.0609225590551179
0
LINE
8
BLACK
6
CONTINUOUS
10
7.7700455905511809
20
-3.0609225590551179
11
7.7669622834645669
21
-3.0609225590551179
0
LINE
8
BLACK
6
CONTINUOUS
10
7.7669622834645669
20
-3.0609225590551179
11
7.7639840551181099
21
-3.0601245669291339
0
LINE
8
BLACK
6
CONTINUOUS
10
7.7639840551181099
20
-3.0601245669291339
11
7.7613138582677159
21
-3.0585829133858269
0
LINE
8
BLACK
6
CONTINUOUS
10
7.7613138582677159
20
-3.0585829133858269
11
7.7591336220472442
21
-3.0564026771653543
0
LINE
8
BLACK
6
CONTINUOUS
10
7.7591336220472442
20
-3.0564026771653543
11
7.7575919685039372
21
-3.0537324803149604
0
LINE
8
BLACK
6
CONTINUOUS
10
7.7575919685039372
20
-3.0537324803149604
11
7.7567939763779528
21
-3.0507542519685038
0
LINE
8
BLACK
6
CONTINUOUS
10
7.7567939763779528
20
-3.0507542519685038
11
7.7566929133858267
21
-3.0492125984251968
0
LINE
8
BLACK
6
CONTINUOUS
10
7.7566929133858267
20
-3.0492125984251968
11
7.7566929133858267
21
-3.0019685039370079
0
LINE
8
BLACK
6
CONTINUOUS
10
7.7566929133858267
20
-3.0019685039370079
11
7.7567939763779528
21
-3.0004268503937008
0
LINE
8
BLACK
6
CONTINUOUS
10
7.416636496062992
20
-3.0004268503937008
11
7.4174344881889764
21
-2.9974486220472438
0
LINE
8
BLACK
6
CONTINUOUS
10
7.4174344881889764
20
-2.9974486220472438
11
7.4189761417322835
21
-2.9947784251968503
0
LINE
8
BLACK
6
CONTINUOUS
10
7.4189761417322835
20
-2.9947784251968503
11
7.4211563779527561
21
-2.9925981889763777
0
LINE
8
BLACK
6
CONTINUOUS
10
7.4211563779527561
20
-2.9925981889763777
11
7.4238265748031491
21
-2.9910565354330707
0
LINE
8
BLACK
6
CONTINUOUS
10
7.4238265748031491
20
-2.9910565354330707
11
7.4268048031496061
21
-2.9902585433070867
0
LINE
8
BLACK
6
CONTINUOUS
10
7.4268048031496061
20
-2.9902585433070867
11
7.4298881102362202
21
-2.9902585433070867
0
LINE
8
BLACK
6
CONTINUOUS
10
7.4298881102362202
20
-2.9902585433070867
11
7.4328663385826772
21
-2.9910565354330707
0
LINE
8
BLACK
6
CONTINUOUS
10
7.4328663385826772
20
-2.9910565354330707
11
7.4355365354330711
21
-2.9925981889763777
0
LINE
8
BLACK
6
CONTINUOUS
10
7.4355365354330711
20
-2.9925981889763777
11
7.4377167716535428
21
-2.9947784251968503
0
LINE
8
BLACK
6
CONTINUOUS
10
7.4377167716535428
20
-2.9947784251968503
11
7.4392584251968499
21
-2.9974486220472438
0
LINE
8
BLACK
6
CONTINUOUS
10
7.4392584251968499
20
-2.9974486220472438
11
7.4400564173228343
21
-3.0004268503937008
0
LINE
8
BLACK
6
CONTINUOUS
10
7.4400564173228343
20
-3.0004268503937008
11
7.4401574803149604
21
-3.0019685039370079
0
LINE
8
BLACK
6
CONTINUOUS
10
7.4401574803149604
20
-3.0019685039370079
11
7.4401574803149604
21
-3.0492125984251968
0
LINE
8
BLACK
6
CONTINUOUS
10
7.4401574803149604
20
-3.0492125984251968
11
7.4400564173228343
21
-3.0507542519685038
0
LINE
8
BLACK
6
CONTINUOUS
10
7.4400564173228343
20
-3.0507542519685038
11
7.4392584251968499
21
-3.0537324803149604
0
LINE
8
BLACK
6
CONTINUOUS
10
7.4392584251968499
20
-3.0537324803149604
11
7.4377167716535428
21
-3.0564026771653543
0
LINE
8
BLACK
6
CONTINUOUS
10
7.4377167716535428
20
-3.0564026771653543
11
7.4355365354330711
21
-3.0585829133858269
0
LINE
8
BLACK
6
CONTINUOUS
10
7.4355365354330711
20
-3.0585829133858269
11
7.4328663385826772
21
-3.0601245669291339
0
LINE
8
BLACK
6
CONTINUOUS
10
7.4328663385826772
20
-3.0601245669291339
11
7.4298881102362202
21
-3.0609225590551179
0
LINE
8
BLACK
6
CONTINUOUS
10
7.4298881102362202
20
-3.0609225590551179
11
7.4268048031496061
21
-3.0609225590551179
0
LINE
8
BLACK
6
CONTINUOUS
10
7.4268048031496061
20
-3.0609225590551179
11
7.4238265748031491
21
-3.0601245669291339
0
LINE
8
BLACK
6
CONTINUOUS
10
7.4238265748031491
20
-3.0601245669291339
11
7.4211563779527561
21
-3.0585829133858269
0
LINE
8
BLACK
6
CONTINUOUS
10
7.4211563779527561
20
-3.0585829133858269
11
7.4189761417322835
21
-3.0564026771653543
0
LINE
8
BLACK
6
CONTINUOUS
10
7.4189761417322835
20
-3.0564026771653543
11
7.4174344881889764
21
-3.0537324803149604
0
LINE
8
BLACK
6
CONTINUOUS
10
7.4174344881889764
20
-3.0537324803149604
11
7.416636496062992
21
-3.0507542519685038
0
LINE
8
BLACK
6
CONTINUOUS
10
7.416636496062992
20
-3.0507542519685038
11
7.4165354330708659
21
-3.0492125984251968
0
LINE
8
BLACK
6
CONTINUOUS
10
7.4165354330708659
20
-3.0492125984251968
11
7.4165354330708659
21
-3.0019685039370079
0
LINE
8
BLACK
6
CONTINUOUS
10
7.4165354330708659
20
-3.0019685039370079
11
7.416636496062992
21
-3.0004268503937008
0
LINE
8
BLACK
6
CONTINUOUS
10
7.7567939763779528
20
-3.165781181102362
11
7.7575919685039372
21
-3.1628029527559054
0
LINE
8
BLACK
6
CONTINUOUS
10
7.7575919685039372
20
-3.1628029527559054
11
7.7591336220472442
21
-3.1601327559055119
0
LINE
8
BLACK
6
CONTINUOUS
10
7.7591336220472442
20
-3.1601327559055119
11
7.7613138582677159
21
-3.1579525196850393
0
LINE
8
BLACK
6
CONTINUOUS
10
7.7613138582677159
20
-3.1579525196850393
11
7.7639840551181099
21
-3.1564108661417323
0
LINE
8
BLACK
6
CONTINUOUS
10
7.7639840551181099
20
-3.1564108661417323
11
7.7669622834645669
21
-3.1556128740157479
0
LINE
8
BLACK
6
CONTINUOUS
10
7.7669622834645669
20
-3.1556128740157479
11
7.7700455905511809
21
-3.1556128740157479
0
LINE
8
BLACK
6
CONTINUOUS
10
7.7700455905511809
20
-3.1556128740157479
11
7.7730238188976379
21
-3.1564108661417323
0
LINE
8
BLACK
6
CONTINUOUS
10
7.7730238188976379
20
-3.1564108661417323
11
7.775694015748031
21
-3.1579525196850393
0
LINE
8
BLACK
6
CONTINUOUS
10
7.775694015748031
20
-3.1579525196850393
11
7.7778742519685036
21
-3.1601327559055119
0
LINE
8
BLACK
6
CONTINUOUS
10
7.7778742519685036
20
-3.1601327559055119
11
7.7794159055118106
21
-3.1628029527559054
0
LINE
8
BLACK
6
CONTINUOUS
10
7.7794159055118106
20
-3.1628029527559054
11
7.780213897637795
21
-3.165781181102362
0
LINE
8
BLACK
6
CONTINUOUS
10
7.780213897637795
20
-3.165781181102362
11
7.7803149606299211
21
-3.1673228346456694
0
LINE
8
BLACK
6
CONTINUOUS
10
7.7803149606299211
20
-3.1673228346456694
11
7.7803149606299211
21
-3.1988188976377954
0
LINE
8
BLACK
6
CONTINUOUS
10
7.7803149606299211
20
-3.1988188976377954
11
7.780213897637795
21
-3.2003605511811024
0
LINE
8
BLACK
6
CONTINUOUS
10
7.780213897637795
20
-3.2003605511811024
11
7.7794159055118106
21
-3.203338779527559
0
LINE
8
BLACK
6
CONTINUOUS
10
7.7794159055118106
20
-3.203338779527559
11
7.7778742519685036
21
-3.2060089763779529
0
LINE
8
BLACK
6
CONTINUOUS
10
7.7778742519685036
20
-3.2060089763779529
11
7.775694015748031
21
-3.208189212598425
0
LINE
8
BLACK
6
CONTINUOUS
10
7.775694015748031
20
-3.208189212598425
11
7.7730238188976379
21
-3.2097308661417321
0
LINE
8
BLACK
6
CONTINUOUS
10
7.7730238188976379
20
-3.2097308661417321
11
7.7700455905511809
21
-3.2105288582677165
0
LINE
8
BLACK
6
CONTINUOUS
10
7.7700455905511809
20
-3.2105288582677165
11
7.7669622834645669
21
-3.2105288582677165
0
LINE
8
BLACK
6
CONTINUOUS
10
7.7669622834645669
20
-3.2105288582677165
11
7.7639840551181099
21
-3.2097308661417321
0
LINE
8
BLACK
6
CONTINUOUS
10
7.7639840551181099
20
-3.2097308661417321
11
7.7613138582677159
21
-3.208189212598425
0
LINE
8
BLACK
6
CONTINUOUS
10
7.7613138582677159
20
-3.208189212598425
11
7.7591336220472442
21
-3.2060089763779529
0
LINE
8
BLACK
6
CONTINUOUS
10
7.7591336220472442
20
-3.2060089763779529
11
7.7575919685039372
21
-3.203338779527559
0
LINE
8
BLACK
6
CONTINUOUS
10
7.7575919685039372
20
-3.203338779527559
11
7.7567939763779528
21
-3.2003605511811024
0
LINE
8
BLACK
6
CONTINUOUS
10
7.7567939763779528
20
-3.2003605511811024
11
7.7566929133858267
21
-3.1988188976377954
0
LINE
8
BLACK
6
CONTINUOUS
10
7.7566929133858267
20
-3.1988188976377954
11
7.7566929133858267
21
-3.1673228346456694
0
LINE
8
BLACK
6
CONTINUOUS
10
7.7566929133858267
20
-3.1673228346456694
11
7.7567939763779528
21
-3.165781181102362
0
LINE
8
BLACK
6
CONTINUOUS
10
7.416636496062992
20
-3.165781181102362
11
7.4174344881889764
21
-3.1628029527559054
0
LINE
8
BLACK
6
CONTINUOUS
10
7.4174344881889764
20
-3.1628029527559054
11
7.4189761417322835
21
-3.1601327559055119
0
LINE
8
BLACK
6
CONTINUOUS
10
7.4189761417322835
20
-3.1601327559055119
11
7.4211563779527561
21
-3.1579525196850393
0
LINE
8
BLACK
6
CONTINUOUS
10
7.4211563779527561
20
-3.1579525196850393
11
7.4238265748031491
21
-3.1564108661417323
0
LINE
8
BLACK
6
CONTINUOUS
10
7.4238265748031491
20
-3.1564108661417323
11
7.4268048031496061
21
-3.1556128740157479
0
LINE
8
BLACK
6
CONTINUOUS
10
7.4268048031496061
20
-3.1556128740157479
11
7.4298881102362202
21
-3.1556128740157479
0
LINE
8
BLACK
6
CONTINUOUS
10
7.4298881102362202
20
-3.1556128740157479
11
7.4328663385826772
21
-3.1564108661417323
0
LINE
8
BLACK
6
CONTINUOUS
10
7.4328663385826772
20
-3.1564108661417323
11
7.4355365354330711
21
-3.1579525196850393
0
LINE
8
BLACK
6
CONTINUOUS
10
7.4355365354330711
20
-3.1579525196850393
11
7.4377167716535428
21
-3.1601327559055119
0
LINE
8
BLACK
6
CONTINUOUS
10
7.4377167716535428
20
-3.1601327559055119
11
7.4392584251968499
21
-3.1628029527559054
0
LINE
8
BLACK
6
CONTINUOUS
10
7.4392584251968499
20
-3.1628029527559054
11
7.4400564173228343
21
-3.165781181102362
0
LINE
8
BLACK
6
CONTINUOUS
10
7.4400564173228343
20
-3.165781181102362
11
7.4401574803149604
21
-3.1673228346456694
0
LINE
8
BLACK
6
CONTINUOUS
10
7.4401574803149604
20
-3.1673228346456694
11
7.4401574803149604
21
-3.1988188976377954
0
LINE
8
BLACK
6
CONTINUOUS
10
7.4401574803149604
20
-3.1988188976377954
11
7.4400564173228343
21
-3.2003605511811024
0
LINE
8
BLACK
6
CONTINUOUS
10
7.4400564173228343
20
-3.2003605511811024
11
7.4392584251968499
21
-3.203338779527559
0
LINE
8
BLACK
6
CONTINUOUS
10
7.4392584251968499
20
-3.203338779527559
11
7.4377167716535428
21
-3.2060089763779529
0
LINE
8
BLACK
6
CONTINUOUS
10
7.4377167716535428
20
-3.2060089763779529
11
7.4355365354330711
21
-3.208189212598425
0
LINE
8
BLACK
6
CONTINUOUS
10
7.4355365354330711
20
-3.208189212598425
11
7.4328663385826772
21
-3.2097308661417321
0
LINE
8
BLACK
6
CONTINUOUS
10
7.4328663385826772
20
-3.2097308661417321
11
7.4298881102362202
21
-3.2105288582677165
0
LINE
8
BLACK
6
CONTINUOUS
10
7.4298881102362202
20
-3.2105288582677165
11
7.4268048031496061
21
-3.2105288582677165
0
LINE
8
BLACK
6
CONTINUOUS
10
7.4268048031496061
20
-3.2105288582677165
11
7.4238265748031491
21
-3.2097308661417321
0
LINE
8
BLACK
6
CONTINUOUS
10
7.4238265748031491
20
-3.2097308661417321
11
7.4211563779527561
21
-3.208189212598425
0
LINE
8
BLACK
6
CONTINUOUS
10
7.4211563779527561
20
-3.208189212598425
11
7.4189761417322835
21
-3.2060089763779529
0
LINE
8
BLACK
6
CONTINUOUS
10
7.4189761417322835
20
-3.2060089763779529
11
7.4174344881889764
21
-3.203338779527559
0
LINE
8
BLACK
6
CONTINUOUS
10
7.4174344881889764
20
-3.203338779527559
11
7.416636496062992
21
-3.2003605511811024
0
LINE
8
BLACK
6
CONTINUOUS
10
7.416636496062992
20
-3.2003605511811024
11
7.4165354330708659
21
-3.1988188976377954
0
LINE
8
BLACK
6
CONTINUOUS
10
7.4165354330708659
20
-3.1988188976377954
11
7.4165354330708659
21
-3.1673228346456694
0
LINE
8
BLACK
6
CONTINUOUS
10
7.4165354330708659
20
-3.1673228346456694
11
7.416636496062992
21
-3.165781181102362
0
CIRCLE
8
BLACK
10
5.2480314960629917
20
-4.9448818897637796
40
0.0590551181102362
0
CIRCLE
8
BLACK
10
8.7362204724409445
20
-3.3582677165354329
40
0.0590551181102362
0
CIRCLE
8
BLACK
10
7.7007874015748028
20
-5.5393700787401574
40
0.0590551181102362
0
CIRCLE
8
BLACK
10
5.2956692913385828
20
-3.1625984251968502
40
0.0196850393700787
0
CIRCLE
8
BLACK
10
5.2956692913385828
20
-3.2625984251968503
40
0.0196850393700787
0
CIRCLE
8
BLACK
10
5.2956692913385828
20
-3.3625984251968504
40
0.0196850393700787
0
CIRCLE
8
BLACK
10
5.2956692913385828
20
-3.4625984251968505
40
0.0196850393700787
0
CIRCLE
8
BLACK
10
2.7854330708661417
20
-5.4667322834645669
40
0.0196850393700787
0
CIRCLE
8
BLACK
10
2.8838582677165352
20
-5.4667322834645669
40
0.0196850393700787
0
CIRCLE
8
BLACK
10
2.8740157480314958
20
-3.3188976377952755
40
0.0590551181102362
0
CIRCLE
8
BLACK
10
6.1968503937007871
20
-3.5314960629921259
40
0.0590551181102362
0
CIRCLE
8
BLACK
10
8.5039370078740149
20
-5.5649606299212593
40
0.0324803149606299
0
CIRCLE
8
BLACK
10
8.3169291338582667
20
-5.5649606299212593
40
0.0324803149606299
0
CIRCLE
8
BLACK
10
3.0590551181102361
20
-5.1692913385826769
40
0.0590550787401575
0
CIRCLE
8
BLACK
10
2.372047244094488
20
-5.4647637795275585
40
0.0196850393700787
0
CIRCLE
8
BLACK
10
2.4704724409448819
20
-5.4647637795275585
40
0.0196850393700787
0
CIRCLE
8
BLACK
10
6.5452755905511806
20
-5.5275590551181102
40
0.0196850393700787
0
CIRCLE
8
BLACK
10
6.643700787401575
20
-5.5275590551181102
40
0.0196850393700787
0
CIRCLE
8
BLACK
10
4.5515748031496059
20
-3.3822834645669291
40
0.0039370078740157
0
CIRCLE
8
BLACK
10
4.5515748031496059
20
-3.4374015748031495
40
0.0039370078740157
0
CIRCLE
8
BLACK
10
4.5791338582677161
20
-3.3547244094488189
40
0.0039370078740157
0
CIRCLE
8
BLACK
10
4.5791338582677161
20
-3.4098425196850393
40
0.0039370078740157
0
CIRCLE
8
BLACK
10
4.5791338582677161
20
-3.4649606299212596
40
0.0039370078740157
0
CIRCLE
8
BLACK
10
4.6066929133858263
20
-3.3822834645669291
40
0.0039370078740157
0
CIRCLE
8
BLACK
10
4.6066929133858263
20
-3.4374015748031495
40
0.0039370078740157
0
CIRCLE
8
BLACK
10
4.6342519685039365
20
-3.3547244094488189
40
0.0039370078740157
0
CIRCLE
8
BLACK
10
4.6342519685039365
20
-3.4098425196850393
40
0.0039370078740157
0
CIRCLE
8
BLACK
10
4.6342519685039365
20
-3.4649606299212596
40
0.0039370078740157
0
CIRCLE
8
BLACK
10
4.6618110236220476
20
-3.3822834645669291
40
0.0039370078740157
0
CIRCLE
8
BLACK
10
4.6618110236220476
20
-3.4374015748031495
40
0.0039370078740157
0
CIRCLE
8
BLACK
10
2.6082677165354329
20
-3.2458661417322836
40
0.0196850393700787
0
CIRCLE
8
BLACK
10
2.5098425196850394
20
-3.2458661417322836
40
0.0196850393700787
0
CIRCLE
8
BLACK
10
5.5925196850393704
20
-5.5295275590551176
40
0.0196850393700787
0
CIRCLE
8
BLACK
10
5.6909448818897639
20
-5.5295275590551176
40
0.0196850393700787
0
CIRCLE
8
BLACK
10
6.1893700787401578
20
-4.6098425196850394
40
0.0688975984251969
0
CIRCLE
8
BLACK
10
6.0893700787401572
20
-5.265748031496063
40
0.0216535433070866
0
CIRCLE
8
BLACK
10
6.1893700787401578
20
-5.265748031496063
40
0.0216535433070866
0
CIRCLE
8
BLACK
10
6.2893700787401574
20
-5.265748031496063
40
0.0216535433070866
0
CIRCLE
8
BLACK
10
3.8440944881889765
20
-4.0433070866141732
40
0.0196850393700787
0
CIRCLE
8
BLACK
10
3.9440944881889761
20
-4.0433070866141732
40
0.0196850393700787
0
CIRCLE
8
BLACK
10
4.0440944881889767
20
-4.0433070866141732
40
0.0196850393700787
0
CIRCLE
8
BLACK
10
4.1440944881889763
20
-4.0433070866141732
40
0.0196850393700787
0
CIRCLE
8
BLACK
10
3.4429133858267718
20
-5.5295275590551176
40
0.0196850393700787
0
CIRCLE
8
BLACK
10
3.5413385826771653
20
-5.5295275590551176
40
0.0196850393700787
0
CIRCLE
8
BLACK
10
7.9822834645669287
20
-3.0578740157480313
40
0.0196850393700787
0
CIRCLE
8
BLACK
10
7.9822834645669287
20
-3.1578740157480314
40
0.0196850393700787
0
CIRCLE
8
BLACK
10
7.9822834645669287
20
-3.2578740157480315
40
0.0196850393700787
0
LINE
8
BLACK
6
CONTINUOUS
10
7.7803149606299211
20
-3.0492125984251968
11
7.7803149606299211
21
-3.0019685039370079
0
ARC
8
BLACK
10
7.7685039370078739
20
-3.0019685039370079
40
0.0118110236220472
50
0.00000000
51
180.00000000
0
LINE
8
BLACK
6
CONTINUOUS
10
7.7566929133858267
20
-3.0019685039370079
11
7.7566929133858267
21
-3.0492125984251968
0
ARC
8
BLACK
10
7.7685039370078739
20
-3.0492125984251968
40
0.0118110236220472
50
180.00000000
51
360.00000000
0
LINE
8
BLACK
6
CONTINUOUS
10
7.4401574803149604
20
-3.0492125984251968
11
7.4401574803149604
21
-3.0019685039370079
0
ARC
8
BLACK
10
7.4283464566929132
20
-3.0019685039370079
40
0.0118110236220472
50
0.00000000
51
180.00000000
0
LINE
8
BLACK
6
CONTINUOUS
10
7.4165354330708659
20
-3.0019685039370079
11
7.4165354330708659
21
-3.0492125984251968
0
ARC
8
BLACK
10
7.4283464566929132
20
-3.0492125984251968
40
0.0118110236220472
50
180.00000000
51
360.00000000
0
LINE
8
BLACK
6
CONTINUOUS
10
7.7803149606299211
20
-3.1988188976377954
11
7.7803149606299211
21
-3.1673228346456694
0
ARC
8
BLACK
10
7.7685039370078739
20
-3.1673228346456694
40
0.0118110236220472
50
0.00000000
51
180.00000000
0
LINE
8
BLACK
6
CONTINUOUS
10
7.7566929133858267
20
-3.1673228346456694
11
7.7566929133858267
21
-3.1988188976377954
0
ARC
8
BLACK
10
7.7685039370078739
20
-3.1988188976377954
40
0.0118110236220472
50
180.00000000
51
360.00000000
0
LINE
8
BLACK
6
CONTINUOUS
10
7.4401574803149604
20
-3.1988188976377954
11
7.4401574803149604
21
-3.1673228346456694
0
ARC
8
BLACK
10
7.4283464566929132
20
-3.1673228346456694
40
0.0118110236220472
50
0.00000000
51
180.00000000
0
LINE
8
BLACK
6
CONTINUOUS
10
7.4165354330708659
20
-3.1673228346456694
11
7.4165354330708659
21
-3.1988188976377954
0
ARC
8
BLACK
10
7.4283464566929132
20
-3.1988188976377954
40
0.0118110236220472
50
180.00000000
51
360.00000000
0
CIRCLE
8
BLACK
10
5.2480314960629917
20
-4.9448818897637796
40
0.0590550787401575
0
CIRCLE
8
BLACK
10
8.7362204724409445
20
-3.3582677165354329
40
0.0590550787401575
0
CIRCLE
8
BLACK
10
7.7007874015748028
20
-5.5393700787401574
40
0.0590550787401575
0
CIRCLE
8
BLACK
10
5.2956692913385828
20
-3.1625984251968502
40
0.0196850393700787
0
CIRCLE
8
BLACK
10
5.2956692913385828
20
-3.2625984251968503
40
0.0196850393700787
0
CIRCLE
8
BLACK
10
5.2956692913385828
20
-3.3625984251968504
40
0.0196850393700787
0
CIRCLE
8
BLACK
10
5.2956692913385828
20
-3.4625984251968505
40
0.0196850393700787
0
CIRCLE
8
BLACK
10
2.7854330708661417
20
-5.4667322834645669
40
0.0196850393700787
0
CIRCLE
8
BLACK
10
2.8838582677165352
20
-5.4667322834645669
40
0.0196850393700787
0
CIRCLE
8
BLACK
10
2.8740157480314958
20
-3.3188976377952755
40
0.0590550787401575
0
CIRCLE
8
BLACK
10
6.1968503937007871
20
-3.5314960629921259
40
0.0590550787401575
  0
ENDSEC
  0
EOF
