  0
SECTION
  2
HEADER
  9
$ANGBASE
  50
0.0
  9
$ANGDIR
  70
1
  9
$MEASUREMENT
  70
0
  0
ENDSEC
  0
SECTION
  2
TABLES
  0
TABLE
  2
LTYPE
  70
4
  0
LTYPE
  5
40F
  2
CONTINUOUS
  70
0
  3
Solid line
  72
65
  73
0
  40
0.0
  0
LTYPE
  5
410
  2
DASHDOT
 70
0
  3
Dash Dot ____ _ ____ _
 72
65
 73
4
 40
2.0
 49
1.25
 49
-0.25
 49
0.25
 49
-0.25
  0
LTYPE
  5
411
  2
DASHED
 70
0
  3
Dashed __ __ __ __ __
 72
65
 73
2
 40
0.75
 49
0.5
 49
-0.25
  0
LTYPE
  5
43B
  2
DOTTED
 70
0
  3
Dotted .  .  .  .
 72
65
 73
2
 40
0.2
 49
0.0
 49
-0.2
  0
ENDTAB
  0
TABLE
  2
STYLE
  70
4
  0
STYLE
  2
KICAD
  70
0
  40
0
  41
1
  42
1
  50
0
  71
0
  3
isocp.shx
  0
STYLE
  2
KICADB
  70
0
  40
0
  41
1
  42
1
  50
0
  71
0
  3
isocp.shx
  0
STYLE
  2
KICADI
  70
0
  40
0
  41
1
  42
1
  50
15
  71
0
  3
isocp.shx
  0
STYLE
  2
KICADBI
  70
0
  40
0
  41
1
  42
1
  50
15
  71
0
  3
isocp.shx
  0
ENDTAB
  0
TABLE
  2
LAYER
  70
1
  0
LAYER
  2
BLACK
  70
0
  62
7
  6
CONTINUOUS
  0
ENDTAB
  0
ENDSEC
  0
SECTION
  2
ENTITIES
0
LINE
8
BLACK
6
CONTINUOUS
10
8.5526574803149611
20
-5.6136811023622046
11
8.4552165354330704
21
-5.6136811023622046
0
LINE
8
BLACK
6
CONTINUOUS
10
8.4552165354330704
20
-5.6136811023622046
11
8.4552165354330704
21
-5.5162401574803148
0
LINE
8
BLACK
6
CONTINUOUS
10
8.4552165354330704
20
-5.5162401574803148
11
8.5526574803149611
21
-5.5162401574803148
0
LINE
8
BLACK
6
CONTINUOUS
10
8.5526574803149611
20
-5.5162401574803148
11
8.5526574803149611
21
-5.6136811023622046
0
LINE
8
BLACK
6
CONTINUOUS
10
8.3283027165354326
20
-5.5175862992125984
11
8.3355736614173228
21
-5.5199487795275592
0
LINE
8
BLACK
6
CONTINUOUS
10
8.3355736614173228
20
-5.5199487795275592
11
8.3423855118110239
21
-5.5234196062992122
0
LINE
8
BLACK
6
CONTINUOUS
10
8.3423855118110239
20
-5.5234196062992122
11
8.348570551181103
21
-5.5279133070866138
0
LINE
8
BLACK
6
CONTINUOUS
10
8.348570551181103
20
-5.5279133070866138
11
8.353976456692914
21
-5.5333192125984247
0
LINE
8
BLACK
6
CONTINUOUS
10
8.353976456692914
20
-5.5333192125984247
11
8.3584701574803155
21
-5.5395042519685038
0
LINE
8
BLACK
6
CONTINUOUS
10
8.3584701574803155
20
-5.5395042519685038
11
8.3619409842519676
21
-5.546316102362205
0
LINE
8
BLACK
6
CONTINUOUS
10
8.3619409842519676
20
-5.546316102362205
11
8.3643034645669285
21
-5.5535870472440942
0
LINE
8
BLACK
6
CONTINUOUS
10
8.3643034645669285
20
-5.5535870472440942
11
8.3654994094488195
21
-5.561138070866142
0
LINE
8
BLACK
6
CONTINUOUS
10
8.3654994094488195
20
-5.561138070866142
11
8.3654994094488195
21
-5.5687831889763775
0
LINE
8
BLACK
6
CONTINUOUS
10
8.3654994094488195
20
-5.5687831889763775
11
8.3643034645669285
21
-5.5763342125984252
0
LINE
8
BLACK
6
CONTINUOUS
10
8.3643034645669285
20
-5.5763342125984252
11
8.3619409842519676
21
-5.5836051574803145
0
LINE
8
BLACK
6
CONTINUOUS
10
8.3619409842519676
20
-5.5836051574803145
11
8.3584701574803155
21
-5.5904170078740156
0
LINE
8
BLACK
6
CONTINUOUS
10
8.3584701574803155
20
-5.5904170078740156
11
8.353976456692914
21
-5.5966020472440947
0
LINE
8
BLACK
6
CONTINUOUS
10
8.353976456692914
20
-5.5966020472440947
11
8.348570551181103
21
-5.6020079527559057
0
LINE
8
BLACK
6
CONTINUOUS
10
8.348570551181103
20
-5.6020079527559057
11
8.3423855118110239
21
-5.6065016535433072
0
LINE
8
BLACK
6
CONTINUOUS
10
8.3423855118110239
20
-5.6065016535433072
11
8.3355736614173228
21
-5.6099724803149602
0
LINE
8
BLACK
6
CONTINUOUS
10
8.3355736614173228
20
-5.6099724803149602
11
8.3283027165354326
21
-5.6123349606299211
0
LINE
8
BLACK
6
CONTINUOUS
10
8.3283027165354326
20
-5.6123349606299211
11
8.3207516929133849
21
-5.6135309055118112
0
LINE
8
BLACK
6
CONTINUOUS
10
8.3207516929133849
20
-5.6135309055118112
11
8.3131065748031503
21
-5.6135309055118112
0
LINE
8
BLACK
6
CONTINUOUS
10
8.3131065748031503
20
-5.6135309055118112
11
8.3055555511811026
21
-5.6123349606299211
0
LINE
8
BLACK
6
CONTINUOUS
10
8.3055555511811026
20
-5.6123349606299211
11
8.2982846062992124
21
-5.6099724803149602
0
LINE
8
BLACK
6
CONTINUOUS
10
8.2982846062992124
20
-5.6099724803149602
11
8.2914727559055112
21
-5.6065016535433072
0
LINE
8
BLACK
6
CONTINUOUS
10
8.2914727559055112
20
-5.6065016535433072
11
8.2852877165354322
21
-5.6020079527559057
0
LINE
8
BLACK
6
CONTINUOUS
10
8.2852877165354322
20
-5.6020079527559057
11
8.2798818110236212
21
-5.5966020472440947
0
LINE
8
BLACK
6
CONTINUOUS
10
8.2798818110236212
20
-5.5966020472440947
11
8.2753881102362197
21
-5.5904170078740156
0
LINE
8
BLACK
6
CONTINUOUS
10
8.2753881102362197
20
-5.5904170078740156
11
8.2719172834645676
21
-5.5836051574803145
0
LINE
8
BLACK
6
CONTINUOUS
10
8.2719172834645676
20
-5.5836051574803145
11
8.2695548031496067
21
-5.5763342125984252
0
LINE
8
BLACK
6
CONTINUOUS
10
8.2695548031496067
20
-5.5763342125984252
11
8.2683588582677157
21
-5.5687831889763775
0
LINE
8
BLACK
6
CONTINUOUS
10
8.2683588582677157
20
-5.5687831889763775
11
8.2683588582677157
21
-5.561138070866142
0
LINE
8
BLACK
6
CONTINUOUS
10
8.2683588582677157
20
-5.561138070866142
11
8.2695548031496067
21
-5.5535870472440942
0
LINE
8
BLACK
6
CONTINUOUS
10
8.2695548031496067
20
-5.5535870472440942
11
8.2719172834645676
21
-5.546316102362205
0
LINE
8
BLACK
6
CONTINUOUS
10
8.2719172834645676
20
-5.546316102362205
11
8.2753881102362197
21
-5.5395042519685038
0
LINE
8
BLACK
6
CONTINUOUS
10
8.2753881102362197
20
-5.5395042519685038
11
8.2798818110236212
21
-5.5333192125984247
0
LINE
8
BLACK
6
CONTINUOUS
10
8.2798818110236212
20
-5.5333192125984247
11
8.2852877165354322
21
-5.5279133070866138
0
LINE
8
BLACK
6
CONTINUOUS
10
8.2852877165354322
20
-5.5279133070866138
11
8.2914727559055112
21
-5.5234196062992122
0
LINE
8
BLACK
6
CONTINUOUS
10
8.2914727559055112
20
-5.5234196062992122
11
8.2982846062992124
21
-5.5199487795275592
0
LINE
8
BLACK
6
CONTINUOUS
10
8.2982846062992124
20
-5.5199487795275592
11
8.3055555511811026
21
-5.5175862992125984
0
LINE
8
BLACK
6
CONTINUOUS
10
8.3055555511811026
20
-5.5175862992125984
11
8.3131065748031503
21
-5.5163903543307082
0
LINE
8
BLACK
6
CONTINUOUS
10
8.3131065748031503
20
-5.5163903543307082
11
8.3207516929133849
21
-5.5163903543307082
0
LINE
8
BLACK
6
CONTINUOUS
10
8.3207516929133849
20
-5.5163903543307082
11
8.3283027165354326
21
-5.5175862992125984
0
LINE
8
BLACK
6
CONTINUOUS
10
7.7145735433070861
20
-5.4819466535433072
11
7.7233868110236221
21
-5.4848102755905508
0
LINE
8
BLACK
6
CONTINUOUS
10
7.7233868110236221
20
-5.4848102755905508
11
7.731643622047244
21
-5.4890173228346457
0
LINE
8
BLACK
6
CONTINUOUS
10
7.731643622047244
20
-5.4890173228346457
11
7.73914062992126
21
-5.4944642125984249
0
LINE
8
BLACK
6
CONTINUOUS
10
7.73914062992126
20
-5.4944642125984249
11
7.7456932677165353
21
-5.5010168503937003
0
LINE
8
BLACK
6
CONTINUOUS
10
7.7456932677165353
20
-5.5010168503937003
11
7.7511401574803145
21
-5.5085138582677162
0
LINE
8
BLACK
6
CONTINUOUS
10
7.7511401574803145
20
-5.5085138582677162
11
7.7553472047244094
21
-5.5167706692913381
0
LINE
8
BLACK
6
CONTINUOUS
10
7.7553472047244094
20
-5.5167706692913381
11
7.758210826771653
21
-5.5255839370078741
0
LINE
8
BLACK
6
CONTINUOUS
10
7.758210826771653
20
-5.5255839370078741
11
7.7596604724409444
21
-5.5347366535433071
0
LINE
8
BLACK
6
CONTINUOUS
10
7.7596604724409444
20
-5.5347366535433071
11
7.7596604724409444
21
-5.5440035039370077
0
LINE
8
BLACK
6
CONTINUOUS
10
7.7596604724409444
20
-5.5440035039370077
11
7.758210826771653
21
-5.5531562204724407
0
LINE
8
BLACK
6
CONTINUOUS
10
7.758210826771653
20
-5.5531562204724407
11
7.7553472047244094
21
-5.5619694881889759
0
LINE
8
BLACK
6
CONTINUOUS
10
7.7553472047244094
20
-5.5619694881889759
11
7.7511401574803145
21
-5.5702262992125986
0
LINE
8
BLACK
6
CONTINUOUS
10
7.7511401574803145
20
-5.5702262992125986
11
7.7456932677165353
21
-5.5777233070866137
0
LINE
8
BLACK
6
CONTINUOUS
10
7.7456932677165353
20
-5.5777233070866137
11
7.73914062992126
21
-5.5842759448818899
0
LINE
8
BLACK
6
CONTINUOUS
10
7.73914062992126
20
-5.5842759448818899
11
7.731643622047244
21
-5.5897228346456691
0
LINE
8
BLACK
6
CONTINUOUS
10
7.731643622047244
20
-5.5897228346456691
11
7.7233868110236221
21
-5.593929881889764
0
LINE
8
BLACK
6
CONTINUOUS
10
7.7233868110236221
20
-5.593929881889764
11
7.7145735433070861
21
-5.5967935039370076
0
LINE
8
BLACK
6
CONTINUOUS
10
7.7145735433070861
20
-5.5967935039370076
11
7.7054208267716531
21
-5.598243149606299
0
LINE
8
BLACK
6
CONTINUOUS
10
7.7054208267716531
20
-5.598243149606299
11
7.6961539763779525
21
-5.598243149606299
0
LINE
8
BLACK
6
CONTINUOUS
10
7.6961539763779525
20
-5.598243149606299
11
7.6870012598425195
21
-5.5967935039370076
0
LINE
8
BLACK
6
CONTINUOUS
10
7.6870012598425195
20
-5.5967935039370076
11
7.6781879921259844
21
-5.593929881889764
0
LINE
8
BLACK
6
CONTINUOUS
10
7.6781879921259844
20
-5.593929881889764
11
7.6699311811023616
21
-5.5897228346456691
0
LINE
8
BLACK
6
CONTINUOUS
10
7.6699311811023616
20
-5.5897228346456691
11
7.6624341732283465
21
-5.5842759448818899
0
LINE
8
BLACK
6
CONTINUOUS
10
7.6624341732283465
20
-5.5842759448818899
11
7.6558815354330703
21
-5.5777233070866137
0
LINE
8
BLACK
6
CONTINUOUS
10
7.6558815354330703
20
-5.5777233070866137
11
7.6504346456692911
21
-5.5702262992125986
0
LINE
8
BLACK
6
CONTINUOUS
10
7.6504346456692911
20
-5.5702262992125986
11
7.6462275984251971
21
-5.5619694881889759
0
LINE
8
BLACK
6
CONTINUOUS
10
7.6462275984251971
20
-5.5619694881889759
11
7.6433639763779526
21
-5.5531562204724407
0
LINE
8
BLACK
6
CONTINUOUS
10
7.6433639763779526
20
-5.5531562204724407
11
7.6419143307086612
21
-5.5440035039370077
0
LINE
8
BLACK
6
CONTINUOUS
10
7.6419143307086612
20
-5.5440035039370077
11
7.6419143307086612
21
-5.5347366535433071
0
LINE
8
BLACK
6
CONTINUOUS
10
7.6419143307086612
20
-5.5347366535433071
11
7.6433639763779526
21
-5.5255839370078741
0
LINE
8
BLACK
6
CONTINUOUS
10
7.6433639763779526
20
-5.5255839370078741
11
7.6462275984251971
21
-5.5167706692913381
0
LINE
8
BLACK
6
CONTINUOUS
10
7.6462275984251971
20
-5.5167706692913381
11
7.6504346456692911
21
-5.5085138582677162
0
LINE
8
BLACK
6
CONTINUOUS
10
7.6504346456692911
20
-5.5085138582677162
11
7.6558815354330703
21
-5.5010168503937003
0
LINE
8
BLACK
6
CONTINUOUS
10
7.6558815354330703
20
-5.5010168503937003
11
7.6624341732283465
21
-5.4944642125984249
0
LINE
8
BLACK
6
CONTINUOUS
10
7.6624341732283465
20
-5.4944642125984249
11
7.6699311811023616
21
-5.4890173228346457
0
LINE
8
BLACK
6
CONTINUOUS
10
7.6699311811023616
20
-5.4890173228346457
11
7.6781879921259844
21
-5.4848102755905508
0
LINE
8
BLACK
6
CONTINUOUS
10
7.6781879921259844
20
-5.4848102755905508
11
7.6870012598425195
21
-5.4819466535433072
0
LINE
8
BLACK
6
CONTINUOUS
10
7.6870012598425195
20
-5.4819466535433072
11
7.6961539763779525
21
-5.4804970078740158
0
LINE
8
BLACK
6
CONTINUOUS
10
7.6961539763779525
20
-5.4804970078740158
11
7.7054208267716531
21
-5.4804970078740158
0
LINE
8
BLACK
6
CONTINUOUS
10
7.7054208267716531
20
-5.4804970078740158
11
7.7145735433070861
21
-5.4819466535433072
0
LINE
8
BLACK
6
CONTINUOUS
10
3.4703020078740159
20
-5.4909066929133861
11
3.4734951574803148
21
-5.493040275590551
0
LINE
8
BLACK
6
CONTINUOUS
10
3.4734951574803148
20
-5.493040275590551
11
3.4756287401574801
21
-5.4962334251968503
0
LINE
8
BLACK
6
CONTINUOUS
10
3.4756287401574801
20
-5.4962334251968503
11
3.4763779527559056
21
-5.5
0
LINE
8
BLACK
6
CONTINUOUS
10
3.4763779527559056
20
-5.5
11
3.4763779527559056
21
-5.5590551181102361
0
LINE
8
BLACK
6
CONTINUOUS
10
3.4763779527559056
20
-5.5590551181102361
11
3.4756287401574801
21
-5.5628216929133858
0
LINE
8
BLACK
6
CONTINUOUS
10
3.4756287401574801
20
-5.5628216929133858
11
3.4734951574803148
21
-5.5660148425196851
0
LINE
8
BLACK
6
CONTINUOUS
10
3.4734951574803148
20
-5.5660148425196851
11
3.4703020078740159
21
-5.56814842519685
0
LINE
8
BLACK
6
CONTINUOUS
10
3.4703020078740159
20
-5.56814842519685
11
3.4665354330708662
21
-5.568897637795275
0
LINE
8
BLACK
6
CONTINUOUS
10
3.4665354330708662
20
-5.568897637795275
11
3.4192913385826773
21
-5.568897637795275
0
LINE
8
BLACK
6
CONTINUOUS
10
3.4192913385826773
20
-5.568897637795275
11
3.4155247637795276
21
-5.56814842519685
0
LINE
8
BLACK
6
CONTINUOUS
10
3.4155247637795276
20
-5.56814842519685
11
3.4123316141732283
21
-5.5660148425196851
0
LINE
8
BLACK
6
CONTINUOUS
10
3.4123316141732283
20
-5.5660148425196851
11
3.4101980314960629
21
-5.5628216929133858
0
LINE
8
BLACK
6
CONTINUOUS
10
3.4101980314960629
20
-5.5628216929133858
11
3.4094488188976375
21
-5.5590551181102361
0
LINE
8
BLACK
6
CONTINUOUS
10
3.4094488188976375
20
-5.5590551181102361
11
3.4094488188976375
21
-5.5
0
LINE
8
BLACK
6
CONTINUOUS
10
3.4094488188976375
20
-5.5
11
3.4101980314960629
21
-5.4962334251968503
0
LINE
8
BLACK
6
CONTINUOUS
10
3.4101980314960629
20
-5.4962334251968503
11
3.4123316141732283
21
-5.493040275590551
0
LINE
8
BLACK
6
CONTINUOUS
10
3.4123316141732283
20
-5.493040275590551
11
3.4155247637795276
21
-5.4909066929133861
0
LINE
8
BLACK
6
CONTINUOUS
10
3.4155247637795276
20
-5.4909066929133861
11
3.4192913385826773
21
-5.4901574803149602
0
LINE
8
BLACK
6
CONTINUOUS
10
3.4192913385826773
20
-5.4901574803149602
11
3.4665354330708662
21
-5.4901574803149602
0
LINE
8
BLACK
6
CONTINUOUS
10
3.4665354330708662
20
-5.4901574803149602
11
3.4703020078740159
21
-5.4909066929133861
0
LINE
8
BLACK
6
CONTINUOUS
10
5.6199083070866145
20
-5.4909066929133861
11
5.6231014566929129
21
-5.493040275590551
0
LINE
8
BLACK
6
CONTINUOUS
10
5.6231014566929129
20
-5.493040275590551
11
5.6252350393700787
21
-5.4962334251968503
0
LINE
8
BLACK
6
CONTINUOUS
10
5.6252350393700787
20
-5.4962334251968503
11
5.6259842519685037
21
-5.5
0
LINE
8
BLACK
6
CONTINUOUS
10
5.6259842519685037
20
-5.5
11
5.6259842519685037
21
-5.5590551181102361
0
LINE
8
BLACK
6
CONTINUOUS
10
5.6259842519685037
20
-5.5590551181102361
11
5.6252350393700787
21
-5.5628216929133858
0
LINE
8
BLACK
6
CONTINUOUS
10
5.6252350393700787
20
-5.5628216929133858
11
5.6231014566929129
21
-5.5660148425196851
0
LINE
8
BLACK
6
CONTINUOUS
10
5.6231014566929129
20
-5.5660148425196851
11
5.6199083070866145
21
-5.56814842519685
0
LINE
8
BLACK
6
CONTINUOUS
10
5.6199083070866145
20
-5.56814842519685
11
5.6161417322834648
21
-5.568897637795275
0
LINE
8
BLACK
6
CONTINUOUS
10
5.6161417322834648
20
-5.568897637795275
11
5.568897637795275
21
-5.568897637795275
0
LINE
8
BLACK
6
CONTINUOUS
10
5.568897637795275
20
-5.568897637795275
11
5.5651310629921262
21
-5.56814842519685
0
LINE
8
BLACK
6
CONTINUOUS
10
5.5651310629921262
20
-5.56814842519685
11
5.5619379133858269
21
-5.5660148425196851
0
LINE
8
BLACK
6
CONTINUOUS
10
5.5619379133858269
20
-5.5660148425196851
11
5.5598043307086611
21
-5.5628216929133858
0
LINE
8
BLACK
6
CONTINUOUS
10
5.5598043307086611
20
-5.5628216929133858
11
5.5590551181102361
21
-5.5590551181102361
0
LINE
8
BLACK
6
CONTINUOUS
10
5.5590551181102361
20
-5.5590551181102361
11
5.5590551181102361
21
-5.5
0
LINE
8
BLACK
6
CONTINUOUS
10
5.5590551181102361
20
-5.5
11
5.5598043307086611
21
-5.4962334251968503
0
LINE
8
BLACK
6
CONTINUOUS
10
5.5598043307086611
20
-5.4962334251968503
11
5.5619379133858269
21
-5.493040275590551
0
LINE
8
BLACK
6
CONTINUOUS
10
5.5619379133858269
20
-5.493040275590551
11
5.5651310629921262
21
-5.4909066929133861
0
LINE
8
BLACK
6
CONTINUOUS
10
5.5651310629921262
20
-5.4909066929133861
11
5.568897637795275
21
-5.4901574803149602
0
LINE
8
BLACK
6
CONTINUOUS
10
5.568897637795275
20
-5.4901574803149602
11
5.6161417322834648
21
-5.4901574803149602
0
LINE
8
BLACK
6
CONTINUOUS
10
5.6161417322834648
20
-5.4901574803149602
11
5.6199083070866145
21
-5.4909066929133861
0
LINE
8
BLACK
6
CONTINUOUS
10
3.5510528346456693
20
-5.4915984645669287
11
3.5571136614173229
21
-5.4941089370078737
0
LINE
8
BLACK
6
CONTINUOUS
10
3.5571136614173229
20
-5.4941089370078737
11
3.5625682677165353
21
-5.4977535826771655
0
LINE
8
BLACK
6
CONTINUOUS
10
3.5625682677165353
20
-5.4977535826771655
11
3.5672070472440942
21
-5.5023923622047244
0
LINE
8
BLACK
6
CONTINUOUS
10
3.5672070472440942
20
-5.5023923622047244
11
3.5708516929133856
21
-5.5078469685039373
0
LINE
8
BLACK
6
CONTINUOUS
10
3.5708516929133856
20
-5.5078469685039373
11
3.5733621653543306
21
-5.5139077952755908
0
LINE
8
BLACK
6
CONTINUOUS
10
3.5733621653543306
20
-5.5139077952755908
11
3.5746420078740155
21
-5.520341929133858
0
LINE
8
BLACK
6
CONTINUOUS
10
3.5746420078740155
20
-5.520341929133858
11
3.5748031496062991
21
-5.5236220472440944
0
LINE
8
BLACK
6
CONTINUOUS
10
3.5748031496062991
20
-5.5236220472440944
11
3.5748031496062991
21
-5.5354330708661417
0
LINE
8
BLACK
6
CONTINUOUS
10
3.5748031496062991
20
-5.5354330708661417
11
3.5746420078740155
21
-5.5387131889763781
0
LINE
8
BLACK
6
CONTINUOUS
10
3.5746420078740155
20
-5.5387131889763781
11
3.5733621653543306
21
-5.5451473228346453
0
LINE
8
BLACK
6
CONTINUOUS
10
3.5733621653543306
20
-5.5451473228346453
11
3.5708516929133856
21
-5.5512081496062988
0
LINE
8
BLACK
6
CONTINUOUS
10
3.5708516929133856
20
-5.5512081496062988
11
3.5672070472440942
21
-5.5566627559055117
0
LINE
8
BLACK
6
CONTINUOUS
10
3.5672070472440942
20
-5.5566627559055117
11
3.5625682677165353
21
-5.5613015354330706
0
LINE
8
BLACK
6
CONTINUOUS
10
3.5625682677165353
20
-5.5613015354330706
11
3.5571136614173229
21
-5.5649461811023624
0
LINE
8
BLACK
6
CONTINUOUS
10
3.5571136614173229
20
-5.5649461811023624
11
3.5510528346456693
21
-5.5674566535433065
0
LINE
8
BLACK
6
CONTINUOUS
10
3.5510528346456693
20
-5.5674566535433065
11
3.5446187007874017
21
-5.5687364960629919
0
LINE
8
BLACK
6
CONTINUOUS
10
3.5446187007874017
20
-5.5687364960629919
11
3.5380584645669289
21
-5.5687364960629919
0
LINE
8
BLACK
6
CONTINUOUS
10
3.5380584645669289
20
-5.5687364960629919
11
3.5316243307086612
21
-5.5674566535433065
0
LINE
8
BLACK
6
CONTINUOUS
10
3.5316243307086612
20
-5.5674566535433065
11
3.5255635039370077
21
-5.5649461811023624
0
LINE
8
BLACK
6
CONTINUOUS
10
3.5255635039370077
20
-5.5649461811023624
11
3.5201088976377952
21
-5.5613015354330706
0
LINE
8
BLACK
6
CONTINUOUS
10
3.5201088976377952
20
-5.5613015354330706
11
3.5154701181102364
21
-5.5566627559055117
0
LINE
8
BLACK
6
CONTINUOUS
10
3.5154701181102364
20
-5.5566627559055117
11
3.511825472440945
21
-5.5512081496062988
0
LINE
8
BLACK
6
CONTINUOUS
10
3.511825472440945
20
-5.5512081496062988
11
3.509315
21
-5.5451473228346453
0
LINE
8
BLACK
6
CONTINUOUS
10
3.509315
20
-5.5451473228346453
11
3.508035157480315
21
-5.5387131889763781
0
LINE
8
BLACK
6
CONTINUOUS
10
3.508035157480315
20
-5.5387131889763781
11
3.5078740157480315
21
-5.5354330708661417
0
LINE
8
BLACK
6
CONTINUOUS
10
3.5078740157480315
20
-5.5354330708661417
11
3.5078740157480315
21
-5.5236220472440944
0
LINE
8
BLACK
6
CONTINUOUS
10
3.5078740157480315
20
-5.5236220472440944
11
3.508035157480315
21
-5.520341929133858
0
LINE
8
BLACK
6
CONTINUOUS
10
3.508035157480315
20
-5.520341929133858
11
3.509315
21
-5.5139077952755908
0
LINE
8
BLACK
6
CONTINUOUS
10
3.509315
20
-5.5139077952755908
11
3.511825472440945
21
-5.5078469685039373
0
LINE
8
BLACK
6
CONTINUOUS
10
3.511825472440945
20
-5.5078469685039373
11
3.5154701181102364
21
-5.5023923622047244
0
LINE
8
BLACK
6
CONTINUOUS
10
3.5154701181102364
20
-5.5023923622047244
11
3.5201088976377952
21
-5.4977535826771655
0
LINE
8
BLACK
6
CONTINUOUS
10
3.5201088976377952
20
-5.4977535826771655
11
3.5255635039370077
21
-5.4941089370078737
0
LINE
8
BLACK
6
CONTINUOUS
10
3.5255635039370077
20
-5.4941089370078737
11
3.5316243307086612
21
-5.4915984645669287
0
LINE
8
BLACK
6
CONTINUOUS
10
3.5316243307086612
20
-5.4915984645669287
11
3.5380584645669289
21
-5.4903186220472442
0
LINE
8
BLACK
6
CONTINUOUS
10
3.5380584645669289
20
-5.4903186220472442
11
3.5446187007874017
21
-5.4903186220472442
0
LINE
8
BLACK
6
CONTINUOUS
10
3.5446187007874017
20
-5.4903186220472442
11
3.5510528346456693
21
-5.4915984645669287
0
LINE
8
BLACK
6
CONTINUOUS
10
5.7006591338582675
20
-5.4915984645669287
11
5.706719960629921
21
-5.4941089370078737
0
LINE
8
BLACK
6
CONTINUOUS
10
5.706719960629921
20
-5.4941089370078737
11
5.7121745669291339
21
-5.4977535826771655
0
LINE
8
BLACK
6
CONTINUOUS
10
5.7121745669291339
20
-5.4977535826771655
11
5.7168133464566928
21
-5.5023923622047244
0
LINE
8
BLACK
6
CONTINUOUS
10
5.7168133464566928
20
-5.5023923622047244
11
5.7204579921259837
21
-5.5078469685039373
0
LINE
8
BLACK
6
CONTINUOUS
10
5.7204579921259837
20
-5.5078469685039373
11
5.7229684645669288
21
-5.5139077952755908
0
LINE
8
BLACK
6
CONTINUOUS
10
5.7229684645669288
20
-5.5139077952755908
11
5.7242483070866141
21
-5.520341929133858
0
LINE
8
BLACK
6
CONTINUOUS
10
5.7242483070866141
20
-5.520341929133858
11
5.7244094488188972
21
-5.5236220472440944
0
LINE
8
BLACK
6
CONTINUOUS
10
5.7244094488188972
20
-5.5236220472440944
11
5.7244094488188972
21
-5.5354330708661417
0
LINE
8
BLACK
6
CONTINUOUS
10
5.7244094488188972
20
-5.5354330708661417
11
5.7242483070866141
21
-5.5387131889763781
0
LINE
8
BLACK
6
CONTINUOUS
10
5.7242483070866141
20
-5.5387131889763781
11
5.7229684645669288
21
-5.5451473228346453
0
LINE
8
BLACK
6
CONTINUOUS
10
5.7229684645669288
20
-5.5451473228346453
11
5.7204579921259837
21
-5.5512081496062988
0
LINE
8
BLACK
6
CONTINUOUS
10
5.7204579921259837
20
-5.5512081496062988
11
5.7168133464566928
21
-5.5566627559055117
0
LINE
8
BLACK
6
CONTINUOUS
10
5.7168133464566928
20
-5.5566627559055117
11
5.7121745669291339
21
-5.5613015354330706
0
LINE
8
BLACK
6
CONTINUOUS
10
5.7121745669291339
20
-5.5613015354330706
11
5.706719960629921
21
-5.5649461811023624
0
LINE
8
BLACK
6
CONTINUOUS
10
5.706719960629921
20
-5.5649461811023624
11
5.7006591338582675
21
-5.5674566535433065
0
LINE
8
BLACK
6
CONTINUOUS
10
5.7006591338582675
20
-5.5674566535433065
11
5.6942250000000003
21
-5.5687364960629919
0
LINE
8
BLACK
6
CONTINUOUS
10
5.6942250000000003
20
-5.5687364960629919
11
5.6876647637795275
21
-5.5687364960629919
0
LINE
8
BLACK
6
CONTINUOUS
10
5.6876647637795275
20
-5.5687364960629919
11
5.6812306299212594
21
-5.5674566535433065
0
LINE
8
BLACK
6
CONTINUOUS
10
5.6812306299212594
20
-5.5674566535433065
11
5.6751698031496058
21
-5.5649461811023624
0
LINE
8
BLACK
6
CONTINUOUS
10
5.6751698031496058
20
-5.5649461811023624
11
5.6697151968503938
21
-5.5613015354330706
0
LINE
8
BLACK
6
CONTINUOUS
10
5.6697151968503938
20
-5.5613015354330706
11
5.665076417322835
21
-5.5566627559055117
0
LINE
8
BLACK
6
CONTINUOUS
10
5.665076417322835
20
-5.5566627559055117
11
5.6614317716535432
21
-5.5512081496062988
0
LINE
8
BLACK
6
CONTINUOUS
10
5.6614317716535432
20
-5.5512081496062988
11
5.6589212992125981
21
-5.5451473228346453
0
LINE
8
BLACK
6
CONTINUOUS
10
5.6589212992125981
20
-5.5451473228346453
11
5.6576414566929136
21
-5.5387131889763781
0
LINE
8
BLACK
6
CONTINUOUS
10
5.6576414566929136
20
-5.5387131889763781
11
5.6574803149606296
21
-5.5354330708661417
0
LINE
8
BLACK
6
CONTINUOUS
10
5.6574803149606296
20
-5.5354330708661417
11
5.6574803149606296
21
-5.5236220472440944
0
LINE
8
BLACK
6
CONTINUOUS
10
5.6574803149606296
20
-5.5236220472440944
11
5.6576414566929136
21
-5.520341929133858
0
LINE
8
BLACK
6
CONTINUOUS
10
5.6576414566929136
20
-5.520341929133858
11
5.6589212992125981
21
-5.5139077952755908
0
LINE
8
BLACK
6
CONTINUOUS
10
5.6589212992125981
20
-5.5139077952755908
11
5.6614317716535432
21
-5.5078469685039373
0
LINE
8
BLACK
6
CONTINUOUS
10
5.6614317716535432
20
-5.5078469685039373
11
5.665076417322835
21
-5.5023923622047244
0
LINE
8
BLACK
6
CONTINUOUS
10
5.665076417322835
20
-5.5023923622047244
11
5.6697151968503938
21
-5.4977535826771655
0
LINE
8
BLACK
6
CONTINUOUS
10
5.6697151968503938
20
-5.4977535826771655
11
5.6751698031496058
21
-5.4941089370078737
0
LINE
8
BLACK
6
CONTINUOUS
10
5.6751698031496058
20
-5.4941089370078737
11
5.6812306299212594
21
-5.4915984645669287
0
LINE
8
BLACK
6
CONTINUOUS
10
5.6812306299212594
20
-5.4915984645669287
11
5.6876647637795275
21
-5.4903186220472442
0
LINE
8
BLACK
6
CONTINUOUS
10
5.6876647637795275
20
-5.4903186220472442
11
5.6942250000000003
21
-5.4903186220472442
0
LINE
8
BLACK
6
CONTINUOUS
10
5.6942250000000003
20
-5.4903186220472442
11
5.7006591338582675
21
-5.4915984645669287
0
LINE
8
BLACK
6
CONTINUOUS
10
6.5726642125984247
20
-5.4889381889763778
11
6.5758573622047241
21
-5.4910717716535435
0
LINE
8
BLACK
6
CONTINUOUS
10
6.5758573622047241
20
-5.4910717716535435
11
6.5779909448818898
21
-5.494264921259842
0
LINE
8
BLACK
6
CONTINUOUS
10
6.5779909448818898
20
-5.494264921259842
11
6.5787401574803148
21
-5.4980314960629917
0
LINE
8
BLACK
6
CONTINUOUS
10
6.5787401574803148
20
-5.4980314960629917
11
6.5787401574803148
21
-5.5570866141732278
0
LINE
8
BLACK
6
CONTINUOUS
10
6.5787401574803148
20
-5.5570866141732278
11
6.5779909448818898
21
-5.5608531889763775
0
LINE
8
BLACK
6
CONTINUOUS
10
6.5779909448818898
20
-5.5608531889763775
11
6.5758573622047241
21
-5.5640463385826768
0
LINE
8
BLACK
6
CONTINUOUS
10
6.5758573622047241
20
-5.5640463385826768
11
6.5726642125984247
21
-5.5661799212598426
0
LINE
8
BLACK
6
CONTINUOUS
10
6.5726642125984247
20
-5.5661799212598426
11
6.568897637795275
21
-5.5669291338582676
0
LINE
8
BLACK
6
CONTINUOUS
10
6.568897637795275
20
-5.5669291338582676
11
6.5216535433070861
21
-5.5669291338582676
0
LINE
8
BLACK
6
CONTINUOUS
10
6.5216535433070861
20
-5.5669291338582676
11
6.5178869685039365
21
-5.5661799212598426
0
LINE
8
BLACK
6
CONTINUOUS
10
6.5178869685039365
20
-5.5661799212598426
11
6.514693818897638
21
-5.5640463385826768
0
LINE
8
BLACK
6
CONTINUOUS
10
6.514693818897638
20
-5.5640463385826768
11
6.5125602362204722
21
-5.5608531889763775
0
LINE
8
BLACK
6
CONTINUOUS
10
6.5125602362204722
20
-5.5608531889763775
11
6.5118110236220472
21
-5.5570866141732278
0
LINE
8
BLACK
6
CONTINUOUS
10
6.5118110236220472
20
-5.5570866141732278
11
6.5118110236220472
21
-5.4980314960629917
0
LINE
8
BLACK
6
CONTINUOUS
10
6.5118110236220472
20
-5.4980314960629917
11
6.5125602362204722
21
-5.494264921259842
0
LINE
8
BLACK
6
CONTINUOUS
10
6.5125602362204722
20
-5.494264921259842
11
6.514693818897638
21
-5.4910717716535435
0
LINE
8
BLACK
6
CONTINUOUS
10
6.514693818897638
20
-5.4910717716535435
11
6.5178869685039365
21
-5.4889381889763778
0
LINE
8
BLACK
6
CONTINUOUS
10
6.5178869685039365
20
-5.4889381889763778
11
6.5216535433070861
21
-5.4881889763779528
0
LINE
8
BLACK
6
CONTINUOUS
10
6.5216535433070861
20
-5.4881889763779528
11
6.568897637795275
21
-5.4881889763779528
0
LINE
8
BLACK
6
CONTINUOUS
10
6.568897637795275
20
-5.4881889763779528
11
6.5726642125984247
21
-5.4889381889763778
0
LINE
8
BLACK
6
CONTINUOUS
10
6.6534150393700786
20
-5.4896299606299213
11
6.6594758661417321
21
-5.4921404330708663
0
LINE
8
BLACK
6
CONTINUOUS
10
6.6594758661417321
20
-5.4921404330708663
11
6.6649304724409451
21
-5.4957850787401572
0
LINE
8
BLACK
6
CONTINUOUS
10
6.6649304724409451
20
-5.4957850787401572
11
6.6695692519685039
21
-5.5004238582677161
0
LINE
8
BLACK
6
CONTINUOUS
10
6.6695692519685039
20
-5.5004238582677161
11
6.6732138976377948
21
-5.505878464566929
0
LINE
8
BLACK
6
CONTINUOUS
10
6.6732138976377948
20
-5.505878464566929
11
6.6757243700787399
21
-5.5119392913385825
0
LINE
8
BLACK
6
CONTINUOUS
10
6.6757243700787399
20
-5.5119392913385825
11
6.6770042125984252
21
-5.5183734251968506
0
LINE
8
BLACK
6
CONTINUOUS
10
6.6770042125984252
20
-5.5183734251968506
11
6.6771653543307083
21
-5.5216535433070861
0
LINE
8
BLACK
6
CONTINUOUS
10
6.6771653543307083
20
-5.5216535433070861
11
6.6771653543307083
21
-5.5334645669291334
0
LINE
8
BLACK
6
CONTINUOUS
10
6.6771653543307083
20
-5.5334645669291334
11
6.6770042125984252
21
-5.5367446850393698
0
LINE
8
BLACK
6
CONTINUOUS
10
6.6770042125984252
20
-5.5367446850393698
11
6.6757243700787399
21
-5.5431788188976379
0
LINE
8
BLACK
6
CONTINUOUS
10
6.6757243700787399
20
-5.5431788188976379
11
6.6732138976377948
21
-5.5492396456692914
0
LINE
8
BLACK
6
CONTINUOUS
10
6.6732138976377948
20
-5.5492396456692914
11
6.6695692519685039
21
-5.5546942519685034
0
LINE
8
BLACK
6
CONTINUOUS
10
6.6695692519685039
20
-5.5546942519685034
11
6.6649304724409451
21
-5.5593330314960632
0
LINE
8
BLACK
6
CONTINUOUS
10
6.6649304724409451
20
-5.5593330314960632
11
6.6594758661417321
21
-5.5629776771653541
0
LINE
8
BLACK
6
CONTINUOUS
10
6.6594758661417321
20
-5.5629776771653541
11
6.6534150393700786
21
-5.5654881496062991
0
LINE
8
BLACK
6
CONTINUOUS
10
6.6534150393700786
20
-5.5654881496062991
11
6.6469809055118105
21
-5.5667679921259845
0
LINE
8
BLACK
6
CONTINUOUS
10
6.6469809055118105
20
-5.5667679921259845
11
6.6404206692913386
21
-5.5667679921259845
0
LINE
8
BLACK
6
CONTINUOUS
10
6.6404206692913386
20
-5.5667679921259845
11
6.6339865354330705
21
-5.5654881496062991
0
LINE
8
BLACK
6
CONTINUOUS
10
6.6339865354330705
20
-5.5654881496062991
11
6.6279257086614169
21
-5.5629776771653541
0
LINE
8
BLACK
6
CONTINUOUS
10
6.6279257086614169
20
-5.5629776771653541
11
6.6224711023622049
21
-5.5593330314960632
0
LINE
8
BLACK
6
CONTINUOUS
10
6.6224711023622049
20
-5.5593330314960632
11
6.6178323228346452
21
-5.5546942519685034
0
LINE
8
BLACK
6
CONTINUOUS
10
6.6178323228346452
20
-5.5546942519685034
11
6.6141876771653543
21
-5.5492396456692914
0
LINE
8
BLACK
6
CONTINUOUS
10
6.6141876771653543
20
-5.5492396456692914
11
6.6116772047244092
21
-5.5431788188976379
0
LINE
8
BLACK
6
CONTINUOUS
10
6.6116772047244092
20
-5.5431788188976379
11
6.6103973622047238
21
-5.5367446850393698
0
LINE
8
BLACK
6
CONTINUOUS
10
6.6103973622047238
20
-5.5367446850393698
11
6.6102362204724407
21
-5.5334645669291334
0
LINE
8
BLACK
6
CONTINUOUS
10
6.6102362204724407
20
-5.5334645669291334
11
6.6102362204724407
21
-5.5216535433070861
0
LINE
8
BLACK
6
CONTINUOUS
10
6.6102362204724407
20
-5.5216535433070861
11
6.6103973622047238
21
-5.5183734251968506
0
LINE
8
BLACK
6
CONTINUOUS
10
6.6103973622047238
20
-5.5183734251968506
11
6.6116772047244092
21
-5.5119392913385825
0
LINE
8
BLACK
6
CONTINUOUS
10
6.6116772047244092
20
-5.5119392913385825
11
6.6141876771653543
21
-5.505878464566929
0
LINE
8
BLACK
6
CONTINUOUS
10
6.6141876771653543
20
-5.505878464566929
11
6.6178323228346452
21
-5.5004238582677161
0
LINE
8
BLACK
6
CONTINUOUS
10
6.6178323228346452
20
-5.5004238582677161
11
6.6224711023622049
21
-5.4957850787401572
0
LINE
8
BLACK
6
CONTINUOUS
10
6.6224711023622049
20
-5.4957850787401572
11
6.6279257086614169
21
-5.4921404330708663
0
LINE
8
BLACK
6
CONTINUOUS
10
6.6279257086614169
20
-5.4921404330708663
11
6.6339865354330705
21
-5.4896299606299213
0
LINE
8
BLACK
6
CONTINUOUS
10
6.6339865354330705
20
-5.4896299606299213
11
6.6404206692913386
21
-5.4883501181102359
0
LINE
8
BLACK
6
CONTINUOUS
10
6.6404206692913386
20
-5.4883501181102359
11
6.6469809055118105
21
-5.4883501181102359
0
LINE
8
BLACK
6
CONTINUOUS
10
6.6469809055118105
20
-5.4883501181102359
11
6.6534150393700786
21
-5.4896299606299213
0
LINE
8
BLACK
6
CONTINUOUS
10
2.8128216929133858
20
-5.4281114173228344
11
2.8160148425196851
21
-5.4302450000000002
0
LINE
8
BLACK
6
CONTINUOUS
10
2.8160148425196851
20
-5.4302450000000002
11
2.8181484251968505
21
-5.4334381496062987
0
LINE
8
BLACK
6
CONTINUOUS
10
2.8181484251968505
20
-5.4334381496062987
11
2.8188976377952755
21
-5.4372047244094484
0
LINE
8
BLACK
6
CONTINUOUS
10
2.8188976377952755
20
-5.4372047244094484
11
2.8188976377952755
21
-5.4962598425196854
0
LINE
8
BLACK
6
CONTINUOUS
10
2.8188976377952755
20
-5.4962598425196854
11
2.8181484251968505
21
-5.5000264173228341
0
LINE
8
BLACK
6
CONTINUOUS
10
2.8181484251968505
20
-5.5000264173228341
11
2.8160148425196851
21
-5.5032195669291335
0
LINE
8
BLACK
6
CONTINUOUS
10
2.8160148425196851
20
-5.5032195669291335
11
2.8128216929133858
21
-5.5053531496062993
0
LINE
8
BLACK
6
CONTINUOUS
10
2.8128216929133858
20
-5.5053531496062993
11
2.8090551181102361
21
-5.5061023622047243
0
LINE
8
BLACK
6
CONTINUOUS
10
2.8090551181102361
20
-5.5061023622047243
11
2.7618110236220472
21
-5.5061023622047243
0
LINE
8
BLACK
6
CONTINUOUS
10
2.7618110236220472
20
-5.5061023622047243
11
2.7580444488188975
21
-5.5053531496062993
0
LINE
8
BLACK
6
CONTINUOUS
10
2.7580444488188975
20
-5.5053531496062993
11
2.7548512992125982
21
-5.5032195669291335
0
LINE
8
BLACK
6
CONTINUOUS
10
2.7548512992125982
20
-5.5032195669291335
11
2.7527177165354328
21
-5.5000264173228341
0
LINE
8
BLACK
6
CONTINUOUS
10
2.7527177165354328
20
-5.5000264173228341
11
2.7519685039370079
21
-5.4962598425196854
0
LINE
8
BLACK
6
CONTINUOUS
10
2.7519685039370079
20
-5.4962598425196854
11
2.7519685039370079
21
-5.4372047244094484
0
LINE
8
BLACK
6
CONTINUOUS
10
2.7519685039370079
20
-5.4372047244094484
11
2.7527177165354328
21
-5.4334381496062987
0
LINE
8
BLACK
6
CONTINUOUS
10
2.7527177165354328
20
-5.4334381496062987
11
2.7548512992125982
21
-5.4302450000000002
0
LINE
8
BLACK
6
CONTINUOUS
10
2.7548512992125982
20
-5.4302450000000002
11
2.7580444488188975
21
-5.4281114173228344
0
LINE
8
BLACK
6
CONTINUOUS
10
2.7580444488188975
20
-5.4281114173228344
11
2.7618110236220472
21
-5.4273622047244094
0
LINE
8
BLACK
6
CONTINUOUS
10
2.7618110236220472
20
-5.4273622047244094
11
2.8090551181102361
21
-5.4273622047244094
0
LINE
8
BLACK
6
CONTINUOUS
10
2.8090551181102361
20
-5.4273622047244094
11
2.8128216929133858
21
-5.4281114173228344
0
LINE
8
BLACK
6
CONTINUOUS
10
2.8935725196850393
20
-5.4288031889763779
11
2.8996333464566928
21
-5.431313661417323
0
LINE
8
BLACK
6
CONTINUOUS
10
2.8996333464566928
20
-5.431313661417323
11
2.9050879527559053
21
-5.4349583070866139
0
LINE
8
BLACK
6
CONTINUOUS
10
2.9050879527559053
20
-5.4349583070866139
11
2.9097267322834646
21
-5.4395970866141727
0
LINE
8
BLACK
6
CONTINUOUS
10
2.9097267322834646
20
-5.4395970866141727
11
2.9133713779527559
21
-5.4450516929133856
0
LINE
8
BLACK
6
CONTINUOUS
10
2.9133713779527559
20
-5.4450516929133856
11
2.9158818503937005
21
-5.4511125196850392
0
LINE
8
BLACK
6
CONTINUOUS
10
2.9158818503937005
20
-5.4511125196850392
11
2.9171616929133859
21
-5.4575466535433073
0
LINE
8
BLACK
6
CONTINUOUS
10
2.9171616929133859
20
-5.4575466535433073
11
2.9173228346456694
21
-5.4608267716535428
0
LINE
8
BLACK
6
CONTINUOUS
10
2.9173228346456694
20
-5.4608267716535428
11
2.9173228346456694
21
-5.47263779527559
0
LINE
8
BLACK
6
CONTINUOUS
10
2.9173228346456694
20
-5.47263779527559
11
2.9171616929133859
21
-5.4759179133858265
0
LINE
8
BLACK
6
CONTINUOUS
10
2.9171616929133859
20
-5.4759179133858265
11
2.9158818503937005
21
-5.4823520472440945
0
LINE
8
BLACK
6
CONTINUOUS
10
2.9158818503937005
20
-5.4823520472440945
11
2.9133713779527559
21
-5.4884128740157481
0
LINE
8
BLACK
6
CONTINUOUS
10
2.9133713779527559
20
-5.4884128740157481
11
2.9097267322834646
21
-5.4938674803149601
0
LINE
8
BLACK
6
CONTINUOUS
10
2.9097267322834646
20
-5.4938674803149601
11
2.9050879527559053
21
-5.4985062598425198
0
LINE
8
BLACK
6
CONTINUOUS
10
2.9050879527559053
20
-5.4985062598425198
11
2.8996333464566928
21
-5.5021509055118107
0
LINE
8
BLACK
6
CONTINUOUS
10
2.8996333464566928
20
-5.5021509055118107
11
2.8935725196850393
21
-5.5046613779527558
0
LINE
8
BLACK
6
CONTINUOUS
10
2.8935725196850393
20
-5.5046613779527558
11
2.8871383858267716
21
-5.5059412204724412
0
LINE
8
BLACK
6
CONTINUOUS
10
2.8871383858267716
20
-5.5059412204724412
11
2.8805781496062992
21
-5.5059412204724412
0
LINE
8
BLACK
6
CONTINUOUS
10
2.8805781496062992
20
-5.5059412204724412
11
2.8741440157480316
21
-5.5046613779527558
0
LINE
8
BLACK
6
CONTINUOUS
10
2.8741440157480316
20
-5.5046613779527558
11
2.868083188976378
21
-5.5021509055118107
0
LINE
8
BLACK
6
CONTINUOUS
10
2.868083188976378
20
-5.5021509055118107
11
2.8626285826771651
21
-5.4985062598425198
0
LINE
8
BLACK
6
CONTINUOUS
10
2.8626285826771651
20
-5.4985062598425198
11
2.8579898031496063
21
-5.4938674803149601
0
LINE
8
BLACK
6
CONTINUOUS
10
2.8579898031496063
20
-5.4938674803149601
11
2.8543451574803149
21
-5.4884128740157481
0
LINE
8
BLACK
6
CONTINUOUS
10
2.8543451574803149
20
-5.4884128740157481
11
2.8518346850393699
21
-5.4823520472440945
0
LINE
8
BLACK
6
CONTINUOUS
10
2.8518346850393699
20
-5.4823520472440945
11
2.8505548425196849
21
-5.4759179133858265
0
LINE
8
BLACK
6
CONTINUOUS
10
2.8505548425196849
20
-5.4759179133858265
11
2.8503937007874014
21
-5.47263779527559
0
LINE
8
BLACK
6
CONTINUOUS
10
2.8503937007874014
20
-5.47263779527559
11
2.8503937007874014
21
-5.4608267716535428
0
LINE
8
BLACK
6
CONTINUOUS
10
2.8503937007874014
20
-5.4608267716535428
11
2.8505548425196849
21
-5.4575466535433073
0
LINE
8
BLACK
6
CONTINUOUS
10
2.8505548425196849
20
-5.4575466535433073
11
2.8518346850393699
21
-5.4511125196850392
0
LINE
8
BLACK
6
CONTINUOUS
10
2.8518346850393699
20
-5.4511125196850392
11
2.8543451574803149
21
-5.4450516929133856
0
LINE
8
BLACK
6
CONTINUOUS
10
2.8543451574803149
20
-5.4450516929133856
11
2.8579898031496063
21
-5.4395970866141727
0
LINE
8
BLACK
6
CONTINUOUS
10
2.8579898031496063
20
-5.4395970866141727
11
2.8626285826771651
21
-5.4349583070866139
0
LINE
8
BLACK
6
CONTINUOUS
10
2.8626285826771651
20
-5.4349583070866139
11
2.868083188976378
21
-5.431313661417323
0
LINE
8
BLACK
6
CONTINUOUS
10
2.868083188976378
20
-5.431313661417323
11
2.8741440157480316
21
-5.4288031889763779
0
LINE
8
BLACK
6
CONTINUOUS
10
2.8741440157480316
20
-5.4288031889763779
11
2.8805781496062992
21
-5.4275233464566925
0
LINE
8
BLACK
6
CONTINUOUS
10
2.8805781496062992
20
-5.4275233464566925
11
2.8871383858267716
21
-5.4275233464566925
0
LINE
8
BLACK
6
CONTINUOUS
10
2.8871383858267716
20
-5.4275233464566925
11
2.8935725196850393
21
-5.4288031889763779
0
LINE
8
BLACK
6
CONTINUOUS
10
2.3994358661417321
20
-5.426142913385827
11
2.4026290157480314
21
-5.4282764960629919
0
LINE
8
BLACK
6
CONTINUOUS
10
2.4026290157480314
20
-5.4282764960629919
11
2.4047625984251968
21
-5.4314696456692912
0
LINE
8
BLACK
6
CONTINUOUS
10
2.4047625984251968
20
-5.4314696456692912
11
2.4055118110236218
21
-5.4352362204724409
0
LINE
8
BLACK
6
CONTINUOUS
10
2.4055118110236218
20
-5.4352362204724409
11
2.4055118110236218
21
-5.494291338582677
0
LINE
8
BLACK
6
CONTINUOUS
10
2.4055118110236218
20
-5.494291338582677
11
2.4047625984251968
21
-5.4980579133858267
0
LINE
8
BLACK
6
CONTINUOUS
10
2.4047625984251968
20
-5.4980579133858267
11
2.4026290157480314
21
-5.5012510629921261
0
LINE
8
BLACK
6
CONTINUOUS
10
2.4026290157480314
20
-5.5012510629921261
11
2.3994358661417321
21
-5.503384645669291
0
LINE
8
BLACK
6
CONTINUOUS
10
2.3994358661417321
20
-5.503384645669291
11
2.3956692913385824
21
-5.5041338582677168
0
LINE
8
BLACK
6
CONTINUOUS
10
2.3956692913385824
20
-5.5041338582677168
11
2.3484251968503935
21
-5.5041338582677168
0
LINE
8
BLACK
6
CONTINUOUS
10
2.3484251968503935
20
-5.5041338582677168
11
2.3446586220472438
21
-5.503384645669291
0
LINE
8
BLACK
6
CONTINUOUS
10
2.3446586220472438
20
-5.503384645669291
11
2.3414654724409449
21
-5.5012510629921261
0
LINE
8
BLACK
6
CONTINUOUS
10
2.3414654724409449
20
-5.5012510629921261
11
2.3393318897637796
21
-5.4980579133858267
0
LINE
8
BLACK
6
CONTINUOUS
10
2.3393318897637796
20
-5.4980579133858267
11
2.3385826771653542
21
-5.494291338582677
0
LINE
8
BLACK
6
CONTINUOUS
10
2.3385826771653542
20
-5.494291338582677
11
2.3385826771653542
21
-5.4352362204724409
0
LINE
8
BLACK
6
CONTINUOUS
10
2.3385826771653542
20
-5.4352362204724409
11
2.3393318897637796
21
-5.4314696456692912
0
LINE
8
BLACK
6
CONTINUOUS
10
2.3393318897637796
20
-5.4314696456692912
11
2.3414654724409449
21
-5.4282764960629919
0
LINE
8
BLACK
6
CONTINUOUS
10
2.3414654724409449
20
-5.4282764960629919
11
2.3446586220472438
21
-5.426142913385827
0
LINE
8
BLACK
6
CONTINUOUS
10
2.3446586220472438
20
-5.426142913385827
11
2.3484251968503935
21
-5.4253937007874011
0
LINE
8
BLACK
6
CONTINUOUS
10
2.3484251968503935
20
-5.4253937007874011
11
2.3956692913385824
21
-5.4253937007874011
0
LINE
8
BLACK
6
CONTINUOUS
10
2.3956692913385824
20
-5.4253937007874011
11
2.3994358661417321
21
-5.426142913385827
0
LINE
8
BLACK
6
CONTINUOUS
10
2.4801866929133856
20
-5.4268346850393696
11
2.4862475196850391
21
-5.4293451574803147
0
LINE
8
BLACK
6
CONTINUOUS
10
2.4862475196850391
20
-5.4293451574803147
11
2.491702125984252
21
-5.4329898031496064
0
LINE
8
BLACK
6
CONTINUOUS
10
2.491702125984252
20
-5.4329898031496064
11
2.4963409055118109
21
-5.4376285826771653
0
LINE
8
BLACK
6
CONTINUOUS
10
2.4963409055118109
20
-5.4376285826771653
11
2.4999855511811022
21
-5.4430831889763782
0
LINE
8
BLACK
6
CONTINUOUS
10
2.4999855511811022
20
-5.4430831889763782
11
2.5024960236220473
21
-5.4491440157480318
0
LINE
8
BLACK
6
CONTINUOUS
10
2.5024960236220473
20
-5.4491440157480318
11
2.5037758661417322
21
-5.4555781496062989
0
LINE
8
BLACK
6
CONTINUOUS
10
2.5037758661417322
20
-5.4555781496062989
11
2.5039370078740157
21
-5.4588582677165354
0
LINE
8
BLACK
6
CONTINUOUS
10
2.5039370078740157
20
-5.4588582677165354
11
2.5039370078740157
21
-5.4706692913385826
0
LINE
8
BLACK
6
CONTINUOUS
10
2.5039370078740157
20
-5.4706692913385826
11
2.5037758661417322
21
-5.473949409448819
0
LINE
8
BLACK
6
CONTINUOUS
10
2.5037758661417322
20
-5.473949409448819
11
2.5024960236220473
21
-5.4803835433070862
0
LINE
8
BLACK
6
CONTINUOUS
10
2.5024960236220473
20
-5.4803835433070862
11
2.4999855511811022
21
-5.4864443700787398
0
LINE
8
BLACK
6
CONTINUOUS
10
2.4999855511811022
20
-5.4864443700787398
11
2.4963409055118109
21
-5.4918989763779527
0
LINE
8
BLACK
6
CONTINUOUS
10
2.4963409055118109
20
-5.4918989763779527
11
2.491702125984252
21
-5.4965377559055115
0
LINE
8
BLACK
6
CONTINUOUS
10
2.491702125984252
20
-5.4965377559055115
11
2.4862475196850391
21
-5.5001824015748033
0
LINE
8
BLACK
6
CONTINUOUS
10
2.4862475196850391
20
-5.5001824015748033
11
2.4801866929133856
21
-5.5026928740157475
0
LINE
8
BLACK
6
CONTINUOUS
10
2.4801866929133856
20
-5.5026928740157475
11
2.4737525590551179
21
-5.5039727165354329
0
LINE
8
BLACK
6
CONTINUOUS
10
2.4737525590551179
20
-5.5039727165354329
11
2.4671923228346455
21
-5.5039727165354329
0
LINE
8
BLACK
6
CONTINUOUS
10
2.4671923228346455
20
-5.5039727165354329
11
2.4607581889763779
21
-5.5026928740157475
0
LINE
8
BLACK
6
CONTINUOUS
10
2.4607581889763779
20
-5.5026928740157475
11
2.4546973622047243
21
-5.5001824015748033
0
LINE
8
BLACK
6
CONTINUOUS
10
2.4546973622047243
20
-5.5001824015748033
11
2.4492427559055119
21
-5.4965377559055115
0
LINE
8
BLACK
6
CONTINUOUS
10
2.4492427559055119
20
-5.4965377559055115
11
2.4446039763779526
21
-5.4918989763779527
0
LINE
8
BLACK
6
CONTINUOUS
10
2.4446039763779526
20
-5.4918989763779527
11
2.4409593307086612
21
-5.4864443700787398
0
LINE
8
BLACK
6
CONTINUOUS
10
2.4409593307086612
20
-5.4864443700787398
11
2.4384488582677166
21
-5.4803835433070862
0
LINE
8
BLACK
6
CONTINUOUS
10
2.4384488582677166
20
-5.4803835433070862
11
2.4371690157480312
21
-5.473949409448819
0
LINE
8
BLACK
6
CONTINUOUS
10
2.4371690157480312
20
-5.473949409448819
11
2.4370078740157481
21
-5.4706692913385826
0
LINE
8
BLACK
6
CONTINUOUS
10
2.4370078740157481
20
-5.4706692913385826
11
2.4370078740157481
21
-5.4588582677165354
0
LINE
8
BLACK
6
CONTINUOUS
10
2.4370078740157481
20
-5.4588582677165354
11
2.4371690157480312
21
-5.4555781496062989
0
LINE
8
BLACK
6
CONTINUOUS
10
2.4371690157480312
20
-5.4555781496062989
11
2.4384488582677166
21
-5.4491440157480318
0
LINE
8
BLACK
6
CONTINUOUS
10
2.4384488582677166
20
-5.4491440157480318
11
2.4409593307086612
21
-5.4430831889763782
0
LINE
8
BLACK
6
CONTINUOUS
10
2.4409593307086612
20
-5.4430831889763782
11
2.4446039763779526
21
-5.4376285826771653
0
LINE
8
BLACK
6
CONTINUOUS
10
2.4446039763779526
20
-5.4376285826771653
11
2.4492427559055119
21
-5.4329898031496064
0
LINE
8
BLACK
6
CONTINUOUS
10
2.4492427559055119
20
-5.4329898031496064
11
2.4546973622047243
21
-5.4293451574803147
0
LINE
8
BLACK
6
CONTINUOUS
10
2.4546973622047243
20
-5.4293451574803147
11
2.4607581889763779
21
-5.4268346850393696
0
LINE
8
BLACK
6
CONTINUOUS
10
2.4607581889763779
20
-5.4268346850393696
11
2.4671923228346455
21
-5.4255548425196851
0
LINE
8
BLACK
6
CONTINUOUS
10
2.4671923228346455
20
-5.4255548425196851
11
2.4737525590551179
21
-5.4255548425196851
0
LINE
8
BLACK
6
CONTINUOUS
10
2.4737525590551179
20
-5.4255548425196851
11
2.4801866929133856
21
-5.4268346850393696
0
LINE
8
BLACK
6
CONTINUOUS
10
6.1268700787401578
20
-5.3051181102362204
11
6.0518700787401576
21
-5.3051181102362204
0
LINE
8
BLACK
6
CONTINUOUS
10
6.0518700787401576
20
-5.3051181102362204
11
6.0518700787401576
21
-5.2263779527559056
0
LINE
8
BLACK
6
CONTINUOUS
10
6.0518700787401576
20
-5.2263779527559056
11
6.1268700787401578
21
-5.2263779527559056
0
LINE
8
BLACK
6
CONTINUOUS
10
6.1268700787401578
20
-5.2263779527559056
11
6.1268700787401578
21
-5.3051181102362204
0
LINE
8
BLACK
6
CONTINUOUS
10
6.2002557480314957
20
-5.2279926771653544
11
6.2070474409448817
21
-5.2308059055118106
0
LINE
8
BLACK
6
CONTINUOUS
10
6.2070474409448817
20
-5.2308059055118106
11
6.2131598425196852
21
-5.2348900787401575
0
LINE
8
BLACK
6
CONTINUOUS
10
6.2131598425196852
20
-5.2348900787401575
11
6.2183579527559054
21
-5.2400881889763777
0
LINE
8
BLACK
6
CONTINUOUS
10
6.2183579527559054
20
-5.2400881889763777
11
6.2224421259842515
21
-5.2462005905511813
0
LINE
8
BLACK
6
CONTINUOUS
10
6.2224421259842515
20
-5.2462005905511813
11
6.2252553543307085
21
-5.2529922834645664
0
LINE
8
BLACK
6
CONTINUOUS
10
6.2252553543307085
20
-5.2529922834645664
11
6.2266894881889758
21
-5.2602023228346457
0
LINE
8
BLACK
6
CONTINUOUS
10
6.2266894881889758
20
-5.2602023228346457
11
6.2268700787401574
21
-5.2638779527559052
0
LINE
8
BLACK
6
CONTINUOUS
10
6.2268700787401574
20
-5.2638779527559052
11
6.2268700787401574
21
-5.2676181102362207
0
LINE
8
BLACK
6
CONTINUOUS
10
6.2268700787401574
20
-5.2676181102362207
11
6.2266894881889758
21
-5.2712937401574802
0
LINE
8
BLACK
6
CONTINUOUS
10
6.2266894881889758
20
-5.2712937401574802
11
6.2252553543307085
21
-5.2785037795275587
0
LINE
8
BLACK
6
CONTINUOUS
10
6.2252553543307085
20
-5.2785037795275587
11
6.2224421259842515
21
-5.2852954724409447
0
LINE
8
BLACK
6
CONTINUOUS
10
6.2224421259842515
20
-5.2852954724409447
11
6.2183579527559054
21
-5.2914078740157482
0
LINE
8
BLACK
6
CONTINUOUS
10
6.2183579527559054
20
-5.2914078740157482
11
6.2131598425196852
21
-5.2966059842519684
0
LINE
8
BLACK
6
CONTINUOUS
10
6.2131598425196852
20
-5.2966059842519684
11
6.2070474409448817
21
-5.3006901574803145
0
LINE
8
BLACK
6
CONTINUOUS
10
6.2070474409448817
20
-5.3006901574803145
11
6.2002557480314957
21
-5.3035033858267715
0
LINE
8
BLACK
6
CONTINUOUS
10
6.2002557480314957
20
-5.3035033858267715
11
6.1930457086614172
21
-5.3049375196850397
0
LINE
8
BLACK
6
CONTINUOUS
10
6.1930457086614172
20
-5.3049375196850397
11
6.1856944488188974
21
-5.3049375196850397
0
LINE
8
BLACK
6
CONTINUOUS
10
6.1856944488188974
20
-5.3049375196850397
11
6.1784844094488189
21
-5.3035033858267715
0
LINE
8
BLACK
6
CONTINUOUS
10
6.1784844094488189
20
-5.3035033858267715
11
6.1716927165354329
21
-5.3006901574803145
0
LINE
8
BLACK
6
CONTINUOUS
10
6.1716927165354329
20
-5.3006901574803145
11
6.1655803149606294
21
-5.2966059842519684
0
LINE
8
BLACK
6
CONTINUOUS
10
6.1655803149606294
20
-5.2966059842519684
11
6.1603822047244092
21
-5.2914078740157482
0
LINE
8
BLACK
6
CONTINUOUS
10
6.1603822047244092
20
-5.2914078740157482
11
6.1562980314960631
21
-5.2852954724409447
0
LINE
8
BLACK
6
CONTINUOUS
10
6.1562980314960631
20
-5.2852954724409447
11
6.1534848031496061
21
-5.2785037795275587
0
LINE
8
BLACK
6
CONTINUOUS
10
6.1534848031496061
20
-5.2785037795275587
11
6.1520506692913388
21
-5.2712937401574802
0
LINE
8
BLACK
6
CONTINUOUS
10
6.1520506692913388
20
-5.2712937401574802
11
6.1518700787401572
21
-5.2676181102362207
0
LINE
8
BLACK
6
CONTINUOUS
10
6.1518700787401572
20
-5.2676181102362207
11
6.1518700787401572
21
-5.2638779527559052
0
LINE
8
BLACK
6
CONTINUOUS
10
6.1518700787401572
20
-5.2638779527559052
11
6.1520506692913388
21
-5.2602023228346457
0
LINE
8
BLACK
6
CONTINUOUS
10
6.1520506692913388
20
-5.2602023228346457
11
6.1534848031496061
21
-5.2529922834645664
0
LINE
8
BLACK
6
CONTINUOUS
10
6.1534848031496061
20
-5.2529922834645664
11
6.1562980314960631
21
-5.2462005905511813
0
LINE
8
BLACK
6
CONTINUOUS
10
6.1562980314960631
20
-5.2462005905511813
11
6.1603822047244092
21
-5.2400881889763777
0
LINE
8
BLACK
6
CONTINUOUS
10
6.1603822047244092
20
-5.2400881889763777
11
6.1655803149606294
21
-5.2348900787401575
0
LINE
8
BLACK
6
CONTINUOUS
10
6.1655803149606294
20
-5.2348900787401575
11
6.1716927165354329
21
-5.2308059055118106
0
LINE
8
BLACK
6
CONTINUOUS
10
6.1716927165354329
20
-5.2308059055118106
11
6.1784844094488189
21
-5.2279926771653544
0
LINE
8
BLACK
6
CONTINUOUS
10
6.1784844094488189
20
-5.2279926771653544
11
6.1856944488188974
21
-5.2265585433070862
0
LINE
8
BLACK
6
CONTINUOUS
10
6.1856944488188974
20
-5.2265585433070862
11
6.1930457086614172
21
-5.2265585433070862
0
LINE
8
BLACK
6
CONTINUOUS
10
6.1930457086614172
20
-5.2265585433070862
11
6.2002557480314957
21
-5.2279926771653544
0
LINE
8
BLACK
6
CONTINUOUS
10
6.3002557480314962
20
-5.2279926771653544
11
6.3070474409448813
21
-5.2308059055118106
0
LINE
8
BLACK
6
CONTINUOUS
10
6.3070474409448813
20
-5.2308059055118106
11
6.3131598425196849
21
-5.2348900787401575
0
LINE
8
BLACK
6
CONTINUOUS
10
6.3131598425196849
20
-5.2348900787401575
11
6.3183579527559051
21
-5.2400881889763777
0
LINE
8
BLACK
6
CONTINUOUS
10
6.3183579527559051
20
-5.2400881889763777
11
6.322442125984252
21
-5.2462005905511813
0
LINE
8
BLACK
6
CONTINUOUS
10
6.322442125984252
20
-5.2462005905511813
11
6.3252553543307082
21
-5.2529922834645664
0
LINE
8
BLACK
6
CONTINUOUS
10
6.3252553543307082
20
-5.2529922834645664
11
6.3266894881889764
21
-5.2602023228346457
0
LINE
8
BLACK
6
CONTINUOUS
10
6.3266894881889764
20
-5.2602023228346457
11
6.3268700787401571
21
-5.2638779527559052
0
LINE
8
BLACK
6
CONTINUOUS
10
6.3268700787401571
20
-5.2638779527559052
11
6.3268700787401571
21
-5.2676181102362207
0
LINE
8
BLACK
6
CONTINUOUS
10
6.3268700787401571
20
-5.2676181102362207
11
6.3266894881889764
21
-5.2712937401574802
0
LINE
8
BLACK
6
CONTINUOUS
10
6.3266894881889764
20
-5.2712937401574802
11
6.3252553543307082
21
-5.2785037795275587
0
LINE
8
BLACK
6
CONTINUOUS
10
6.3252553543307082
20
-5.2785037795275587
11
6.322442125984252
21
-5.2852954724409447
0
LINE
8
BLACK
6
CONTINUOUS
10
6.322442125984252
20
-5.2852954724409447
11
6.3183579527559051
21
-5.2914078740157482
0
LINE
8
BLACK
6
CONTINUOUS
10
6.3183579527559051
20
-5.2914078740157482
11
6.3131598425196849
21
-5.2966059842519684
0
LINE
8
BLACK
6
CONTINUOUS
10
6.3131598425196849
20
-5.2966059842519684
11
6.3070474409448813
21
-5.3006901574803145
0
LINE
8
BLACK
6
CONTINUOUS
10
6.3070474409448813
20
-5.3006901574803145
11
6.3002557480314962
21
-5.3035033858267715
0
LINE
8
BLACK
6
CONTINUOUS
10
6.3002557480314962
20
-5.3035033858267715
11
6.2930457086614169
21
-5.3049375196850397
0
LINE
8
BLACK
6
CONTINUOUS
10
6.2930457086614169
20
-5.3049375196850397
11
6.2856944488188971
21
-5.3049375196850397
0
LINE
8
BLACK
6
CONTINUOUS
10
6.2856944488188971
20
-5.3049375196850397
11
6.2784844094488186
21
-5.3035033858267715
0
LINE
8
BLACK
6
CONTINUOUS
10
6.2784844094488186
20
-5.3035033858267715
11
6.2716927165354326
21
-5.3006901574803145
0
LINE
8
BLACK
6
CONTINUOUS
10
6.2716927165354326
20
-5.3006901574803145
11
6.2655803149606299
21
-5.2966059842519684
0
LINE
8
BLACK
6
CONTINUOUS
10
6.2655803149606299
20
-5.2966059842519684
11
6.2603822047244089
21
-5.2914078740157482
0
LINE
8
BLACK
6
CONTINUOUS
10
6.2603822047244089
20
-5.2914078740157482
11
6.2562980314960628
21
-5.2852954724409447
0
LINE
8
BLACK
6
CONTINUOUS
10
6.2562980314960628
20
-5.2852954724409447
11
6.2534848031496058
21
-5.2785037795275587
0
LINE
8
BLACK
6
CONTINUOUS
10
6.2534848031496058
20
-5.2785037795275587
11
6.2520506692913385
21
-5.2712937401574802
0
LINE
8
BLACK
6
CONTINUOUS
10
6.2520506692913385
20
-5.2712937401574802
11
6.2518700787401578
21
-5.2676181102362207
0
LINE
8
BLACK
6
CONTINUOUS
10
6.2518700787401578
20
-5.2676181102362207
11
6.2518700787401578
21
-5.2638779527559052
0
LINE
8
BLACK
6
CONTINUOUS
10
6.2518700787401578
20
-5.2638779527559052
11
6.2520506692913385
21
-5.2602023228346457
0
LINE
8
BLACK
6
CONTINUOUS
10
6.2520506692913385
20
-5.2602023228346457
11
6.2534848031496058
21
-5.2529922834645664
0
LINE
8
BLACK
6
CONTINUOUS
10
6.2534848031496058
20
-5.2529922834645664
11
6.2562980314960628
21
-5.2462005905511813
0
LINE
8
BLACK
6
CONTINUOUS
10
6.2562980314960628
20
-5.2462005905511813
11
6.2603822047244089
21
-5.2400881889763777
0
LINE
8
BLACK
6
CONTINUOUS
10
6.2603822047244089
20
-5.2400881889763777
11
6.2655803149606299
21
-5.2348900787401575
0
LINE
8
BLACK
6
CONTINUOUS
10
6.2655803149606299
20
-5.2348900787401575
11
6.2716927165354326
21
-5.2308059055118106
0
LINE
8
BLACK
6
CONTINUOUS
10
6.2716927165354326
20
-5.2308059055118106
11
6.2784844094488186
21
-5.2279926771653544
0
LINE
8
BLACK
6
CONTINUOUS
10
6.2784844094488186
20
-5.2279926771653544
11
6.2856944488188971
21
-5.2265585433070862
0
LINE
8
BLACK
6
CONTINUOUS
10
6.2856944488188971
20
-5.2265585433070862
11
6.2930457086614169
21
-5.2265585433070862
0
LINE
8
BLACK
6
CONTINUOUS
10
6.2930457086614169
20
-5.2265585433070862
11
6.3002557480314962
21
-5.2279926771653544
0
LINE
8
BLACK
6
CONTINUOUS
10
3.0728412598425194
20
-5.1118679133858267
11
3.081654527559055
21
-5.1147315354330711
0
LINE
8
BLACK
6
CONTINUOUS
10
3.081654527559055
20
-5.1147315354330711
11
3.0899113385826773
21
-5.1189385826771652
0
LINE
8
BLACK
6
CONTINUOUS
10
3.0899113385826773
20
-5.1189385826771652
11
3.0974083464566928
21
-5.1243854724409443
0
LINE
8
BLACK
6
CONTINUOUS
10
3.0974083464566928
20
-5.1243854724409443
11
3.1039609842519686
21
-5.1309381102362206
0
LINE
8
BLACK
6
CONTINUOUS
10
3.1039609842519686
20
-5.1309381102362206
11
3.1094078740157478
21
-5.1384351181102357
0
LINE
8
BLACK
6
CONTINUOUS
10
3.1094078740157478
20
-5.1384351181102357
11
3.1136149212598423
21
-5.1466919291338584
0
LINE
8
BLACK
6
CONTINUOUS
10
3.1136149212598423
20
-5.1466919291338584
11
3.1164785433070867
21
-5.1555051968503935
0
LINE
8
BLACK
6
CONTINUOUS
10
3.1164785433070867
20
-5.1555051968503935
11
3.1179281889763777
21
-5.1646579133858266
0
LINE
8
BLACK
6
CONTINUOUS
10
3.1179281889763777
20
-5.1646579133858266
11
3.1179281889763777
21
-5.1739247637795271
0
LINE
8
BLACK
6
CONTINUOUS
10
3.1179281889763777
20
-5.1739247637795271
11
3.1164785433070867
21
-5.1830774803149602
0
LINE
8
BLACK
6
CONTINUOUS
10
3.1164785433070867
20
-5.1830774803149602
11
3.1136149212598423
21
-5.1918907480314962
0
LINE
8
BLACK
6
CONTINUOUS
10
3.1136149212598423
20
-5.1918907480314962
11
3.1094078740157478
21
-5.2001475590551181
0
LINE
8
BLACK
6
CONTINUOUS
10
3.1094078740157478
20
-5.2001475590551181
11
3.1039609842519686
21
-5.207644566929134
0
LINE
8
BLACK
6
CONTINUOUS
10
3.1039609842519686
20
-5.207644566929134
11
3.0974083464566928
21
-5.2141972047244094
0
LINE
8
BLACK
6
CONTINUOUS
10
3.0974083464566928
20
-5.2141972047244094
11
3.0899113385826773
21
-5.2196440944881886
0
LINE
8
BLACK
6
CONTINUOUS
10
3.0899113385826773
20
-5.2196440944881886
11
3.081654527559055
21
-5.2238511417322835
0
LINE
8
BLACK
6
CONTINUOUS
10
3.081654527559055
20
-5.2238511417322835
11
3.0728412598425194
21
-5.226714763779527
0
LINE
8
BLACK
6
CONTINUOUS
10
3.0728412598425194
20
-5.226714763779527
11
3.0636885433070864
21
-5.2281644094488184
0
LINE
8
BLACK
6
CONTINUOUS
10
3.0636885433070864
20
-5.2281644094488184
11
3.0544216929133858
21
-5.2281644094488184
0
LINE
8
BLACK
6
CONTINUOUS
10
3.0544216929133858
20
-5.2281644094488184
11
3.0452689763779528
21
-5.226714763779527
0
LINE
8
BLACK
6
CONTINUOUS
10
3.0452689763779528
20
-5.226714763779527
11
3.0364557086614172
21
-5.2238511417322835
0
LINE
8
BLACK
6
CONTINUOUS
10
3.0364557086614172
20
-5.2238511417322835
11
3.0281988976377954
21
-5.2196440944881886
0
LINE
8
BLACK
6
CONTINUOUS
10
3.0281988976377954
20
-5.2196440944881886
11
3.0207018897637794
21
-5.2141972047244094
0
LINE
8
BLACK
6
CONTINUOUS
10
3.0207018897637794
20
-5.2141972047244094
11
3.014149251968504
21
-5.207644566929134
0
LINE
8
BLACK
6
CONTINUOUS
10
3.014149251968504
20
-5.207644566929134
11
3.0087023622047244
21
-5.2001475590551181
0
LINE
8
BLACK
6
CONTINUOUS
10
3.0087023622047244
20
-5.2001475590551181
11
3.0044953149606299
21
-5.1918907480314962
0
LINE
8
BLACK
6
CONTINUOUS
10
3.0044953149606299
20
-5.1918907480314962
11
3.0016316929133859
21
-5.1830774803149602
0
LINE
8
BLACK
6
CONTINUOUS
10
3.0016316929133859
20
-5.1830774803149602
11
3.0001820472440945
21
-5.1739247637795271
0
LINE
8
BLACK
6
CONTINUOUS
10
3.0001820472440945
20
-5.1739247637795271
11
3.0001820472440945
21
-5.1646579133858266
0
LINE
8
BLACK
6
CONTINUOUS
10
3.0001820472440945
20
-5.1646579133858266
11
3.0016316929133859
21
-5.1555051968503935
0
LINE
8
BLACK
6
CONTINUOUS
10
3.0016316929133859
20
-5.1555051968503935
11
3.0044953149606299
21
-5.1466919291338584
0
LINE
8
BLACK
6
CONTINUOUS
10
3.0044953149606299
20
-5.1466919291338584
11
3.0087023622047244
21
-5.1384351181102357
0
LINE
8
BLACK
6
CONTINUOUS
10
3.0087023622047244
20
-5.1384351181102357
11
3.014149251968504
21
-5.1309381102362206
0
LINE
8
BLACK
6
CONTINUOUS
10
3.014149251968504
20
-5.1309381102362206
11
3.0207018897637794
21
-5.1243854724409443
0
LINE
8
BLACK
6
CONTINUOUS
10
3.0207018897637794
20
-5.1243854724409443
11
3.0281988976377954
21
-5.1189385826771652
0
LINE
8
BLACK
6
CONTINUOUS
10
3.0281988976377954
20
-5.1189385826771652
11
3.0364557086614172
21
-5.1147315354330711
0
LINE
8
BLACK
6
CONTINUOUS
10
3.0364557086614172
20
-5.1147315354330711
11
3.0452689763779528
21
-5.1118679133858267
0
LINE
8
BLACK
6
CONTINUOUS
10
3.0452689763779528
20
-5.1118679133858267
11
3.0544216929133858
21
-5.1104182677165353
0
LINE
8
BLACK
6
CONTINUOUS
10
3.0544216929133858
20
-5.1104182677165353
11
3.0636885433070864
21
-5.1104182677165353
0
LINE
8
BLACK
6
CONTINUOUS
10
3.0636885433070864
20
-5.1104182677165353
11
3.0728412598425194
21
-5.1118679133858267
0
LINE
8
BLACK
6
CONTINUOUS
10
5.2618176377952759
20
-4.8874584645669295
11
5.270630905511811
21
-4.890322086614173
0
LINE
8
BLACK
6
CONTINUOUS
10
5.270630905511811
20
-4.890322086614173
11
5.2788877165354329
21
-4.8945291338582679
0
LINE
8
BLACK
6
CONTINUOUS
10
5.2788877165354329
20
-4.8945291338582679
11
5.2863847244094488
21
-4.8999760236220471
0
LINE
8
BLACK
6
CONTINUOUS
10
5.2863847244094488
20
-4.8999760236220471
11
5.2929373622047242
21
-4.9065286614173225
0
LINE
8
BLACK
6
CONTINUOUS
10
5.2929373622047242
20
-4.9065286614173225
11
5.2983842519685034
21
-4.9140256692913384
0
LINE
8
BLACK
6
CONTINUOUS
10
5.2983842519685034
20
-4.9140256692913384
11
5.3025912992125983
21
-4.9222824803149603
0
LINE
8
BLACK
6
CONTINUOUS
10
5.3025912992125983
20
-4.9222824803149603
11
5.3054549212598427
21
-4.9310957480314963
0
LINE
8
BLACK
6
CONTINUOUS
10
5.3054549212598427
20
-4.9310957480314963
11
5.3069045669291341
21
-4.9402484645669293
0
LINE
8
BLACK
6
CONTINUOUS
10
5.3069045669291341
20
-4.9402484645669293
11
5.3069045669291341
21
-4.9495153149606299
0
LINE
8
BLACK
6
CONTINUOUS
10
5.3069045669291341
20
-4.9495153149606299
11
5.3054549212598427
21
-4.9586680314960629
0
LINE
8
BLACK
6
CONTINUOUS
10
5.3054549212598427
20
-4.9586680314960629
11
5.3025912992125983
21
-4.9674812992125981
0
LINE
8
BLACK
6
CONTINUOUS
10
5.3025912992125983
20
-4.9674812992125981
11
5.2983842519685034
21
-4.9757381102362199
0
LINE
8
BLACK
6
CONTINUOUS
10
5.2983842519685034
20
-4.9757381102362199
11
5.2929373622047242
21
-4.9832351181102359
0
LINE
8
BLACK
6
CONTINUOUS
10
5.2929373622047242
20
-4.9832351181102359
11
5.2863847244094488
21
-4.9897877559055113
0
LINE
8
BLACK
6
CONTINUOUS
10
5.2863847244094488
20
-4.9897877559055113
11
5.2788877165354329
21
-4.9952346456692913
0
LINE
8
BLACK
6
CONTINUOUS
10
5.2788877165354329
20
-4.9952346456692913
11
5.270630905511811
21
-4.9994416929133854
0
LINE
8
BLACK
6
CONTINUOUS
10
5.270630905511811
20
-4.9994416929133854
11
5.2618176377952759
21
-5.0023053149606298
0
LINE
8
BLACK
6
CONTINUOUS
10
5.2618176377952759
20
-5.0023053149606298
11
5.252664921259842
21
-5.0037549606299212
0
LINE
8
BLACK
6
CONTINUOUS
10
5.252664921259842
20
-5.0037549606299212
11
5.2433980708661414
21
-5.0037549606299212
0
LINE
8
BLACK
6
CONTINUOUS
10
5.2433980708661414
20
-5.0037549606299212
11
5.2342453543307084
21
-5.0023053149606298
0
LINE
8
BLACK
6
CONTINUOUS
10
5.2342453543307084
20
-5.0023053149606298
11
5.2254320866141732
21
-4.9994416929133854
0
LINE
8
BLACK
6
CONTINUOUS
10
5.2254320866141732
20
-4.9994416929133854
11
5.2171752755905514
21
-4.9952346456692913
0
LINE
8
BLACK
6
CONTINUOUS
10
5.2171752755905514
20
-4.9952346456692913
11
5.2096782677165354
21
-4.9897877559055113
0
LINE
8
BLACK
6
CONTINUOUS
10
5.2096782677165354
20
-4.9897877559055113
11
5.20312562992126
21
-4.9832351181102359
0
LINE
8
BLACK
6
CONTINUOUS
10
5.20312562992126
20
-4.9832351181102359
11
5.19767874015748
21
-4.9757381102362199
0
LINE
8
BLACK
6
CONTINUOUS
10
5.19767874015748
20
-4.9757381102362199
11
5.193471692913386
21
-4.9674812992125981
0
LINE
8
BLACK
6
CONTINUOUS
10
5.193471692913386
20
-4.9674812992125981
11
5.1906080708661415
21
-4.9586680314960629
0
LINE
8
BLACK
6
CONTINUOUS
10
5.1906080708661415
20
-4.9586680314960629
11
5.1891584251968501
21
-4.9495153149606299
0
LINE
8
BLACK
6
CONTINUOUS
10
5.1891584251968501
20
-4.9495153149606299
11
5.1891584251968501
21
-4.9402484645669293
0
LINE
8
BLACK
6
CONTINUOUS
10
5.1891584251968501
20
-4.9402484645669293
11
5.1906080708661415
21
-4.9310957480314963
0
LINE
8
BLACK
6
CONTINUOUS
10
5.1906080708661415
20
-4.9310957480314963
11
5.193471692913386
21
-4.9222824803149603
0
LINE
8
BLACK
6
CONTINUOUS
10
5.193471692913386
20
-4.9222824803149603
11
5.19767874015748
21
-4.9140256692913384
0
LINE
8
BLACK
6
CONTINUOUS
10
5.19767874015748
20
-4.9140256692913384
11
5.20312562992126
21
-4.9065286614173225
0
LINE
8
BLACK
6
CONTINUOUS
10
5.20312562992126
20
-4.9065286614173225
11
5.2096782677165354
21
-4.8999760236220471
0
LINE
8
BLACK
6
CONTINUOUS
10
5.2096782677165354
20
-4.8999760236220471
11
5.2171752755905514
21
-4.8945291338582679
0
LINE
8
BLACK
6
CONTINUOUS
10
5.2171752755905514
20
-4.8945291338582679
11
5.2254320866141732
21
-4.890322086614173
0
LINE
8
BLACK
6
CONTINUOUS
10
5.2254320866141732
20
-4.890322086614173
11
5.2342453543307084
21
-4.8874584645669295
0
LINE
8
BLACK
6
CONTINUOUS
10
5.2342453543307084
20
-4.8874584645669295
11
5.2433980708661414
21
-4.8860088188976381
0
LINE
8
BLACK
6
CONTINUOUS
10
5.2433980708661414
20
-4.8860088188976381
11
5.252664921259842
21
-4.8860088188976381
0
LINE
8
BLACK
6
CONTINUOUS
10
5.252664921259842
20
-4.8860088188976381
11
5.2618176377952759
21
-4.8874584645669295
0
LINE
8
BLACK
6
CONTINUOUS
10
6.2028113385826771
20
-4.5422687401574802
11
6.2115164960629921
21
-4.5446012598425192
0
LINE
8
BLACK
6
CONTINUOUS
10
6.2115164960629921
20
-4.5446012598425192
11
6.2198427165354326
21
-4.5480501181102362
0
LINE
8
BLACK
6
CONTINUOUS
10
6.2198427165354326
20
-4.5480501181102362
11
6.2276475590551179
21
-4.5525562204724412
0
LINE
8
BLACK
6
CONTINUOUS
10
6.2276475590551179
20
-4.5525562204724412
11
6.2347974409448819
21
-4.5580425196850394
0
LINE
8
BLACK
6
CONTINUOUS
10
6.2347974409448819
20
-4.5580425196850394
11
6.2411700787401569
21
-4.5644151574803145
0
LINE
8
BLACK
6
CONTINUOUS
10
6.2411700787401569
20
-4.5644151574803145
11
6.246656377952756
21
-4.5715650393700784
0
LINE
8
BLACK
6
CONTINUOUS
10
6.246656377952756
20
-4.5715650393700784
11
6.2511624803149601
21
-4.5793698818897637
0
LINE
8
BLACK
6
CONTINUOUS
10
6.2511624803149601
20
-4.5793698818897637
11
6.2546113385826771
21
-4.5876961023622043
0
LINE
8
BLACK
6
CONTINUOUS
10
6.2546113385826771
20
-4.5876961023622043
11
6.2569438582677162
21
-4.5964012598425192
0
LINE
8
BLACK
6
CONTINUOUS
10
6.2569438582677162
20
-4.5964012598425192
11
6.2581201968503937
21
-4.6053364173228344
0
LINE
8
BLACK
6
CONTINUOUS
10
6.2581201968503937
20
-4.6053364173228344
11
6.2581201968503937
21
-4.6143486220472436
0
LINE
8
BLACK
6
CONTINUOUS
10
6.2581201968503937
20
-4.6143486220472436
11
6.2569438582677162
21
-4.6232837795275588
0
LINE
8
BLACK
6
CONTINUOUS
10
6.2569438582677162
20
-4.6232837795275588
11
6.2546113385826771
21
-4.6319889370078737
0
LINE
8
BLACK
6
CONTINUOUS
10
6.2546113385826771
20
-4.6319889370078737
11
6.2511624803149601
21
-4.6403151574803152
0
LINE
8
BLACK
6
CONTINUOUS
10
6.2511624803149601
20
-4.6403151574803152
11
6.246656377952756
21
-4.6481199999999996
0
LINE
8
BLACK
6
CONTINUOUS
10
6.246656377952756
20
-4.6481199999999996
11
6.2411700787401569
21
-4.6552698818897635
0
LINE
8
BLACK
6
CONTINUOUS
10
6.2411700787401569
20
-4.6552698818897635
11
6.2347974409448819
21
-4.6616425196850395
0
LINE
8
BLACK
6
CONTINUOUS
10
6.2347974409448819
20
-4.6616425196850395
11
6.2276475590551179
21
-4.6671288188976376
0
LINE
8
BLACK
6
CONTINUOUS
10
6.2276475590551179
20
-4.6671288188976376
11
6.2198427165354326
21
-4.6716349212598427
0
LINE
8
BLACK
6
CONTINUOUS
10
6.2198427165354326
20
-4.6716349212598427
11
6.2115164960629921
21
-4.6750837795275588
0
LINE
8
BLACK
6
CONTINUOUS
10
6.2115164960629921
20
-4.6750837795275588
11
6.2028113385826771
21
-4.6774162992125987
0
LINE
8
BLACK
6
CONTINUOUS
10
6.2028113385826771
20
-4.6774162992125987
11
6.1938761811023619
21
-4.6785926377952753
0
LINE
8
BLACK
6
CONTINUOUS
10
6.1938761811023619
20
-4.6785926377952753
11
6.1848639763779527
21
-4.6785926377952753
0
LINE
8
BLACK
6
CONTINUOUS
10
6.1848639763779527
20
-4.6785926377952753
11
6.1759288188976376
21
-4.6774162992125987
0
LINE
8
BLACK
6
CONTINUOUS
10
6.1759288188976376
20
-4.6774162992125987
11
6.1672236614173226
21
-4.6750837795275588
0
LINE
8
BLACK
6
CONTINUOUS
10
6.1672236614173226
20
-4.6750837795275588
11
6.158897440944882
21
-4.6716349212598427
0
LINE
8
BLACK
6
CONTINUOUS
10
6.158897440944882
20
-4.6716349212598427
11
6.1510925984251967
21
-4.6671288188976376
0
LINE
8
BLACK
6
CONTINUOUS
10
6.1510925984251967
20
-4.6671288188976376
11
6.1439427165354328
21
-4.6616425196850395
0
LINE
8
BLACK
6
CONTINUOUS
10
6.1439427165354328
20
-4.6616425196850395
11
6.1375700787401577
21
-4.6552698818897635
0
LINE
8
BLACK
6
CONTINUOUS
10
6.1375700787401577
20
-4.6552698818897635
11
6.1320837795275587
21
-4.6481199999999996
0
LINE
8
BLACK
6
CONTINUOUS
10
6.1320837795275587
20
-4.6481199999999996
11
6.1275776771653545
21
-4.6403151574803152
0
LINE
8
BLACK
6
CONTINUOUS
10
6.1275776771653545
20
-4.6403151574803152
11
6.1241288188976375
21
-4.6319889370078737
0
LINE
8
BLACK
6
CONTINUOUS
10
6.1241288188976375
20
-4.6319889370078737
11
6.1217962992125985
21
-4.6232837795275588
0
LINE
8
BLACK
6
CONTINUOUS
10
6.1217962992125985
20
-4.6232837795275588
11
6.120619960629921
21
-4.6143486220472436
0
LINE
8
BLACK
6
CONTINUOUS
10
6.120619960629921
20
-4.6143486220472436
11
6.120619960629921
21
-4.6053364173228344
0
LINE
8
BLACK
6
CONTINUOUS
10
6.120619960629921
20
-4.6053364173228344
11
6.1217962992125985
21
-4.5964012598425192
0
LINE
8
BLACK
6
CONTINUOUS
10
6.1217962992125985
20
-4.5964012598425192
11
6.1241288188976375
21
-4.5876961023622043
0
LINE
8
BLACK
6
CONTINUOUS
10
6.1241288188976375
20
-4.5876961023622043
11
6.1275776771653545
21
-4.5793698818897637
0
LINE
8
BLACK
6
CONTINUOUS
10
6.1275776771653545
20
-4.5793698818897637
11
6.1320837795275587
21
-4.5715650393700784
0
LINE
8
BLACK
6
CONTINUOUS
10
6.1320837795275587
20
-4.5715650393700784
11
6.1375700787401577
21
-4.5644151574803145
0
LINE
8
BLACK
6
CONTINUOUS
10
6.1375700787401577
20
-4.5644151574803145
11
6.1439427165354328
21
-4.5580425196850394
0
LINE
8
BLACK
6
CONTINUOUS
10
6.1439427165354328
20
-4.5580425196850394
11
6.1510925984251967
21
-4.5525562204724412
0
LINE
8
BLACK
6
CONTINUOUS
10
6.1510925984251967
20
-4.5525562204724412
11
6.158897440944882
21
-4.5480501181102362
0
LINE
8
BLACK
6
CONTINUOUS
10
6.158897440944882
20
-4.5480501181102362
11
6.1672236614173226
21
-4.5446012598425192
0
LINE
8
BLACK
6
CONTINUOUS
10
6.1672236614173226
20
-4.5446012598425192
11
6.1759288188976376
21
-4.5422687401574802
0
LINE
8
BLACK
6
CONTINUOUS
10
6.1759288188976376
20
-4.5422687401574802
11
6.1848639763779527
21
-4.5410924015748027
0
LINE
8
BLACK
6
CONTINUOUS
10
6.1848639763779527
20
-4.5410924015748027
11
6.1938761811023619
21
-4.5410924015748027
0
LINE
8
BLACK
6
CONTINUOUS
10
6.1938761811023619
20
-4.5410924015748027
11
6.2028113385826771
21
-4.5422687401574802
0
LINE
8
BLACK
6
CONTINUOUS
10
3.8775590551181103
20
-4.0767716535433074
11
3.8106299212598422
21
-4.0767716535433074
0
LINE
8
BLACK
6
CONTINUOUS
10
3.8106299212598422
20
-4.0767716535433074
11
3.8106299212598422
21
-4.0098425196850389
0
LINE
8
BLACK
6
CONTINUOUS
10
3.8106299212598422
20
-4.0098425196850389
11
3.8775590551181103
21
-4.0098425196850389
0
LINE
8
BLACK
6
CONTINUOUS
10
3.8775590551181103
20
-4.0098425196850389
11
3.8775590551181103
21
-4.0767716535433074
0
LINE
8
BLACK
6
CONTINUOUS
10
3.9538087401574802
20
-4.0112835039370074
11
3.9598695669291337
21
-4.0137939763779524
0
LINE
8
BLACK
6
CONTINUOUS
10
3.9598695669291337
20
-4.0137939763779524
11
3.9653241732283462
21
-4.0174386220472442
0
LINE
8
BLACK
6
CONTINUOUS
10
3.9653241732283462
20
-4.0174386220472442
11
3.9699629527559055
21
-4.0220774015748031
0
LINE
8
BLACK
6
CONTINUOUS
10
3.9699629527559055
20
-4.0220774015748031
11
3.9736075984251968
21
-4.027532007874016
0
LINE
8
BLACK
6
CONTINUOUS
10
3.9736075984251968
20
-4.027532007874016
11
3.9761180708661414
21
-4.0335928346456695
0
LINE
8
BLACK
6
CONTINUOUS
10
3.9761180708661414
20
-4.0335928346456695
11
3.9773979133858268
21
-4.0400269685039367
0
LINE
8
BLACK
6
CONTINUOUS
10
3.9773979133858268
20
-4.0400269685039367
11
3.9773979133858268
21
-4.0465872047244096
0
LINE
8
BLACK
6
CONTINUOUS
10
3.9773979133858268
20
-4.0465872047244096
11
3.9761180708661414
21
-4.0530213385826768
0
LINE
8
BLACK
6
CONTINUOUS
10
3.9761180708661414
20
-4.0530213385826768
11
3.9736075984251968
21
-4.0590821653543303
0
LINE
8
BLACK
6
CONTINUOUS
10
3.9736075984251968
20
-4.0590821653543303
11
3.9699629527559055
21
-4.0645367716535432
0
LINE
8
BLACK
6
CONTINUOUS
10
3.9699629527559055
20
-4.0645367716535432
11
3.9653241732283462
21
-4.0691755511811021
0
LINE
8
BLACK
6
CONTINUOUS
10
3.9653241732283462
20
-4.0691755511811021
11
3.9598695669291337
21
-4.0728201968503939
0
LINE
8
BLACK
6
CONTINUOUS
10
3.9598695669291337
20
-4.0728201968503939
11
3.9538087401574802
21
-4.0753306692913389
0
LINE
8
BLACK
6
CONTINUOUS
10
3.9538087401574802
20
-4.0753306692913389
11
3.9473746062992126
21
-4.0766105118110234
0
LINE
8
BLACK
6
CONTINUOUS
10
3.9473746062992126
20
-4.0766105118110234
11
3.9408143700787401
21
-4.0766105118110234
0
LINE
8
BLACK
6
CONTINUOUS
10
3.9408143700787401
20
-4.0766105118110234
11
3.9343802362204725
21
-4.0753306692913389
0
LINE
8
BLACK
6
CONTINUOUS
10
3.9343802362204725
20
-4.0753306692913389
11
3.928319409448819
21
-4.0728201968503939
0
LINE
8
BLACK
6
CONTINUOUS
10
3.928319409448819
20
-4.0728201968503939
11
3.9228648031496061
21
-4.0691755511811021
0
LINE
8
BLACK
6
CONTINUOUS
10
3.9228648031496061
20
-4.0691755511811021
11
3.9182260236220472
21
-4.0645367716535432
0
LINE
8
BLACK
6
CONTINUOUS
10
3.9182260236220472
20
-4.0645367716535432
11
3.9145813779527558
21
-4.0590821653543303
0
LINE
8
BLACK
6
CONTINUOUS
10
3.9145813779527558
20
-4.0590821653543303
11
3.9120709055118108
21
-4.0530213385826768
0
LINE
8
BLACK
6
CONTINUOUS
10
3.9120709055118108
20
-4.0530213385826768
11
3.9107910629921259
21
-4.0465872047244096
0
LINE
8
BLACK
6
CONTINUOUS
10
3.9107910629921259
20
-4.0465872047244096
11
3.9107910629921259
21
-4.0400269685039367
0
LINE
8
BLACK
6
CONTINUOUS
10
3.9107910629921259
20
-4.0400269685039367
11
3.9120709055118108
21
-4.0335928346456695
0
LINE
8
BLACK
6
CONTINUOUS
10
3.9120709055118108
20
-4.0335928346456695
11
3.9145813779527558
21
-4.027532007874016
0
LINE
8
BLACK
6
CONTINUOUS
10
3.9145813779527558
20
-4.027532007874016
11
3.9182260236220472
21
-4.0220774015748031
0
LINE
8
BLACK
6
CONTINUOUS
10
3.9182260236220472
20
-4.0220774015748031
11
3.9228648031496061
21
-4.0174386220472442
0
LINE
8
BLACK
6
CONTINUOUS
10
3.9228648031496061
20
-4.0174386220472442
11
3.928319409448819
21
-4.0137939763779524
0
LINE
8
BLACK
6
CONTINUOUS
10
3.928319409448819
20
-4.0137939763779524
11
3.9343802362204725
21
-4.0112835039370074
0
LINE
8
BLACK
6
CONTINUOUS
10
3.9343802362204725
20
-4.0112835039370074
11
3.9408143700787401
21
-4.0100036614173229
0
LINE
8
BLACK
6
CONTINUOUS
10
3.9408143700787401
20
-4.0100036614173229
11
3.9473746062992126
21
-4.0100036614173229
0
LINE
8
BLACK
6
CONTINUOUS
10
3.9473746062992126
20
-4.0100036614173229
11
3.9538087401574802
21
-4.0112835039370074
0
LINE
8
BLACK
6
CONTINUOUS
10
4.0538087401574803
20
-4.0112835039370074
11
4.0598695669291338
21
-4.0137939763779524
0
LINE
8
BLACK
6
CONTINUOUS
10
4.0598695669291338
20
-4.0137939763779524
11
4.0653241732283467
21
-4.0174386220472442
0
LINE
8
BLACK
6
CONTINUOUS
10
4.0653241732283467
20
-4.0174386220472442
11
4.0699629527559056
21
-4.0220774015748031
0
LINE
8
BLACK
6
CONTINUOUS
10
4.0699629527559056
20
-4.0220774015748031
11
4.0736075984251965
21
-4.027532007874016
0
LINE
8
BLACK
6
CONTINUOUS
10
4.0736075984251965
20
-4.027532007874016
11
4.0761180708661415
21
-4.0335928346456695
0
LINE
8
BLACK
6
CONTINUOUS
10
4.0761180708661415
20
-4.0335928346456695
11
4.0773979133858269
21
-4.0400269685039367
0
LINE
8
BLACK
6
CONTINUOUS
10
4.0773979133858269
20
-4.0400269685039367
11
4.0773979133858269
21
-4.0465872047244096
0
LINE
8
BLACK
6
CONTINUOUS
10
4.0773979133858269
20
-4.0465872047244096
11
4.0761180708661415
21
-4.0530213385826768
0
LINE
8
BLACK
6
CONTINUOUS
10
4.0761180708661415
20
-4.0530213385826768
11
4.0736075984251965
21
-4.0590821653543303
0
LINE
8
BLACK
6
CONTINUOUS
10
4.0736075984251965
20
-4.0590821653543303
11
4.0699629527559056
21
-4.0645367716535432
0
LINE
8
BLACK
6
CONTINUOUS
10
4.0699629527559056
20
-4.0645367716535432
11
4.0653241732283467
21
-4.0691755511811021
0
LINE
8
BLACK
6
CONTINUOUS
10
4.0653241732283467
20
-4.0691755511811021
11
4.0598695669291338
21
-4.0728201968503939
0
LINE
8
BLACK
6
CONTINUOUS
10
4.0598695669291338
20
-4.0728201968503939
11
4.0538087401574803
21
-4.0753306692913389
0
LINE
8
BLACK
6
CONTINUOUS
10
4.0538087401574803
20
-4.0753306692913389
11
4.0473746062992122
21
-4.0766105118110234
0
LINE
8
BLACK
6
CONTINUOUS
10
4.0473746062992122
20
-4.0766105118110234
11
4.0408143700787402
21
-4.0766105118110234
0
LINE
8
BLACK
6
CONTINUOUS
10
4.0408143700787402
20
-4.0766105118110234
11
4.0343802362204721
21
-4.0753306692913389
0
LINE
8
BLACK
6
CONTINUOUS
10
4.0343802362204721
20
-4.0753306692913389
11
4.0283194094488186
21
-4.0728201968503939
0
LINE
8
BLACK
6
CONTINUOUS
10
4.0283194094488186
20
-4.0728201968503939
11
4.0228648031496066
21
-4.0691755511811021
0
LINE
8
BLACK
6
CONTINUOUS
10
4.0228648031496066
20
-4.0691755511811021
11
4.0182260236220468
21
-4.0645367716535432
0
LINE
8
BLACK
6
CONTINUOUS
10
4.0182260236220468
20
-4.0645367716535432
11
4.0145813779527559
21
-4.0590821653543303
0
LINE
8
BLACK
6
CONTINUOUS
10
4.0145813779527559
20
-4.0590821653543303
11
4.0120709055118109
21
-4.0530213385826768
0
LINE
8
BLACK
6
CONTINUOUS
10
4.0120709055118109
20
-4.0530213385826768
11
4.0107910629921255
21
-4.0465872047244096
0
LINE
8
BLACK
6
CONTINUOUS
10
4.0107910629921255
20
-4.0465872047244096
11
4.0107910629921255
21
-4.0400269685039367
0
LINE
8
BLACK
6
CONTINUOUS
10
4.0107910629921255
20
-4.0400269685039367
11
4.0120709055118109
21
-4.0335928346456695
0
LINE
8
BLACK
6
CONTINUOUS
10
4.0120709055118109
20
-4.0335928346456695
11
4.0145813779527559
21
-4.027532007874016
0
LINE
8
BLACK
6
CONTINUOUS
10
4.0145813779527559
20
-4.027532007874016
11
4.0182260236220468
21
-4.0220774015748031
0
LINE
8
BLACK
6
CONTINUOUS
10
4.0182260236220468
20
-4.0220774015748031
11
4.0228648031496066
21
-4.0174386220472442
0
LINE
8
BLACK
6
CONTINUOUS
10
4.0228648031496066
20
-4.0174386220472442
11
4.0283194094488186
21
-4.0137939763779524
0
LINE
8
BLACK
6
CONTINUOUS
10
4.0283194094488186
20
-4.0137939763779524
11
4.0343802362204721
21
-4.0112835039370074
0
LINE
8
BLACK
6
CONTINUOUS
10
4.0343802362204721
20
-4.0112835039370074
11
4.0408143700787402
21
-4.0100036614173229
0
LINE
8
BLACK
6
CONTINUOUS
10
4.0408143700787402
20
-4.0100036614173229
11
4.0473746062992122
21
-4.0100036614173229
0
LINE
8
BLACK
6
CONTINUOUS
10
4.0473746062992122
20
-4.0100036614173229
11
4.0538087401574803
21
-4.0112835039370074
0
LINE
8
BLACK
6
CONTINUOUS
10
4.1538087401574799
20
-4.0112835039370074
11
4.1598695669291335
21
-4.0137939763779524
0
LINE
8
BLACK
6
CONTINUOUS
10
4.1598695669291335
20
-4.0137939763779524
11
4.1653241732283464
21
-4.0174386220472442
0
LINE
8
BLACK
6
CONTINUOUS
10
4.1653241732283464
20
-4.0174386220472442
11
4.1699629527559052
21
-4.0220774015748031
0
LINE
8
BLACK
6
CONTINUOUS
10
4.1699629527559052
20
-4.0220774015748031
11
4.173607598425197
21
-4.027532007874016
0
LINE
8
BLACK
6
CONTINUOUS
10
4.173607598425197
20
-4.027532007874016
11
4.1761180708661421
21
-4.0335928346456695
0
LINE
8
BLACK
6
CONTINUOUS
10
4.1761180708661421
20
-4.0335928346456695
11
4.1773979133858266
21
-4.0400269685039367
0
LINE
8
BLACK
6
CONTINUOUS
10
4.1773979133858266
20
-4.0400269685039367
11
4.1773979133858266
21
-4.0465872047244096
0
LINE
8
BLACK
6
CONTINUOUS
10
4.1773979133858266
20
-4.0465872047244096
11
4.1761180708661421
21
-4.0530213385826768
0
LINE
8
BLACK
6
CONTINUOUS
10
4.1761180708661421
20
-4.0530213385826768
11
4.173607598425197
21
-4.0590821653543303
0
LINE
8
BLACK
6
CONTINUOUS
10
4.173607598425197
20
-4.0590821653543303
11
4.1699629527559052
21
-4.0645367716535432
0
LINE
8
BLACK
6
CONTINUOUS
10
4.1699629527559052
20
-4.0645367716535432
11
4.1653241732283464
21
-4.0691755511811021
0
LINE
8
BLACK
6
CONTINUOUS
10
4.1653241732283464
20
-4.0691755511811021
11
4.1598695669291335
21
-4.0728201968503939
0
LINE
8
BLACK
6
CONTINUOUS
10
4.1598695669291335
20
-4.0728201968503939
11
4.1538087401574799
21
-4.0753306692913389
0
LINE
8
BLACK
6
CONTINUOUS
10
4.1538087401574799
20
-4.0753306692913389
11
4.1473746062992127
21
-4.0766105118110234
0
LINE
8
BLACK
6
CONTINUOUS
10
4.1473746062992127
20
-4.0766105118110234
11
4.1408143700787399
21
-4.0766105118110234
0
LINE
8
BLACK
6
CONTINUOUS
10
4.1408143700787399
20
-4.0766105118110234
11
4.1343802362204727
21
-4.0753306692913389
0
LINE
8
BLACK
6
CONTINUOUS
10
4.1343802362204727
20
-4.0753306692913389
11
4.1283194094488191
21
-4.0728201968503939
0
LINE
8
BLACK
6
CONTINUOUS
10
4.1283194094488191
20
-4.0728201968503939
11
4.1228648031496062
21
-4.0691755511811021
0
LINE
8
BLACK
6
CONTINUOUS
10
4.1228648031496062
20
-4.0691755511811021
11
4.1182260236220474
21
-4.0645367716535432
0
LINE
8
BLACK
6
CONTINUOUS
10
4.1182260236220474
20
-4.0645367716535432
11
4.1145813779527556
21
-4.0590821653543303
0
LINE
8
BLACK
6
CONTINUOUS
10
4.1145813779527556
20
-4.0590821653543303
11
4.1120709055118105
21
-4.0530213385826768
0
LINE
8
BLACK
6
CONTINUOUS
10
4.1120709055118105
20
-4.0530213385826768
11
4.110791062992126
21
-4.0465872047244096
0
LINE
8
BLACK
6
CONTINUOUS
10
4.110791062992126
20
-4.0465872047244096
11
4.110791062992126
21
-4.0400269685039367
0
LINE
8
BLACK
6
CONTINUOUS
10
4.110791062992126
20
-4.0400269685039367
11
4.1120709055118105
21
-4.0335928346456695
0
LINE
8
BLACK
6
CONTINUOUS
10
4.1120709055118105
20
-4.0335928346456695
11
4.1145813779527556
21
-4.027532007874016
0
LINE
8
BLACK
6
CONTINUOUS
10
4.1145813779527556
20
-4.027532007874016
11
4.1182260236220474
21
-4.0220774015748031
0
LINE
8
BLACK
6
CONTINUOUS
10
4.1182260236220474
20
-4.0220774015748031
11
4.1228648031496062
21
-4.0174386220472442
0
LINE
8
BLACK
6
CONTINUOUS
10
4.1228648031496062
20
-4.0174386220472442
11
4.1283194094488191
21
-4.0137939763779524
0
LINE
8
BLACK
6
CONTINUOUS
10
4.1283194094488191
20
-4.0137939763779524
11
4.1343802362204727
21
-4.0112835039370074
0
LINE
8
BLACK
6
CONTINUOUS
10
4.1343802362204727
20
-4.0112835039370074
11
4.1408143700787399
21
-4.0100036614173229
0
LINE
8
BLACK
6
CONTINUOUS
10
4.1408143700787399
20
-4.0100036614173229
11
4.1473746062992127
21
-4.0100036614173229
0
LINE
8
BLACK
6
CONTINUOUS
10
4.1473746062992127
20
-4.0100036614173229
11
4.1538087401574799
21
-4.0112835039370074
0
LINE
8
BLACK
6
CONTINUOUS
10
6.2106365354330704
20
-3.4740726377952753
11
6.2194498031496064
21
-3.4769362598425197
0
LINE
8
BLACK
6
CONTINUOUS
10
6.2194498031496064
20
-3.4769362598425197
11
6.2277066141732282
21
-3.4811433070866142
0
LINE
8
BLACK
6
CONTINUOUS
10
6.2277066141732282
20
-3.4811433070866142
11
6.2352036220472442
21
-3.4865901968503938
0
LINE
8
BLACK
6
CONTINUOUS
10
6.2352036220472442
20
-3.4865901968503938
11
6.2417562598425196
21
-3.4931428346456692
0
LINE
8
BLACK
6
CONTINUOUS
10
6.2417562598425196
20
-3.4931428346456692
11
6.2472031496062987
21
-3.5006398425196847
0
LINE
8
BLACK
6
CONTINUOUS
10
6.2472031496062987
20
-3.5006398425196847
11
6.2514101968503937
21
-3.508896653543307
0
LINE
8
BLACK
6
CONTINUOUS
10
6.2514101968503937
20
-3.508896653543307
11
6.2542738188976372
21
-3.5177099212598426
0
LINE
8
BLACK
6
CONTINUOUS
10
6.2542738188976372
20
-3.5177099212598426
11
6.2557234645669286
21
-3.5268626377952756
0
LINE
8
BLACK
6
CONTINUOUS
10
6.2557234645669286
20
-3.5268626377952756
11
6.2557234645669286
21
-3.5361294881889762
0
LINE
8
BLACK
6
CONTINUOUS
10
6.2557234645669286
20
-3.5361294881889762
11
6.2542738188976372
21
-3.5452822047244092
0
LINE
8
BLACK
6
CONTINUOUS
10
6.2542738188976372
20
-3.5452822047244092
11
6.2514101968503937
21
-3.5540954724409448
0
LINE
8
BLACK
6
CONTINUOUS
10
6.2514101968503937
20
-3.5540954724409448
11
6.2472031496062987
21
-3.5623522834645667
0
LINE
8
BLACK
6
CONTINUOUS
10
6.2472031496062987
20
-3.5623522834645667
11
6.2417562598425196
21
-3.5698492913385826
0
LINE
8
BLACK
6
CONTINUOUS
10
6.2417562598425196
20
-3.5698492913385826
11
6.2352036220472442
21
-3.576401929133858
0
LINE
8
BLACK
6
CONTINUOUS
10
6.2352036220472442
20
-3.576401929133858
11
6.2277066141732282
21
-3.5818488188976376
0
LINE
8
BLACK
6
CONTINUOUS
10
6.2277066141732282
20
-3.5818488188976376
11
6.2194498031496064
21
-3.5860558661417321
0
LINE
8
BLACK
6
CONTINUOUS
10
6.2194498031496064
20
-3.5860558661417321
11
6.2106365354330704
21
-3.5889194881889761
0
LINE
8
BLACK
6
CONTINUOUS
10
6.2106365354330704
20
-3.5889194881889761
11
6.2014838188976373
21
-3.5903691338582675
0
LINE
8
BLACK
6
CONTINUOUS
10
6.2014838188976373
20
-3.5903691338582675
11
6.1922169685039368
21
-3.5903691338582675
0
LINE
8
BLACK
6
CONTINUOUS
10
6.1922169685039368
20
-3.5903691338582675
11
6.1830642519685037
21
-3.5889194881889761
0
LINE
8
BLACK
6
CONTINUOUS
10
6.1830642519685037
20
-3.5889194881889761
11
6.1742509842519686
21
-3.5860558661417321
0
LINE
8
BLACK
6
CONTINUOUS
10
6.1742509842519686
20
-3.5860558661417321
11
6.1659941732283468
21
-3.5818488188976376
0
LINE
8
BLACK
6
CONTINUOUS
10
6.1659941732283468
20
-3.5818488188976376
11
6.1584971653543308
21
-3.576401929133858
0
LINE
8
BLACK
6
CONTINUOUS
10
6.1584971653543308
20
-3.576401929133858
11
6.1519445275590554
21
-3.5698492913385826
0
LINE
8
BLACK
6
CONTINUOUS
10
6.1519445275590554
20
-3.5698492913385826
11
6.1464976377952754
21
-3.5623522834645667
0
LINE
8
BLACK
6
CONTINUOUS
10
6.1464976377952754
20
-3.5623522834645667
11
6.1422905905511813
21
-3.5540954724409448
0
LINE
8
BLACK
6
CONTINUOUS
10
6.1422905905511813
20
-3.5540954724409448
11
6.1394269685039369
21
-3.5452822047244092
0
LINE
8
BLACK
6
CONTINUOUS
10
6.1394269685039369
20
-3.5452822047244092
11
6.1379773228346455
21
-3.5361294881889762
0
LINE
8
BLACK
6
CONTINUOUS
10
6.1379773228346455
20
-3.5361294881889762
11
6.1379773228346455
21
-3.5268626377952756
0
LINE
8
BLACK
6
CONTINUOUS
10
6.1379773228346455
20
-3.5268626377952756
11
6.1394269685039369
21
-3.5177099212598426
0
LINE
8
BLACK
6
CONTINUOUS
10
6.1394269685039369
20
-3.5177099212598426
11
6.1422905905511813
21
-3.508896653543307
0
LINE
8
BLACK
6
CONTINUOUS
10
6.1422905905511813
20
-3.508896653543307
11
6.1464976377952754
21
-3.5006398425196847
0
LINE
8
BLACK
6
CONTINUOUS
10
6.1464976377952754
20
-3.5006398425196847
11
6.1519445275590554
21
-3.4931428346456692
0
LINE
8
BLACK
6
CONTINUOUS
10
6.1519445275590554
20
-3.4931428346456692
11
6.1584971653543308
21
-3.4865901968503938
0
LINE
8
BLACK
6
CONTINUOUS
10
6.1584971653543308
20
-3.4865901968503938
11
6.1659941732283468
21
-3.4811433070866142
0
LINE
8
BLACK
6
CONTINUOUS
10
6.1659941732283468
20
-3.4811433070866142
11
6.1742509842519686
21
-3.4769362598425197
0
LINE
8
BLACK
6
CONTINUOUS
10
6.1742509842519686
20
-3.4769362598425197
11
6.1830642519685037
21
-3.4740726377952753
0
LINE
8
BLACK
6
CONTINUOUS
10
6.1830642519685037
20
-3.4740726377952753
11
6.1922169685039368
21
-3.4726229921259844
0
LINE
8
BLACK
6
CONTINUOUS
10
6.1922169685039368
20
-3.4726229921259844
11
6.2014838188976373
21
-3.4726229921259844
0
LINE
8
BLACK
6
CONTINUOUS
10
6.2014838188976373
20
-3.4726229921259844
11
6.2106365354330704
21
-3.4740726377952753
0
LINE
8
BLACK
6
CONTINUOUS
10
5.3053835433070864
20
-3.4305748425196851
11
5.3114443700787399
21
-3.4330853149606297
0
LINE
8
BLACK
6
CONTINUOUS
10
5.3114443700787399
20
-3.4330853149606297
11
5.3168989763779528
21
-3.4367299606299211
0
LINE
8
BLACK
6
CONTINUOUS
10
5.3168989763779528
20
-3.4367299606299211
11
5.3215377559055117
21
-3.4413687401574804
0
LINE
8
BLACK
6
CONTINUOUS
10
5.3215377559055117
20
-3.4413687401574804
11
5.3251824015748026
21
-3.4468233464566929
0
LINE
8
BLACK
6
CONTINUOUS
10
5.3251824015748026
20
-3.4468233464566929
11
5.3276928740157476
21
-3.4528841732283464
0
LINE
8
BLACK
6
CONTINUOUS
10
5.3276928740157476
20
-3.4528841732283464
11
5.328972716535433
21
-3.459318307086614
0
LINE
8
BLACK
6
CONTINUOUS
10
5.328972716535433
20
-3.459318307086614
11
5.328972716535433
21
-3.4658785433070864
0
LINE
8
BLACK
6
CONTINUOUS
10
5.328972716535433
20
-3.4658785433070864
11
5.3276928740157476
21
-3.4723126771653541
0
LINE
8
BLACK
6
CONTINUOUS
10
5.3276928740157476
20
-3.4723126771653541
11
5.3251824015748026
21
-3.4783735039370076
0
LINE
8
BLACK
6
CONTINUOUS
10
5.3251824015748026
20
-3.4783735039370076
11
5.3215377559055117
21
-3.4838281102362205
0
LINE
8
BLACK
6
CONTINUOUS
10
5.3215377559055117
20
-3.4838281102362205
11
5.3168989763779528
21
-3.4884668897637794
0
LINE
8
BLACK
6
CONTINUOUS
10
5.3168989763779528
20
-3.4884668897637794
11
5.3114443700787399
21
-3.4921115354330707
0
LINE
8
BLACK
6
CONTINUOUS
10
5.3114443700787399
20
-3.4921115354330707
11
5.3053835433070864
21
-3.4946220078740158
0
LINE
8
BLACK
6
CONTINUOUS
10
5.3053835433070864
20
-3.4946220078740158
11
5.2989494094488192
21
-3.4959018503937007
0
LINE
8
BLACK
6
CONTINUOUS
10
5.2989494094488192
20
-3.4959018503937007
11
5.2923891732283463
21
-3.4959018503937007
0
LINE
8
BLACK
6
CONTINUOUS
10
5.2923891732283463
20
-3.4959018503937007
11
5.2859550393700783
21
-3.4946220078740158
0
LINE
8
BLACK
6
CONTINUOUS
10
5.2859550393700783
20
-3.4946220078740158
11
5.2798942125984247
21
-3.4921115354330707
0
LINE
8
BLACK
6
CONTINUOUS
10
5.2798942125984247
20
-3.4921115354330707
11
5.2744396062992127
21
-3.4884668897637794
0
LINE
8
BLACK
6
CONTINUOUS
10
5.2744396062992127
20
-3.4884668897637794
11
5.2698008267716538
21
-3.4838281102362205
0
LINE
8
BLACK
6
CONTINUOUS
10
5.2698008267716538
20
-3.4838281102362205
11
5.2661561811023621
21
-3.4783735039370076
0
LINE
8
BLACK
6
CONTINUOUS
10
5.2661561811023621
20
-3.4783735039370076
11
5.263645708661417
21
-3.4723126771653541
0
LINE
8
BLACK
6
CONTINUOUS
10
5.263645708661417
20
-3.4723126771653541
11
5.2623658661417325
21
-3.4658785433070864
0
LINE
8
BLACK
6
CONTINUOUS
10
5.2623658661417325
20
-3.4658785433070864
11
5.2623658661417325
21
-3.459318307086614
0
LINE
8
BLACK
6
CONTINUOUS
10
5.2623658661417325
20
-3.459318307086614
11
5.263645708661417
21
-3.4528841732283464
0
LINE
8
BLACK
6
CONTINUOUS
10
5.263645708661417
20
-3.4528841732283464
11
5.2661561811023621
21
-3.4468233464566929
0
LINE
8
BLACK
6
CONTINUOUS
10
5.2661561811023621
20
-3.4468233464566929
11
5.2698008267716538
21
-3.4413687401574804
0
LINE
8
BLACK
6
CONTINUOUS
10
5.2698008267716538
20
-3.4413687401574804
11
5.2744396062992127
21
-3.4367299606299211
0
LINE
8
BLACK
6
CONTINUOUS
10
5.2744396062992127
20
-3.4367299606299211
11
5.2798942125984247
21
-3.4330853149606297
0
LINE
8
BLACK
6
CONTINUOUS
10
5.2798942125984247
20
-3.4330853149606297
11
5.2859550393700783
21
-3.4305748425196851
0
LINE
8
BLACK
6
CONTINUOUS
10
5.2859550393700783
20
-3.4305748425196851
11
5.2923891732283463
21
-3.4292949999999998
0
LINE
8
BLACK
6
CONTINUOUS
10
5.2923891732283463
20
-3.4292949999999998
11
5.2989494094488192
21
-3.4292949999999998
0
LINE
8
BLACK
6
CONTINUOUS
10
5.2989494094488192
20
-3.4292949999999998
11
5.3053835433070864
21
-3.4305748425196851
0
LINE
8
BLACK
6
CONTINUOUS
10
8.7500066141732287
20
-3.3008442913385827
11
8.7588198818897638
21
-3.3037079133858267
0
LINE
8
BLACK
6
CONTINUOUS
10
8.7588198818897638
20
-3.3037079133858267
11
8.7670766929133848
21
-3.3079149606299212
0
LINE
8
BLACK
6
CONTINUOUS
10
8.7670766929133848
20
-3.3079149606299212
11
8.7745737007874016
21
-3.3133618503937008
0
LINE
8
BLACK
6
CONTINUOUS
10
8.7745737007874016
20
-3.3133618503937008
11
8.781126338582677
21
-3.3199144881889762
0
LINE
8
BLACK
6
CONTINUOUS
10
8.781126338582677
20
-3.3199144881889762
11
8.786573228346457
21
-3.3274114960629921
0
LINE
8
BLACK
6
CONTINUOUS
10
8.786573228346457
20
-3.3274114960629921
11
8.7907802755905511
21
-3.335668307086614
0
LINE
8
BLACK
6
CONTINUOUS
10
8.7907802755905511
20
-3.335668307086614
11
8.7936438976377946
21
-3.3444815748031496
0
LINE
8
BLACK
6
CONTINUOUS
10
8.7936438976377946
20
-3.3444815748031496
11
8.795093543307086
21
-3.3536342913385826
0
LINE
8
BLACK
6
CONTINUOUS
10
8.795093543307086
20
-3.3536342913385826
11
8.795093543307086
21
-3.3629011417322836
0
LINE
8
BLACK
6
CONTINUOUS
10
8.795093543307086
20
-3.3629011417322836
11
8.7936438976377946
21
-3.3720538582677166
0
LINE
8
BLACK
6
CONTINUOUS
10
8.7936438976377946
20
-3.3720538582677166
11
8.7907802755905511
21
-3.3808671259842518
0
LINE
8
BLACK
6
CONTINUOUS
10
8.7907802755905511
20
-3.3808671259842518
11
8.786573228346457
21
-3.3891239370078741
0
LINE
8
BLACK
6
CONTINUOUS
10
8.786573228346457
20
-3.3891239370078741
11
8.781126338582677
21
-3.3966209448818896
0
LINE
8
BLACK
6
CONTINUOUS
10
8.781126338582677
20
-3.3966209448818896
11
8.7745737007874016
21
-3.4031735826771654
0
LINE
8
BLACK
6
CONTINUOUS
10
8.7745737007874016
20
-3.4031735826771654
11
8.7670766929133848
21
-3.408620472440945
0
LINE
8
BLACK
6
CONTINUOUS
10
8.7670766929133848
20
-3.408620472440945
11
8.7588198818897638
21
-3.4128275196850395
0
LINE
8
BLACK
6
CONTINUOUS
10
8.7588198818897638
20
-3.4128275196850395
11
8.7500066141732287
21
-3.4156911417322835
0
LINE
8
BLACK
6
CONTINUOUS
10
8.7500066141732287
20
-3.4156911417322835
11
8.7408538976377947
21
-3.4171407874015749
0
LINE
8
BLACK
6
CONTINUOUS
10
8.7408538976377947
20
-3.4171407874015749
11
8.7315870472440942
21
-3.4171407874015749
0
LINE
8
BLACK
6
CONTINUOUS
10
8.7315870472440942
20
-3.4171407874015749
11
8.722434330708662
21
-3.4156911417322835
0
LINE
8
BLACK
6
CONTINUOUS
10
8.722434330708662
20
-3.4156911417322835
11
8.7136210629921251
21
-3.4128275196850395
0
LINE
8
BLACK
6
CONTINUOUS
10
8.7136210629921251
20
-3.4128275196850395
11
8.7053642519685042
21
-3.408620472440945
0
LINE
8
BLACK
6
CONTINUOUS
10
8.7053642519685042
20
-3.408620472440945
11
8.6978672440944873
21
-3.4031735826771654
0
LINE
8
BLACK
6
CONTINUOUS
10
8.6978672440944873
20
-3.4031735826771654
11
8.6913146062992119
21
-3.3966209448818896
0
LINE
8
BLACK
6
CONTINUOUS
10
8.6913146062992119
20
-3.3966209448818896
11
8.6858677165354337
21
-3.3891239370078741
0
LINE
8
BLACK
6
CONTINUOUS
10
8.6858677165354337
20
-3.3891239370078741
11
8.6816606692913378
21
-3.3808671259842518
0
LINE
8
BLACK
6
CONTINUOUS
10
8.6816606692913378
20
-3.3808671259842518
11
8.6787970472440943
21
-3.3720538582677166
0
LINE
8
BLACK
6
CONTINUOUS
10
8.6787970472440943
20
-3.3720538582677166
11
8.6773474015748029
21
-3.3629011417322836
0
LINE
8
BLACK
6
CONTINUOUS
10
8.6773474015748029
20
-3.3629011417322836
11
8.6773474015748029
21
-3.3536342913385826
0
LINE
8
BLACK
6
CONTINUOUS
10
8.6773474015748029
20
-3.3536342913385826
11
8.6787970472440943
21
-3.3444815748031496
0
LINE
8
BLACK
6
CONTINUOUS
10
8.6787970472440943
20
-3.3444815748031496
11
8.6816606692913378
21
-3.335668307086614
0
LINE
8
BLACK
6
CONTINUOUS
10
8.6816606692913378
20
-3.335668307086614
11
8.6858677165354337
21
-3.3274114960629921
0
LINE
8
BLACK
6
CONTINUOUS
10
8.6858677165354337
20
-3.3274114960629921
11
8.6913146062992119
21
-3.3199144881889762
0
LINE
8
BLACK
6
CONTINUOUS
10
8.6913146062992119
20
-3.3199144881889762
11
8.6978672440944873
21
-3.3133618503937008
0
LINE
8
BLACK
6
CONTINUOUS
10
8.6978672440944873
20
-3.3133618503937008
11
8.7053642519685042
21
-3.3079149606299212
0
LINE
8
BLACK
6
CONTINUOUS
10
8.7053642519685042
20
-3.3079149606299212
11
8.7136210629921251
21
-3.3037079133858267
0
LINE
8
BLACK
6
CONTINUOUS
10
8.7136210629921251
20
-3.3037079133858267
11
8.722434330708662
21
-3.3008442913385827
0
LINE
8
BLACK
6
CONTINUOUS
10
8.722434330708662
20
-3.3008442913385827
11
8.7315870472440942
21
-3.2993946456692913
0
LINE
8
BLACK
6
CONTINUOUS
10
8.7315870472440942
20
-3.2993946456692913
11
8.7408538976377947
21
-3.2993946456692913
0
LINE
8
BLACK
6
CONTINUOUS
10
8.7408538976377947
20
-3.2993946456692913
11
8.7500066141732287
21
-3.3008442913385827
0
LINE
8
BLACK
6
CONTINUOUS
10
5.3053835433070864
20
-3.3305748425196851
11
5.3114443700787399
21
-3.3330853149606297
0
LINE
8
BLACK
6
CONTINUOUS
10
5.3114443700787399
20
-3.3330853149606297
11
5.3168989763779528
21
-3.336729960629921
0
LINE
8
BLACK
6
CONTINUOUS
10
5.3168989763779528
20
-3.336729960629921
11
5.3215377559055117
21
-3.3413687401574803
0
LINE
8
BLACK
6
CONTINUOUS
10
5.3215377559055117
20
-3.3413687401574803
11
5.3251824015748026
21
-3.3468233464566928
0
LINE
8
BLACK
6
CONTINUOUS
10
5.3251824015748026
20
-3.3468233464566928
11
5.3276928740157476
21
-3.3528841732283463
0
LINE
8
BLACK
6
CONTINUOUS
10
5.3276928740157476
20
-3.3528841732283463
11
5.328972716535433
21
-3.3593183070866139
0
LINE
8
BLACK
6
CONTINUOUS
10
5.328972716535433
20
-3.3593183070866139
11
5.328972716535433
21
-3.3658785433070864
0
LINE
8
BLACK
6
CONTINUOUS
10
5.328972716535433
20
-3.3658785433070864
11
5.3276928740157476
21
-3.3723126771653544
0
LINE
8
BLACK
6
CONTINUOUS
10
5.3276928740157476
20
-3.3723126771653544
11
5.3251824015748026
21
-3.378373503937008
0
LINE
8
BLACK
6
CONTINUOUS
10
5.3251824015748026
20
-3.378373503937008
11
5.3215377559055117
21
-3.3838281102362204
0
LINE
8
BLACK
6
CONTINUOUS
10
5.3215377559055117
20
-3.3838281102362204
11
5.3168989763779528
21
-3.3884668897637793
0
LINE
8
BLACK
6
CONTINUOUS
10
5.3168989763779528
20
-3.3884668897637793
11
5.3114443700787399
21
-3.3921115354330706
0
LINE
8
BLACK
6
CONTINUOUS
10
5.3114443700787399
20
-3.3921115354330706
11
5.3053835433070864
21
-3.3946220078740157
0
LINE
8
BLACK
6
CONTINUOUS
10
5.3053835433070864
20
-3.3946220078740157
11
5.2989494094488192
21
-3.3959018503937006
0
LINE
8
BLACK
6
CONTINUOUS
10
5.2989494094488192
20
-3.3959018503937006
11
5.2923891732283463
21
-3.3959018503937006
0
LINE
8
BLACK
6
CONTINUOUS
10
5.2923891732283463
20
-3.3959018503937006
11
5.2859550393700783
21
-3.3946220078740157
0
LINE
8
BLACK
6
CONTINUOUS
10
5.2859550393700783
20
-3.3946220078740157
11
5.2798942125984247
21
-3.3921115354330706
0
LINE
8
BLACK
6
CONTINUOUS
10
5.2798942125984247
20
-3.3921115354330706
11
5.2744396062992127
21
-3.3884668897637793
0
LINE
8
BLACK
6
CONTINUOUS
10
5.2744396062992127
20
-3.3884668897637793
11
5.2698008267716538
21
-3.3838281102362204
0
LINE
8
BLACK
6
CONTINUOUS
10
5.2698008267716538
20
-3.3838281102362204
11
5.2661561811023621
21
-3.378373503937008
0
LINE
8
BLACK
6
CONTINUOUS
10
5.2661561811023621
20
-3.378373503937008
11
5.263645708661417
21
-3.3723126771653544
0
LINE
8
BLACK
6
CONTINUOUS
10
5.263645708661417
20
-3.3723126771653544
11
5.2623658661417325
21
-3.3658785433070864
0
LINE
8
BLACK
6
CONTINUOUS
10
5.2623658661417325
20
-3.3658785433070864
11
5.2623658661417325
21
-3.3593183070866139
0
LINE
8
BLACK
6
CONTINUOUS
10
5.2623658661417325
20
-3.3593183070866139
11
5.263645708661417
21
-3.3528841732283463
0
LINE
8
BLACK
6
CONTINUOUS
10
5.263645708661417
20
-3.3528841732283463
11
5.2661561811023621
21
-3.3468233464566928
0
LINE
8
BLACK
6
CONTINUOUS
10
5.2661561811023621
20
-3.3468233464566928
11
5.2698008267716538
21
-3.3413687401574803
0
LINE
8
BLACK
6
CONTINUOUS
10
5.2698008267716538
20
-3.3413687401574803
11
5.2744396062992127
21
-3.336729960629921
0
LINE
8
BLACK
6
CONTINUOUS
10
5.2744396062992127
20
-3.336729960629921
11
5.2798942125984247
21
-3.3330853149606297
0
LINE
8
BLACK
6
CONTINUOUS
10
5.2798942125984247
20
-3.3330853149606297
11
5.2859550393700783
21
-3.3305748425196851
0
LINE
8
BLACK
6
CONTINUOUS
10
5.2859550393700783
20
-3.3305748425196851
11
5.2923891732283463
21
-3.3292950000000001
0
LINE
8
BLACK
6
CONTINUOUS
10
5.2923891732283463
20
-3.3292950000000001
11
5.2989494094488192
21
-3.3292950000000001
0
LINE
8
BLACK
6
CONTINUOUS
10
5.2989494094488192
20
-3.3292950000000001
11
5.3053835433070864
21
-3.3305748425196851
0
LINE
8
BLACK
6
CONTINUOUS
10
2.8878018897637796
20
-3.2614742125984253
11
2.8966151574803147
21
-3.2643378346456693
0
LINE
8
BLACK
6
CONTINUOUS
10
2.8966151574803147
20
-3.2643378346456693
11
2.904871968503937
21
-3.2685448818897638
0
LINE
8
BLACK
6
CONTINUOUS
10
2.904871968503937
20
-3.2685448818897638
11
2.9123689763779526
21
-3.2739917716535434
0
LINE
8
BLACK
6
CONTINUOUS
10
2.9123689763779526
20
-3.2739917716535434
11
2.9189216141732284
21
-3.2805444094488188
0
LINE
8
BLACK
6
CONTINUOUS
10
2.9189216141732284
20
-3.2805444094488188
11
2.924368503937008
21
-3.2880414173228347
0
LINE
8
BLACK
6
CONTINUOUS
10
2.924368503937008
20
-3.2880414173228347
11
2.9285755511811025
21
-3.2962982283464566
0
LINE
8
BLACK
6
CONTINUOUS
10
2.9285755511811025
20
-3.2962982283464566
11
2.9314391732283465
21
-3.3051114960629921
0
LINE
8
BLACK
6
CONTINUOUS
10
2.9314391732283465
20
-3.3051114960629921
11
2.9328888188976379
21
-3.3142642125984252
0
LINE
8
BLACK
6
CONTINUOUS
10
2.9328888188976379
20
-3.3142642125984252
11
2.9328888188976379
21
-3.3235310629921258
0
LINE
8
BLACK
6
CONTINUOUS
10
2.9328888188976379
20
-3.3235310629921258
11
2.9314391732283465
21
-3.3326837795275588
0
LINE
8
BLACK
6
CONTINUOUS
10
2.9314391732283465
20
-3.3326837795275588
11
2.9285755511811025
21
-3.3414970472440944
0
LINE
8
BLACK
6
CONTINUOUS
10
2.9285755511811025
20
-3.3414970472440944
11
2.924368503937008
21
-3.3497538582677167
0
LINE
8
BLACK
6
CONTINUOUS
10
2.924368503937008
20
-3.3497538582677167
11
2.9189216141732284
21
-3.3572508661417322
0
LINE
8
BLACK
6
CONTINUOUS
10
2.9189216141732284
20
-3.3572508661417322
11
2.9123689763779526
21
-3.363803503937008
0
LINE
8
BLACK
6
CONTINUOUS
10
2.9123689763779526
20
-3.363803503937008
11
2.904871968503937
21
-3.3692503937007872
0
LINE
8
BLACK
6
CONTINUOUS
10
2.904871968503937
20
-3.3692503937007872
11
2.8966151574803147
21
-3.3734574409448816
0
LINE
8
BLACK
6
CONTINUOUS
10
2.8966151574803147
20
-3.3734574409448816
11
2.8878018897637796
21
-3.3763210629921261
0
LINE
8
BLACK
6
CONTINUOUS
10
2.8878018897637796
20
-3.3763210629921261
11
2.8786491732283466
21
-3.377770708661417
0
LINE
8
BLACK
6
CONTINUOUS
10
2.8786491732283466
20
-3.377770708661417
11
2.8693823228346456
21
-3.377770708661417
0
LINE
8
BLACK
6
CONTINUOUS
10
2.8693823228346456
20
-3.377770708661417
11
2.8602296062992125
21
-3.3763210629921261
0
LINE
8
BLACK
6
CONTINUOUS
10
2.8602296062992125
20
-3.3763210629921261
11
2.851416338582677
21
-3.3734574409448816
0
LINE
8
BLACK
6
CONTINUOUS
10
2.851416338582677
20
-3.3734574409448816
11
2.8431595275590551
21
-3.3692503937007872
0
LINE
8
BLACK
6
CONTINUOUS
10
2.8431595275590551
20
-3.3692503937007872
11
2.8356625196850391
21
-3.363803503937008
0
LINE
8
BLACK
6
CONTINUOUS
10
2.8356625196850391
20
-3.363803503937008
11
2.8291098818897638
21
-3.3572508661417322
0
LINE
8
BLACK
6
CONTINUOUS
10
2.8291098818897638
20
-3.3572508661417322
11
2.8236629921259842
21
-3.3497538582677167
0
LINE
8
BLACK
6
CONTINUOUS
10
2.8236629921259842
20
-3.3497538582677167
11
2.8194559448818897
21
-3.3414970472440944
0
LINE
8
BLACK
6
CONTINUOUS
10
2.8194559448818897
20
-3.3414970472440944
11
2.8165923228346457
21
-3.3326837795275588
0
LINE
8
BLACK
6
CONTINUOUS
10
2.8165923228346457
20
-3.3326837795275588
11
2.8151426771653543
21
-3.3235310629921258
0
LINE
8
BLACK
6
CONTINUOUS
10
2.8151426771653543
20
-3.3235310629921258
11
2.8151426771653543
21
-3.3142642125984252
0
LINE
8
BLACK
6
CONTINUOUS
10
2.8151426771653543
20
-3.3142642125984252
11
2.8165923228346457
21
-3.3051114960629921
0
LINE
8
BLACK
6
CONTINUOUS
10
2.8165923228346457
20
-3.3051114960629921
11
2.8194559448818897
21
-3.2962982283464566
0
LINE
8
BLACK
6
CONTINUOUS
10
2.8194559448818897
20
-3.2962982283464566
11
2.8236629921259842
21
-3.2880414173228347
0
LINE
8
BLACK
6
CONTINUOUS
10
2.8236629921259842
20
-3.2880414173228347
11
2.8291098818897638
21
-3.2805444094488188
0
LINE
8
BLACK
6
CONTINUOUS
10
2.8291098818897638
20
-3.2805444094488188
11
2.8356625196850391
21
-3.2739917716535434
0
LINE
8
BLACK
6
CONTINUOUS
10
2.8356625196850391
20
-3.2739917716535434
11
2.8431595275590551
21
-3.2685448818897638
0
LINE
8
BLACK
6
CONTINUOUS
10
2.8431595275590551
20
-3.2685448818897638
11
2.851416338582677
21
-3.2643378346456693
0
LINE
8
BLACK
6
CONTINUOUS
10
2.851416338582677
20
-3.2643378346456693
11
2.8602296062992125
21
-3.2614742125984253
0
LINE
8
BLACK
6
CONTINUOUS
10
2.8602296062992125
20
-3.2614742125984253
11
2.8693823228346456
21
-3.2600245669291339
0
LINE
8
BLACK
6
CONTINUOUS
10
2.8693823228346456
20
-3.2600245669291339
11
2.8786491732283466
21
-3.2600245669291339
0
LINE
8
BLACK
6
CONTINUOUS
10
2.8786491732283466
20
-3.2600245669291339
11
2.8878018897637796
21
-3.2614742125984253
0
LINE
8
BLACK
6
CONTINUOUS
10
5.3053835433070864
20
-3.230574842519685
11
5.3114443700787399
21
-3.23308531496063
0
LINE
8
BLACK
6
CONTINUOUS
10
5.3114443700787399
20
-3.23308531496063
11
5.3168989763779528
21
-3.2367299606299214
0
LINE
8
BLACK
6
CONTINUOUS
10
5.3168989763779528
20
-3.2367299606299214
11
5.3215377559055117
21
-3.2413687401574802
0
LINE
8
BLACK
6
CONTINUOUS
10
5.3215377559055117
20
-3.2413687401574802
11
5.3251824015748026
21
-3.2468233464566927
0
LINE
8
BLACK
6
CONTINUOUS
10
5.3251824015748026
20
-3.2468233464566927
11
5.3276928740157476
21
-3.2528841732283462
0
LINE
8
BLACK
6
CONTINUOUS
10
5.3276928740157476
20
-3.2528841732283462
11
5.328972716535433
21
-3.2593183070866143
0
LINE
8
BLACK
6
CONTINUOUS
10
5.328972716535433
20
-3.2593183070866143
11
5.328972716535433
21
-3.2658785433070867
0
LINE
8
BLACK
6
CONTINUOUS
10
5.328972716535433
20
-3.2658785433070867
11
5.3276928740157476
21
-3.2723126771653543
0
LINE
8
BLACK
6
CONTINUOUS
10
5.3276928740157476
20
-3.2723126771653543
11
5.3251824015748026
21
-3.2783735039370079
0
LINE
8
BLACK
6
CONTINUOUS
10
5.3251824015748026
20
-3.2783735039370079
11
5.3215377559055117
21
-3.2838281102362203
0
LINE
8
BLACK
6
CONTINUOUS
10
5.3215377559055117
20
-3.2838281102362203
11
5.3168989763779528
21
-3.2884668897637797
0
LINE
8
BLACK
6
CONTINUOUS
10
5.3168989763779528
20
-3.2884668897637797
11
5.3114443700787399
21
-3.292111535433071
0
LINE
8
BLACK
6
CONTINUOUS
10
5.3114443700787399
20
-3.292111535433071
11
5.3053835433070864
21
-3.2946220078740156
0
LINE
8
BLACK
6
CONTINUOUS
10
5.3053835433070864
20
-3.2946220078740156
11
5.2989494094488192
21
-3.2959018503937005
0
LINE
8
BLACK
6
CONTINUOUS
10
5.2989494094488192
20
-3.2959018503937005
11
5.2923891732283463
21
-3.2959018503937005
0
LINE
8
BLACK
6
CONTINUOUS
10
5.2923891732283463
20
-3.2959018503937005
11
5.2859550393700783
21
-3.2946220078740156
0
LINE
8
BLACK
6
CONTINUOUS
10
5.2859550393700783
20
-3.2946220078740156
11
5.2798942125984247
21
-3.292111535433071
0
LINE
8
BLACK
6
CONTINUOUS
10
5.2798942125984247
20
-3.292111535433071
11
5.2744396062992127
21
-3.2884668897637797
0
LINE
8
BLACK
6
CONTINUOUS
10
5.2744396062992127
20
-3.2884668897637797
11
5.2698008267716538
21
-3.2838281102362203
0
LINE
8
BLACK
6
CONTINUOUS
10
5.2698008267716538
20
-3.2838281102362203
11
5.2661561811023621
21
-3.2783735039370079
0
LINE
8
BLACK
6
CONTINUOUS
10
5.2661561811023621
20
-3.2783735039370079
11
5.263645708661417
21
-3.2723126771653543
0
LINE
8
BLACK
6
CONTINUOUS
10
5.263645708661417
20
-3.2723126771653543
11
5.2623658661417325
21
-3.2658785433070867
0
LINE
8
BLACK
6
CONTINUOUS
10
5.2623658661417325
20
-3.2658785433070867
11
5.2623658661417325
21
-3.2593183070866143
0
LINE
8
BLACK
6
CONTINUOUS
10
5.2623658661417325
20
-3.2593183070866143
11
5.263645708661417
21
-3.2528841732283462
0
LINE
8
BLACK
6
CONTINUOUS
10
5.263645708661417
20
-3.2528841732283462
11
5.2661561811023621
21
-3.2468233464566927
0
LINE
8
BLACK
6
CONTINUOUS
10
5.2661561811023621
20
-3.2468233464566927
11
5.2698008267716538
21
-3.2413687401574802
0
LINE
8
BLACK
6
CONTINUOUS
10
5.2698008267716538
20
-3.2413687401574802
11
5.2744396062992127
21
-3.2367299606299214
0
LINE
8
BLACK
6
CONTINUOUS
10
5.2744396062992127
20
-3.2367299606299214
11
5.2798942125984247
21
-3.23308531496063
0
LINE
8
BLACK
6
CONTINUOUS
10
5.2798942125984247
20
-3.23308531496063
11
5.2859550393700783
21
-3.230574842519685
0
LINE
8
BLACK
6
CONTINUOUS
10
5.2859550393700783
20
-3.230574842519685
11
5.2923891732283463
21
-3.229295
0
LINE
8
BLACK
6
CONTINUOUS
10
5.2923891732283463
20
-3.229295
11
5.2989494094488192
21
-3.229295
0
LINE
8
BLACK
6
CONTINUOUS
10
5.2989494094488192
20
-3.229295
11
5.3053835433070864
21
-3.230574842519685
0
LINE
8
BLACK
6
CONTINUOUS
10
7.9919977165354332
20
-3.2258504330708662
11
7.9980585433070868
21
-3.2283609055118108
0
LINE
8
BLACK
6
CONTINUOUS
10
7.9980585433070868
20
-3.2283609055118108
11
8.0035131496062988
21
-3.2320055511811021
0
LINE
8
BLACK
6
CONTINUOUS
10
8.0035131496062988
20
-3.2320055511811021
11
8.0081519291338576
21
-3.2366443307086614
0
LINE
8
BLACK
6
CONTINUOUS
10
8.0081519291338576
20
-3.2366443307086614
11
8.0117965748031494
21
-3.2420989370078739
0
LINE
8
BLACK
6
CONTINUOUS
10
8.0117965748031494
20
-3.2420989370078739
11
8.0143070472440936
21
-3.2481597637795274
0
LINE
8
BLACK
6
CONTINUOUS
10
8.0143070472440936
20
-3.2481597637795274
11
8.0155868897637799
21
-3.2545938976377951
0
LINE
8
BLACK
6
CONTINUOUS
10
8.0155868897637799
20
-3.2545938976377951
11
8.0155868897637799
21
-3.2611541338582675
0
LINE
8
BLACK
6
CONTINUOUS
10
8.0155868897637799
20
-3.2611541338582675
11
8.0143070472440936
21
-3.2675882677165355
0
LINE
8
BLACK
6
CONTINUOUS
10
8.0143070472440936
20
-3.2675882677165355
11
8.0117965748031494
21
-3.2736490944881891
0
LINE
8
BLACK
6
CONTINUOUS
10
8.0117965748031494
20
-3.2736490944881891
11
8.0081519291338576
21
-3.2791037007874015
0
LINE
8
BLACK
6
CONTINUOUS
10
8.0081519291338576
20
-3.2791037007874015
11
8.0035131496062988
21
-3.2837424803149604
0
LINE
8
BLACK
6
CONTINUOUS
10
8.0035131496062988
20
-3.2837424803149604
11
7.9980585433070868
21
-3.2873871259842518
0
LINE
8
BLACK
6
CONTINUOUS
10
7.9980585433070868
20
-3.2873871259842518
11
7.9919977165354332
21
-3.2898975984251968
0
LINE
8
BLACK
6
CONTINUOUS
10
7.9919977165354332
20
-3.2898975984251968
11
7.9855635826771652
21
-3.2911774409448817
0
LINE
8
BLACK
6
CONTINUOUS
10
7.9855635826771652
20
-3.2911774409448817
11
7.9790033464566923
21
-3.2911774409448817
0
LINE
8
BLACK
6
CONTINUOUS
10
7.9790033464566923
20
-3.2911774409448817
11
7.9725692125984251
21
-3.2898975984251968
0
LINE
8
BLACK
6
CONTINUOUS
10
7.9725692125984251
20
-3.2898975984251968
11
7.9665083858267716
21
-3.2873871259842518
0
LINE
8
BLACK
6
CONTINUOUS
10
7.9665083858267716
20
-3.2873871259842518
11
7.9610537795275587
21
-3.2837424803149604
0
LINE
8
BLACK
6
CONTINUOUS
10
7.9610537795275587
20
-3.2837424803149604
11
7.9564149999999998
21
-3.2791037007874015
0
LINE
8
BLACK
6
CONTINUOUS
10
7.9564149999999998
20
-3.2791037007874015
11
7.9527703543307089
21
-3.2736490944881891
0
LINE
8
BLACK
6
CONTINUOUS
10
7.9527703543307089
20
-3.2736490944881891
11
7.9502598818897638
21
-3.2675882677165355
0
LINE
8
BLACK
6
CONTINUOUS
10
7.9502598818897638
20
-3.2675882677165355
11
7.9489800393700785
21
-3.2611541338582675
0
LINE
8
BLACK
6
CONTINUOUS
10
7.9489800393700785
20
-3.2611541338582675
11
7.9489800393700785
21
-3.2545938976377951
0
LINE
8
BLACK
6
CONTINUOUS
10
7.9489800393700785
20
-3.2545938976377951
11
7.9502598818897638
21
-3.2481597637795274
0
LINE
8
BLACK
6
CONTINUOUS
10
7.9502598818897638
20
-3.2481597637795274
11
7.9527703543307089
21
-3.2420989370078739
0
LINE
8
BLACK
6
CONTINUOUS
10
7.9527703543307089
20
-3.2420989370078739
11
7.9564149999999998
21
-3.2366443307086614
0
LINE
8
BLACK
6
CONTINUOUS
10
7.9564149999999998
20
-3.2366443307086614
11
7.9610537795275587
21
-3.2320055511811021
0
LINE
8
BLACK
6
CONTINUOUS
10
7.9610537795275587
20
-3.2320055511811021
11
7.9665083858267716
21
-3.2283609055118108
0
LINE
8
BLACK
6
CONTINUOUS
10
7.9665083858267716
20
-3.2283609055118108
11
7.9725692125984251
21
-3.2258504330708662
0
LINE
8
BLACK
6
CONTINUOUS
10
7.9725692125984251
20
-3.2258504330708662
11
7.9790033464566923
21
-3.2245705905511812
0
LINE
8
BLACK
6
CONTINUOUS
10
7.9790033464566923
20
-3.2245705905511812
11
7.9855635826771652
21
-3.2245705905511812
0
LINE
8
BLACK
6
CONTINUOUS
10
7.9855635826771652
20
-3.2245705905511812
11
7.9919977165354332
21
-3.2258504330708662
0
LINE
8
BLACK
6
CONTINUOUS
10
2.635656338582677
20
-3.2072452755905512
11
2.6388494881889764
21
-3.2093788582677165
0
LINE
8
BLACK
6
CONTINUOUS
10
2.6388494881889764
20
-3.2093788582677165
11
2.6409830708661417
21
-3.2125720078740159
0
LINE
8
BLACK
6
CONTINUOUS
10
2.6409830708661417
20
-3.2125720078740159
11
2.6417322834645667
21
-3.2163385826771651
0
LINE
8
BLACK
6
CONTINUOUS
10
2.6417322834645667
20
-3.2163385826771651
11
2.6417322834645667
21
-3.2753937007874017
0
LINE
8
BLACK
6
CONTINUOUS
10
2.6417322834645667
20
-3.2753937007874017
11
2.6409830708661417
21
-3.2791602755905509
0
LINE
8
BLACK
6
CONTINUOUS
10
2.6409830708661417
20
-3.2791602755905509
11
2.6388494881889764
21
-3.2823534251968502
0
LINE
8
BLACK
6
CONTINUOUS
10
2.6388494881889764
20
-3.2823534251968502
11
2.635656338582677
21
-3.2844870078740156
0
LINE
8
BLACK
6
CONTINUOUS
10
2.635656338582677
20
-3.2844870078740156
11
2.6318897637795273
21
-3.285236220472441
0
LINE
8
BLACK
6
CONTINUOUS
10
2.6318897637795273
20
-3.285236220472441
11
2.5846456692913384
21
-3.285236220472441
0
LINE
8
BLACK
6
CONTINUOUS
10
2.5846456692913384
20
-3.285236220472441
11
2.5808790944881888
21
-3.2844870078740156
0
LINE
8
BLACK
6
CONTINUOUS
10
2.5808790944881888
20
-3.2844870078740156
11
2.5776859448818898
21
-3.2823534251968502
0
LINE
8
BLACK
6
CONTINUOUS
10
2.5776859448818898
20
-3.2823534251968502
11
2.5755523622047245
21
-3.2791602755905509
0
LINE
8
BLACK
6
CONTINUOUS
10
2.5755523622047245
20
-3.2791602755905509
11
2.5748031496062991
21
-3.2753937007874017
0
LINE
8
BLACK
6
CONTINUOUS
10
2.5748031496062991
20
-3.2753937007874017
11
2.5748031496062991
21
-3.2163385826771651
0
LINE
8
BLACK
6
CONTINUOUS
10
2.5748031496062991
20
-3.2163385826771651
11
2.5755523622047245
21
-3.2125720078740159
0
LINE
8
BLACK
6
CONTINUOUS
10
2.5755523622047245
20
-3.2125720078740159
11
2.5776859448818898
21
-3.2093788582677165
0
LINE
8
BLACK
6
CONTINUOUS
10
2.5776859448818898
20
-3.2093788582677165
11
2.5808790944881888
21
-3.2072452755905512
0
LINE
8
BLACK
6
CONTINUOUS
10
2.5808790944881888
20
-3.2072452755905512
11
2.5846456692913384
21
-3.2064960629921258
0
LINE
8
BLACK
6
CONTINUOUS
10
2.5846456692913384
20
-3.2064960629921258
11
2.6318897637795273
21
-3.2064960629921258
0
LINE
8
BLACK
6
CONTINUOUS
10
2.6318897637795273
20
-3.2064960629921258
11
2.635656338582677
21
-3.2072452755905512
0
LINE
8
BLACK
6
CONTINUOUS
10
2.5195567716535434
20
-3.2079370472440942
11
2.525617598425197
21
-3.2104475196850393
0
LINE
8
BLACK
6
CONTINUOUS
10
2.525617598425197
20
-3.2104475196850393
11
2.5310722047244094
21
-3.2140921653543306
0
LINE
8
BLACK
6
CONTINUOUS
10
2.5310722047244094
20
-3.2140921653543306
11
2.5357109842519683
21
-3.2187309448818895
0
LINE
8
BLACK
6
CONTINUOUS
10
2.5357109842519683
20
-3.2187309448818895
11
2.5393556299212596
21
-3.2241855511811024
0
LINE
8
BLACK
6
CONTINUOUS
10
2.5393556299212596
20
-3.2241855511811024
11
2.5418661023622047
21
-3.2302463779527559
0
LINE
8
BLACK
6
CONTINUOUS
10
2.5418661023622047
20
-3.2302463779527559
11
2.5431459448818896
21
-3.2366805118110236
0
LINE
8
BLACK
6
CONTINUOUS
10
2.5431459448818896
20
-3.2366805118110236
11
2.5433070866141732
21
-3.2399606299212595
0
LINE
8
BLACK
6
CONTINUOUS
10
2.5433070866141732
20
-3.2399606299212595
11
2.5433070866141732
21
-3.2517716535433072
0
LINE
8
BLACK
6
CONTINUOUS
10
2.5433070866141732
20
-3.2517716535433072
11
2.5431459448818896
21
-3.2550517716535432
0
LINE
8
BLACK
6
CONTINUOUS
10
2.5431459448818896
20
-3.2550517716535432
11
2.5418661023622047
21
-3.2614859055118108
0
LINE
8
BLACK
6
CONTINUOUS
10
2.5418661023622047
20
-3.2614859055118108
11
2.5393556299212596
21
-3.2675467322834644
0
LINE
8
BLACK
6
CONTINUOUS
10
2.5393556299212596
20
-3.2675467322834644
11
2.5357109842519683
21
-3.2730013385826773
0
LINE
8
BLACK
6
CONTINUOUS
10
2.5357109842519683
20
-3.2730013385826773
11
2.5310722047244094
21
-3.2776401181102361
0
LINE
8
BLACK
6
CONTINUOUS
10
2.5310722047244094
20
-3.2776401181102361
11
2.525617598425197
21
-3.2812847637795275
0
LINE
8
BLACK
6
CONTINUOUS
10
2.525617598425197
20
-3.2812847637795275
11
2.5195567716535434
21
-3.2837952362204725
0
LINE
8
BLACK
6
CONTINUOUS
10
2.5195567716535434
20
-3.2837952362204725
11
2.5131226377952753
21
-3.2850750787401575
0
LINE
8
BLACK
6
CONTINUOUS
10
2.5131226377952753
20
-3.2850750787401575
11
2.5065624015748029
21
-3.2850750787401575
0
LINE
8
BLACK
6
CONTINUOUS
10
2.5065624015748029
20
-3.2850750787401575
11
2.5001282677165353
21
-3.2837952362204725
0
LINE
8
BLACK
6
CONTINUOUS
10
2.5001282677165353
20
-3.2837952362204725
11
2.4940674409448818
21
-3.2812847637795275
0
LINE
8
BLACK
6
CONTINUOUS
10
2.4940674409448818
20
-3.2812847637795275
11
2.4886128346456693
21
-3.2776401181102361
0
LINE
8
BLACK
6
CONTINUOUS
10
2.4886128346456693
20
-3.2776401181102361
11
2.48397405511811
21
-3.2730013385826773
0
LINE
8
BLACK
6
CONTINUOUS
10
2.48397405511811
20
-3.2730013385826773
11
2.4803294094488186
21
-3.2675467322834644
0
LINE
8
BLACK
6
CONTINUOUS
10
2.4803294094488186
20
-3.2675467322834644
11
2.477818937007874
21
-3.2614859055118108
0
LINE
8
BLACK
6
CONTINUOUS
10
2.477818937007874
20
-3.2614859055118108
11
2.4765390944881891
21
-3.2550517716535432
0
LINE
8
BLACK
6
CONTINUOUS
10
2.4765390944881891
20
-3.2550517716535432
11
2.4763779527559056
21
-3.2517716535433072
0
LINE
8
BLACK
6
CONTINUOUS
10
2.4763779527559056
20
-3.2517716535433072
11
2.4763779527559056
21
-3.2399606299212595
0
LINE
8
BLACK
6
CONTINUOUS
10
2.4763779527559056
20
-3.2399606299212595
11
2.4765390944881891
21
-3.2366805118110236
0
LINE
8
BLACK
6
CONTINUOUS
10
2.4765390944881891
20
-3.2366805118110236
11
2.477818937007874
21
-3.2302463779527559
0
LINE
8
BLACK
6
CONTINUOUS
10
2.477818937007874
20
-3.2302463779527559
11
2.4803294094488186
21
-3.2241855511811024
0
LINE
8
BLACK
6
CONTINUOUS
10
2.4803294094488186
20
-3.2241855511811024
11
2.48397405511811
21
-3.2187309448818895
0
LINE
8
BLACK
6
CONTINUOUS
10
2.48397405511811
20
-3.2187309448818895
11
2.4886128346456693
21
-3.2140921653543306
0
LINE
8
BLACK
6
CONTINUOUS
10
2.4886128346456693
20
-3.2140921653543306
11
2.4940674409448818
21
-3.2104475196850393
0
LINE
8
BLACK
6
CONTINUOUS
10
2.4940674409448818
20
-3.2104475196850393
11
2.5001282677165353
21
-3.2079370472440942
0
LINE
8
BLACK
6
CONTINUOUS
10
2.5001282677165353
20
-3.2079370472440942
11
2.5065624015748029
21
-3.2066572047244093
0
LINE
8
BLACK
6
CONTINUOUS
10
2.5065624015748029
20
-3.2066572047244093
11
2.5131226377952753
21
-3.2066572047244093
0
LINE
8
BLACK
6
CONTINUOUS
10
2.5131226377952753
20
-3.2066572047244093
11
2.5195567716535434
21
-3.2079370472440942
0
LINE
8
BLACK
6
CONTINUOUS
10
7.4370276377952758
20
-3.1463646062992123
11
7.442156220472441
21
-3.149325590551181
0
LINE
8
BLACK
6
CONTINUOUS
10
7.442156220472441
20
-3.149325590551181
11
7.4463437007874012
21
-3.1535130708661416
0
LINE
8
BLACK
6
CONTINUOUS
10
7.4463437007874012
20
-3.1535130708661416
11
7.4493046850393698
21
-3.1586416535433068
0
LINE
8
BLACK
6
CONTINUOUS
10
7.4493046850393698
20
-3.1586416535433068
11
7.4508374409448814
21
-3.1643618503937008
0
LINE
8
BLACK
6
CONTINUOUS
10
7.4508374409448814
20
-3.1643618503937008
11
7.451031496062992
21
-3.1673228346456694
0
LINE
8
BLACK
6
CONTINUOUS
10
7.451031496062992
20
-3.1673228346456694
11
7.451031496062992
21
-3.1988188976377954
0
LINE
8
BLACK
6
CONTINUOUS
10
7.451031496062992
20
-3.1988188976377954
11
7.4508374409448814
21
-3.2017798818897636
0
LINE
8
BLACK
6
CONTINUOUS
10
7.4508374409448814
20
-3.2017798818897636
11
7.4493046850393698
21
-3.2075000787401575
0
LINE
8
BLACK
6
CONTINUOUS
10
7.4493046850393698
20
-3.2075000787401575
11
7.4463437007874012
21
-3.2126286614173227
0
LINE
8
BLACK
6
CONTINUOUS
10
7.4463437007874012
20
-3.2126286614173227
11
7.442156220472441
21
-3.2168161417322834
0
LINE
8
BLACK
6
CONTINUOUS
10
7.442156220472441
20
-3.2168161417322834
11
7.4370276377952758
21
-3.219777125984252
0
LINE
8
BLACK
6
CONTINUOUS
10
7.4370276377952758
20
-3.219777125984252
11
7.4313074409448818
21
-3.2213098818897636
0
LINE
8
BLACK
6
CONTINUOUS
10
7.4313074409448818
20
-3.2213098818897636
11
7.4253854724409445
21
-3.2213098818897636
0
LINE
8
BLACK
6
CONTINUOUS
10
7.4253854724409445
20
-3.2213098818897636
11
7.4196652755905514
21
-3.219777125984252
0
LINE
8
BLACK
6
CONTINUOUS
10
7.4196652755905514
20
-3.219777125984252
11
7.4145366929133854
21
-3.2168161417322834
0
LINE
8
BLACK
6
CONTINUOUS
10
7.4145366929133854
20
-3.2168161417322834
11
7.4103492125984252
21
-3.2126286614173227
0
LINE
8
BLACK
6
CONTINUOUS
10
7.4103492125984252
20
-3.2126286614173227
11
7.4073882283464565
21
-3.2075000787401575
0
LINE
8
BLACK
6
CONTINUOUS
10
7.4073882283464565
20
-3.2075000787401575
11
7.4058554724409449
21
-3.2017798818897636
0
LINE
8
BLACK
6
CONTINUOUS
10
7.4058554724409449
20
-3.2017798818897636
11
7.4056614173228343
21
-3.1988188976377954
0
LINE
8
BLACK
6
CONTINUOUS
10
7.4056614173228343
20
-3.1988188976377954
11
7.4056614173228343
21
-3.1673228346456694
0
LINE
8
BLACK
6
CONTINUOUS
10
7.4056614173228343
20
-3.1673228346456694
11
7.4058554724409449
21
-3.1643618503937008
0
LINE
8
BLACK
6
CONTINUOUS
10
7.4058554724409449
20
-3.1643618503937008
11
7.4073882283464565
21
-3.1586416535433068
0
LINE
8
BLACK
6
CONTINUOUS
10
7.4073882283464565
20
-3.1586416535433068
11
7.4103492125984252
21
-3.1535130708661416
0
LINE
8
BLACK
6
CONTINUOUS
10
7.4103492125984252
20
-3.1535130708661416
11
7.4145366929133854
21
-3.149325590551181
0
LINE
8
BLACK
6
CONTINUOUS
10
7.4145366929133854
20
-3.149325590551181
11
7.4196652755905514
21
-3.1463646062992123
0
LINE
8
BLACK
6
CONTINUOUS
10
7.4196652755905514
20
-3.1463646062992123
11
7.4253854724409445
21
-3.1448318503937007
0
LINE
8
BLACK
6
CONTINUOUS
10
7.4253854724409445
20
-3.1448318503937007
11
7.4313074409448818
21
-3.1448318503937007
0
LINE
8
BLACK
6
CONTINUOUS
10
7.4313074409448818
20
-3.1448318503937007
11
7.4370276377952758
21
-3.1463646062992123
0
LINE
8
BLACK
6
CONTINUOUS
10
7.7771851181102356
20
-3.1463646062992123
11
7.7823137007874017
21
-3.149325590551181
0
LINE
8
BLACK
6
CONTINUOUS
10
7.7823137007874017
20
-3.149325590551181
11
7.7865011811023619
21
-3.1535130708661416
0
LINE
8
BLACK
6
CONTINUOUS
10
7.7865011811023619
20
-3.1535130708661416
11
7.7894621653543306
21
-3.1586416535433068
0
LINE
8
BLACK
6
CONTINUOUS
10
7.7894621653543306
20
-3.1586416535433068
11
7.7909949212598422
21
-3.1643618503937008
0
LINE
8
BLACK
6
CONTINUOUS
10
7.7909949212598422
20
-3.1643618503937008
11
7.7911889763779527
21
-3.1673228346456694
0
LINE
8
BLACK
6
CONTINUOUS
10
7.7911889763779527
20
-3.1673228346456694
11
7.7911889763779527
21
-3.1988188976377954
0
LINE
8
BLACK
6
CONTINUOUS
10
7.7911889763779527
20
-3.1988188976377954
11
7.7909949212598422
21
-3.2017798818897636
0
LINE
8
BLACK
6
CONTINUOUS
10
7.7909949212598422
20
-3.2017798818897636
11
7.7894621653543306
21
-3.2075000787401575
0
LINE
8
BLACK
6
CONTINUOUS
10
7.7894621653543306
20
-3.2075000787401575
11
7.7865011811023619
21
-3.2126286614173227
0
LINE
8
BLACK
6
CONTINUOUS
10
7.7865011811023619
20
-3.2126286614173227
11
7.7823137007874017
21
-3.2168161417322834
0
LINE
8
BLACK
6
CONTINUOUS
10
7.7823137007874017
20
-3.2168161417322834
11
7.7771851181102356
21
-3.219777125984252
0
LINE
8
BLACK
6
CONTINUOUS
10
7.7771851181102356
20
-3.219777125984252
11
7.7714649212598426
21
-3.2213098818897636
0
LINE
8
BLACK
6
CONTINUOUS
10
7.7714649212598426
20
-3.2213098818897636
11
7.7655429527559052
21
-3.2213098818897636
0
LINE
8
BLACK
6
CONTINUOUS
10
7.7655429527559052
20
-3.2213098818897636
11
7.7598227559055113
21
-3.219777125984252
0
LINE
8
BLACK
6
CONTINUOUS
10
7.7598227559055113
20
-3.219777125984252
11
7.7546941732283461
21
-3.2168161417322834
0
LINE
8
BLACK
6
CONTINUOUS
10
7.7546941732283461
20
-3.2168161417322834
11
7.7505066929133859
21
-3.2126286614173227
0
LINE
8
BLACK
6
CONTINUOUS
10
7.7505066929133859
20
-3.2126286614173227
11
7.7475457086614172
21
-3.2075000787401575
0
LINE
8
BLACK
6
CONTINUOUS
10
7.7475457086614172
20
-3.2075000787401575
11
7.7460129527559056
21
-3.2017798818897636
0
LINE
8
BLACK
6
CONTINUOUS
10
7.7460129527559056
20
-3.2017798818897636
11
7.7458188976377951
21
-3.1988188976377954
0
LINE
8
BLACK
6
CONTINUOUS
10
7.7458188976377951
20
-3.1988188976377954
11
7.7458188976377951
21
-3.1673228346456694
0
LINE
8
BLACK
6
CONTINUOUS
10
7.7458188976377951
20
-3.1673228346456694
11
7.7460129527559056
21
-3.1643618503937008
0
LINE
8
BLACK
6
CONTINUOUS
10
7.7460129527559056
20
-3.1643618503937008
11
7.7475457086614172
21
-3.1586416535433068
0
LINE
8
BLACK
6
CONTINUOUS
10
7.7475457086614172
20
-3.1586416535433068
11
7.7505066929133859
21
-3.1535130708661416
0
LINE
8
BLACK
6
CONTINUOUS
10
7.7505066929133859
20
-3.1535130708661416
11
7.7546941732283461
21
-3.149325590551181
0
LINE
8
BLACK
6
CONTINUOUS
10
7.7546941732283461
20
-3.149325590551181
11
7.7598227559055113
21
-3.1463646062992123
0
LINE
8
BLACK
6
CONTINUOUS
10
7.7598227559055113
20
-3.1463646062992123
11
7.7655429527559052
21
-3.1448318503937007
0
LINE
8
BLACK
6
CONTINUOUS
10
7.7655429527559052
20
-3.1448318503937007
11
7.7714649212598426
21
-3.1448318503937007
0
LINE
8
BLACK
6
CONTINUOUS
10
7.7714649212598426
20
-3.1448318503937007
11
7.7771851181102356
21
-3.1463646062992123
0
LINE
8
BLACK
6
CONTINUOUS
10
5.3291338582677161
20
-3.196062992125984
11
5.2622047244094485
21
-3.196062992125984
0
LINE
8
BLACK
6
CONTINUOUS
10
5.2622047244094485
20
-3.196062992125984
11
5.2622047244094485
21
-3.1291338582677164
0
LINE
8
BLACK
6
CONTINUOUS
10
5.2622047244094485
20
-3.1291338582677164
11
5.3291338582677161
21
-3.1291338582677164
0
LINE
8
BLACK
6
CONTINUOUS
10
5.3291338582677161
20
-3.1291338582677164
11
5.3291338582677161
21
-3.196062992125984
0
LINE
8
BLACK
6
CONTINUOUS
10
7.9919977165354332
20
-3.1258504330708661
11
7.9980585433070868
21
-3.1283609055118111
0
LINE
8
BLACK
6
CONTINUOUS
10
7.9980585433070868
20
-3.1283609055118111
11
8.0035131496062988
21
-3.1320055511811025
0
LINE
8
BLACK
6
CONTINUOUS
10
8.0035131496062988
20
-3.1320055511811025
11
8.0081519291338576
21
-3.1366443307086613
0
LINE
8
BLACK
6
CONTINUOUS
10
8.0081519291338576
20
-3.1366443307086613
11
8.0117965748031494
21
-3.1420989370078738
0
LINE
8
BLACK
6
CONTINUOUS
10
8.0117965748031494
20
-3.1420989370078738
11
8.0143070472440936
21
-3.1481597637795273
0
LINE
8
BLACK
6
CONTINUOUS
10
8.0143070472440936
20
-3.1481597637795273
11
8.0155868897637799
21
-3.1545938976377954
0
LINE
8
BLACK
6
CONTINUOUS
10
8.0155868897637799
20
-3.1545938976377954
11
8.0155868897637799
21
-3.1611541338582678
0
LINE
8
BLACK
6
CONTINUOUS
10
8.0155868897637799
20
-3.1611541338582678
11
8.0143070472440936
21
-3.1675882677165355
0
LINE
8
BLACK
6
CONTINUOUS
10
8.0143070472440936
20
-3.1675882677165355
11
8.0117965748031494
21
-3.173649094488189
0
LINE
8
BLACK
6
CONTINUOUS
10
8.0117965748031494
20
-3.173649094488189
11
8.0081519291338576
21
-3.1791037007874015
0
LINE
8
BLACK
6
CONTINUOUS
10
8.0081519291338576
20
-3.1791037007874015
11
8.0035131496062988
21
-3.1837424803149608
0
LINE
8
BLACK
6
CONTINUOUS
10
8.0035131496062988
20
-3.1837424803149608
11
7.9980585433070868
21
-3.1873871259842521
0
LINE
8
BLACK
6
CONTINUOUS
10
7.9980585433070868
20
-3.1873871259842521
11
7.9919977165354332
21
-3.1898975984251967
0
LINE
8
BLACK
6
CONTINUOUS
10
7.9919977165354332
20
-3.1898975984251967
11
7.9855635826771652
21
-3.1911774409448816
0
LINE
8
BLACK
6
CONTINUOUS
10
7.9855635826771652
20
-3.1911774409448816
11
7.9790033464566923
21
-3.1911774409448816
0
LINE
8
BLACK
6
CONTINUOUS
10
7.9790033464566923
20
-3.1911774409448816
11
7.9725692125984251
21
-3.1898975984251967
0
LINE
8
BLACK
6
CONTINUOUS
10
7.9725692125984251
20
-3.1898975984251967
11
7.9665083858267716
21
-3.1873871259842521
0
LINE
8
BLACK
6
CONTINUOUS
10
7.9665083858267716
20
-3.1873871259842521
11
7.9610537795275587
21
-3.1837424803149608
0
LINE
8
BLACK
6
CONTINUOUS
10
7.9610537795275587
20
-3.1837424803149608
11
7.9564149999999998
21
-3.1791037007874015
0
LINE
8
BLACK
6
CONTINUOUS
10
7.9564149999999998
20
-3.1791037007874015
11
7.9527703543307089
21
-3.173649094488189
0
LINE
8
BLACK
6
CONTINUOUS
10
7.9527703543307089
20
-3.173649094488189
11
7.9502598818897638
21
-3.1675882677165355
0
LINE
8
BLACK
6
CONTINUOUS
10
7.9502598818897638
20
-3.1675882677165355
11
7.9489800393700785
21
-3.1611541338582678
0
LINE
8
BLACK
6
CONTINUOUS
10
7.9489800393700785
20
-3.1611541338582678
11
7.9489800393700785
21
-3.1545938976377954
0
LINE
8
BLACK
6
CONTINUOUS
10
7.9489800393700785
20
-3.1545938976377954
11
7.9502598818897638
21
-3.1481597637795273
0
LINE
8
BLACK
6
CONTINUOUS
10
7.9502598818897638
20
-3.1481597637795273
11
7.9527703543307089
21
-3.1420989370078738
0
LINE
8
BLACK
6
CONTINUOUS
10
7.9527703543307089
20
-3.1420989370078738
11
7.9564149999999998
21
-3.1366443307086613
0
LINE
8
BLACK
6
CONTINUOUS
10
7.9564149999999998
20
-3.1366443307086613
11
7.9610537795275587
21
-3.1320055511811025
0
LINE
8
BLACK
6
CONTINUOUS
10
7.9610537795275587
20
-3.1320055511811025
11
7.9665083858267716
21
-3.1283609055118111
0
LINE
8
BLACK
6
CONTINUOUS
10
7.9665083858267716
20
-3.1283609055118111
11
7.9725692125984251
21
-3.1258504330708661
0
LINE
8
BLACK
6
CONTINUOUS
10
7.9725692125984251
20
-3.1258504330708661
11
7.9790033464566923
21
-3.1245705905511811
0
LINE
8
BLACK
6
CONTINUOUS
10
7.9790033464566923
20
-3.1245705905511811
11
7.9855635826771652
21
-3.1245705905511811
0
LINE
8
BLACK
6
CONTINUOUS
10
7.9855635826771652
20
-3.1245705905511811
11
7.9919977165354332
21
-3.1258504330708661
0
LINE
8
BLACK
6
CONTINUOUS
10
8.015748031496063
20
-3.0913385826771651
11
7.9488188976377954
21
-3.0913385826771651
0
LINE
8
BLACK
6
CONTINUOUS
10
7.9488188976377954
20
-3.0913385826771651
11
7.9488188976377954
21
-3.0244094488188975
0
LINE
8
BLACK
6
CONTINUOUS
10
7.9488188976377954
20
-3.0244094488188975
11
8.015748031496063
21
-3.0244094488188975
0
LINE
8
BLACK
6
CONTINUOUS
10
8.015748031496063
20
-3.0244094488188975
11
8.015748031496063
21
-3.0913385826771651
0
LINE
8
BLACK
6
CONTINUOUS
10
7.4370276377952758
20
-2.9810102755905512
11
7.442156220472441
21
-2.9839712598425194
0
LINE
8
BLACK
6
CONTINUOUS
10
7.442156220472441
20
-2.9839712598425194
11
7.4463437007874012
21
-2.9881587401574801
0
LINE
8
BLACK
6
CONTINUOUS
10
7.4463437007874012
20
-2.9881587401574801
11
7.4493046850393698
21
-2.9932873228346457
0
LINE
8
BLACK
6
CONTINUOUS
10
7.4493046850393698
20
-2.9932873228346457
11
7.4508374409448814
21
-2.9990075196850392
0
LINE
8
BLACK
6
CONTINUOUS
10
7.4508374409448814
20
-2.9990075196850392
11
7.451031496062992
21
-3.0019685039370079
0
LINE
8
BLACK
6
CONTINUOUS
10
7.451031496062992
20
-3.0019685039370079
11
7.451031496062992
21
-3.0492125984251968
0
LINE
8
BLACK
6
CONTINUOUS
10
7.451031496062992
20
-3.0492125984251968
11
7.4508374409448814
21
-3.0521735826771654
0
LINE
8
BLACK
6
CONTINUOUS
10
7.4508374409448814
20
-3.0521735826771654
11
7.4493046850393698
21
-3.0578937795275589
0
LINE
8
BLACK
6
CONTINUOUS
10
7.4493046850393698
20
-3.0578937795275589
11
7.4463437007874012
21
-3.0630223622047241
0
LINE
8
BLACK
6
CONTINUOUS
10
7.4463437007874012
20
-3.0630223622047241
11
7.442156220472441
21
-3.0672098425196848
0
LINE
8
BLACK
6
CONTINUOUS
10
7.442156220472441
20
-3.0672098425196848
11
7.4370276377952758
21
-3.0701708267716534
0
LINE
8
BLACK
6
CONTINUOUS
10
7.4370276377952758
20
-3.0701708267716534
11
7.4313074409448818
21
-3.0717035826771655
0
LINE
8
BLACK
6
CONTINUOUS
10
7.4313074409448818
20
-3.0717035826771655
11
7.4253854724409445
21
-3.0717035826771655
0
LINE
8
BLACK
6
CONTINUOUS
10
7.4253854724409445
20
-3.0717035826771655
11
7.4196652755905514
21
-3.0701708267716534
0
LINE
8
BLACK
6
CONTINUOUS
10
7.4196652755905514
20
-3.0701708267716534
11
7.4145366929133854
21
-3.0672098425196848
0
LINE
8
BLACK
6
CONTINUOUS
10
7.4145366929133854
20
-3.0672098425196848
11
7.4103492125984252
21
-3.0630223622047241
0
LINE
8
BLACK
6
CONTINUOUS
10
7.4103492125984252
20
-3.0630223622047241
11
7.4073882283464565
21
-3.0578937795275589
0
LINE
8
BLACK
6
CONTINUOUS
10
7.4073882283464565
20
-3.0578937795275589
11
7.4058554724409449
21
-3.0521735826771654
0
LINE
8
BLACK
6
CONTINUOUS
10
7.4058554724409449
20
-3.0521735826771654
11
7.4056614173228343
21
-3.0492125984251968
0
LINE
8
BLACK
6
CONTINUOUS
10
7.4056614173228343
20
-3.0492125984251968
11
7.4056614173228343
21
-3.0019685039370079
0
LINE
8
BLACK
6
CONTINUOUS
10
7.4056614173228343
20
-3.0019685039370079
11
7.4058554724409449
21
-2.9990075196850392
0
LINE
8
BLACK
6
CONTINUOUS
10
7.4058554724409449
20
-2.9990075196850392
11
7.4073882283464565
21
-2.9932873228346457
0
LINE
8
BLACK
6
CONTINUOUS
10
7.4073882283464565
20
-2.9932873228346457
11
7.4103492125984252
21
-2.9881587401574801
0
LINE
8
BLACK
6
CONTINUOUS
10
7.4103492125984252
20
-2.9881587401574801
11
7.4145366929133854
21
-2.9839712598425194
0
LINE
8
BLACK
6
CONTINUOUS
10
7.4145366929133854
20
-2.9839712598425194
11
7.4196652755905514
21
-2.9810102755905512
0
LINE
8
BLACK
6
CONTINUOUS
10
7.4196652755905514
20
-2.9810102755905512
11
7.4253854724409445
21
-2.9794775196850392
0
LINE
8
BLACK
6
CONTINUOUS
10
7.4253854724409445
20
-2.9794775196850392
11
7.4313074409448818
21
-2.9794775196850392
0
LINE
8
BLACK
6
CONTINUOUS
10
7.4313074409448818
20
-2.9794775196850392
11
7.4370276377952758
21
-2.9810102755905512
0
LINE
8
BLACK
6
CONTINUOUS
10
7.7771851181102356
20
-2.9810102755905512
11
7.7823137007874017
21
-2.9839712598425194
0
LINE
8
BLACK
6
CONTINUOUS
10
7.7823137007874017
20
-2.9839712598425194
11
7.7865011811023619
21
-2.9881587401574801
0
LINE
8
BLACK
6
CONTINUOUS
10
7.7865011811023619
20
-2.9881587401574801
11
7.7894621653543306
21
-2.9932873228346457
0
LINE
8
BLACK
6
CONTINUOUS
10
7.7894621653543306
20
-2.9932873228346457
11
7.7909949212598422
21
-2.9990075196850392
0
LINE
8
BLACK
6
CONTINUOUS
10
7.7909949212598422
20
-2.9990075196850392
11
7.7911889763779527
21
-3.0019685039370079
0
LINE
8
BLACK
6
CONTINUOUS
10
7.7911889763779527
20
-3.0019685039370079
11
7.7911889763779527
21
-3.0492125984251968
0
LINE
8
BLACK
6
CONTINUOUS
10
7.7911889763779527
20
-3.0492125984251968
11
7.7909949212598422
21
-3.0521735826771654
0
LINE
8
BLACK
6
CONTINUOUS
10
7.7909949212598422
20
-3.0521735826771654
11
7.7894621653543306
21
-3.0578937795275589
0
LINE
8
BLACK
6
CONTINUOUS
10
7.7894621653543306
20
-3.0578937795275589
11
7.7865011811023619
21
-3.0630223622047241
0
LINE
8
BLACK
6
CONTINUOUS
10
7.7865011811023619
20
-3.0630223622047241
11
7.7823137007874017
21
-3.0672098425196848
0
LINE
8
BLACK
6
CONTINUOUS
10
7.7823137007874017
20
-3.0672098425196848
11
7.7771851181102356
21
-3.0701708267716534
0
LINE
8
BLACK
6
CONTINUOUS
10
7.7771851181102356
20
-3.0701708267716534
11
7.7714649212598426
21
-3.0717035826771655
0
LINE
8
BLACK
6
CONTINUOUS
10
7.7714649212598426
20
-3.0717035826771655
11
7.7655429527559052
21
-3.0717035826771655
0
LINE
8
BLACK
6
CONTINUOUS
10
7.7655429527559052
20
-3.0717035826771655
11
7.7598227559055113
21
-3.0701708267716534
0
LINE
8
BLACK
6
CONTINUOUS
10
7.7598227559055113
20
-3.0701708267716534
11
7.7546941732283461
21
-3.0672098425196848
0
LINE
8
BLACK
6
CONTINUOUS
10
7.7546941732283461
20
-3.0672098425196848
11
7.7505066929133859
21
-3.0630223622047241
0
LINE
8
BLACK
6
CONTINUOUS
10
7.7505066929133859
20
-3.0630223622047241
11
7.7475457086614172
21
-3.0578937795275589
0
LINE
8
BLACK
6
CONTINUOUS
10
7.7475457086614172
20
-3.0578937795275589
11
7.7460129527559056
21
-3.0521735826771654
0
LINE
8
BLACK
6
CONTINUOUS
10
7.7460129527559056
20
-3.0521735826771654
11
7.7458188976377951
21
-3.0492125984251968
0
LINE
8
BLACK
6
CONTINUOUS
10
7.7458188976377951
20
-3.0492125984251968
11
7.7458188976377951
21
-3.0019685039370079
0
LINE
8
BLACK
6
CONTINUOUS
10
7.7458188976377951
20
-3.0019685039370079
11
7.7460129527559056
21
-2.9990075196850392
0
LINE
8
BLACK
6
CONTINUOUS
10
7.7460129527559056
20
-2.9990075196850392
11
7.7475457086614172
21
-2.9932873228346457
0
LINE
8
BLACK
6
CONTINUOUS
10
7.7475457086614172
20
-2.9932873228346457
11
7.7505066929133859
21
-2.9881587401574801
0
LINE
8
BLACK
6
CONTINUOUS
10
7.7505066929133859
20
-2.9881587401574801
11
7.7546941732283461
21
-2.9839712598425194
0
LINE
8
BLACK
6
CONTINUOUS
10
7.7546941732283461
20
-2.9839712598425194
11
7.7598227559055113
21
-2.9810102755905512
0
LINE
8
BLACK
6
CONTINUOUS
10
7.7598227559055113
20
-2.9810102755905512
11
7.7655429527559052
21
-2.9794775196850392
0
LINE
8
BLACK
6
CONTINUOUS
10
7.7655429527559052
20
-2.9794775196850392
11
7.7714649212598426
21
-2.9794775196850392
0
LINE
8
BLACK
6
CONTINUOUS
10
7.7714649212598426
20
-2.9794775196850392
11
7.7771851181102356
21
-2.9810102755905512
0
CIRCLE
8
BLACK
10
8.5039370078740149
20
-5.5649606299212593
40
0.0324803149606299
0
CIRCLE
8
BLACK
10
8.3169291338582667
20
-5.5649606299212593
40
0.0324803149606299
0
CIRCLE
8
BLACK
10
3.0590551181102361
20
-5.1692913385826769
40
0.0590551181102362
0
CIRCLE
8
BLACK
10
2.372047244094488
20
-5.4647637795275585
40
0.0196850393700787
0
CIRCLE
8
BLACK
10
2.4704724409448819
20
-5.4647637795275585
40
0.0196850393700787
0
CIRCLE
8
BLACK
10
6.5452755905511806
20
-5.5275590551181102
40
0.0196850393700787
0
CIRCLE
8
BLACK
10
6.643700787401575
20
-5.5275590551181102
40
0.0196850393700787
0
CIRCLE
8
BLACK
10
4.5515748031496059
20
-3.3822834645669291
40
0.0039370078740157
0
CIRCLE
8
BLACK
10
4.5515748031496059
20
-3.4374015748031495
40
0.0039370078740157
0
CIRCLE
8
BLACK
10
4.5791338582677161
20
-3.3547244094488189
40
0.0039370078740157
0
CIRCLE
8
BLACK
10
4.5791338582677161
20
-3.4098425196850393
40
0.0039370078740157
0
CIRCLE
8
BLACK
10
4.5791338582677161
20
-3.4649606299212596
40
0.0039370078740157
0
CIRCLE
8
BLACK
10
4.6066929133858263
20
-3.3822834645669291
40
0.0039370078740157
0
CIRCLE
8
BLACK
10
4.6066929133858263
20
-3.4374015748031495
40
0.0039370078740157
0
CIRCLE
8
BLACK
10
4.6342519685039365
20
-3.3547244094488189
40
0.0039370078740157
0
CIRCLE
8
BLACK
10
4.6342519685039365
20
-3.4098425196850393
40
0.0039370078740157
0
CIRCLE
8
BLACK
10
4.6342519685039365
20
-3.4649606299212596
40
0.0039370078740157
0
CIRCLE
8
BLACK
10
4.6618110236220476
20
-3.3822834645669291
40
0.0039370078740157
0
CIRCLE
8
BLACK
10
4.6618110236220476
20
-3.4374015748031495
40
0.0039370078740157
0
CIRCLE
8
BLACK
10
2.6082677165354329
20
-3.2458661417322836
40
0.0196850393700787
0
CIRCLE
8
BLACK
10
2.5098425196850394
20
-3.2458661417322836
40
0.0196850393700787
0
CIRCLE
8
BLACK
10
5.5925196850393704
20
-5.5295275590551176
40
0.0196850393700787
0
CIRCLE
8
BLACK
10
5.6909448818897639
20
-5.5295275590551176
40
0.0196850393700787
0
CIRCLE
8
BLACK
10
6.1893700787401578
20
-4.6098425196850394
40
0.0688976377952756
0
CIRCLE
8
BLACK
10
6.0893700787401572
20
-5.265748031496063
40
0.0216535433070866
0
CIRCLE
8
BLACK
10
6.1893700787401578
20
-5.265748031496063
40
0.0216535433070866
0
CIRCLE
8
BLACK
10
6.2893700787401574
20
-5.265748031496063
40
0.0216535433070866
0
CIRCLE
8
BLACK
10
3.8440944881889765
20
-4.0433070866141732
40
0.0196850393700787
0
CIRCLE
8
BLACK
10
3.9440944881889761
20
-4.0433070866141732
40
0.0196850393700787
0
CIRCLE
8
BLACK
10
4.0440944881889767
20
-4.0433070866141732
40
0.0196850393700787
0
CIRCLE
8
BLACK
10
4.1440944881889763
20
-4.0433070866141732
40
0.0196850393700787
0
CIRCLE
8
BLACK
10
3.4429133858267718
20
-5.5295275590551176
40
0.0196850393700787
0
CIRCLE
8
BLACK
10
3.5413385826771653
20
-5.5295275590551176
40
0.0196850393700787
0
CIRCLE
8
BLACK
10
7.9822834645669287
20
-3.0578740157480313
40
0.0196850393700787
0
CIRCLE
8
BLACK
10
7.9822834645669287
20
-3.1578740157480314
40
0.0196850393700787
0
CIRCLE
8
BLACK
10
7.9822834645669287
20
-3.2578740157480315
40
0.0196850393700787
0
LINE
8
BLACK
6
CONTINUOUS
10
7.7567939763779528
20
-3.0004268503937008
11
7.7575919685039372
21
-2.9974486220472438
0
LINE
8
BLACK
6
CONTINUOUS
10
7.7575919685039372
20
-2.9974486220472438
11
7.7591336220472442
21
-2.9947784251968503
0
LINE
8
BLACK
6
CONTINUOUS
10
7.7591336220472442
20
-2.9947784251968503
11
7.7613138582677159
21
-2.9925981889763777
0
LINE
8
BLACK
6
CONTINUOUS
10
7.7613138582677159
20
-2.9925981889763777
11
7.7639840551181099
21
-2.9910565354330707
0
LINE
8
BLACK
6
CONTINUOUS
10
7.7639840551181099
20
-2.9910565354330707
11
7.7669622834645669
21
-2.9902585433070867
0
LINE
8
BLACK
6
CONTINUOUS
10
7.7669622834645669
20
-2.9902585433070867
11
7.7700455905511809
21
-2.9902585433070867
0
LINE
8
BLACK
6
CONTINUOUS
10
7.7700455905511809
20
-2.9902585433070867
11
7.7730238188976379
21
-2.9910565354330707
0
LINE
8
BLACK
6
CONTINUOUS
10
7.7730238188976379
20
-2.9910565354330707
11
7.775694015748031
21
-2.9925981889763777
0
LINE
8
BLACK
6
CONTINUOUS
10
7.775694015748031
20
-2.9925981889763777
11
7.7778742519685036
21
-2.9947784251968503
0
LINE
8
BLACK
6
CONTINUOUS
10
7.7778742519685036
20
-2.9947784251968503
11
7.7794159055118106
21
-2.9974486220472438
0
LINE
8
BLACK
6
CONTINUOUS
10
7.7794159055118106
20
-2.9974486220472438
11
7.780213897637795
21
-3.0004268503937008
0
LINE
8
BLACK
6
CONTINUOUS
10
7.780213897637795
20
-3.0004268503937008
11
7.7803149606299211
21
-3.0019685039370079
0
LINE
8
BLACK
6
CONTINUOUS
10
7.7803149606299211
20
-3.0019685039370079
11
7.7803149606299211
21
-3.0492125984251968
0
LINE
8
BLACK
6
CONTINUOUS
10
7.7803149606299211
20
-3.0492125984251968
11
7.780213897637795
21
-3.0507542519685038
0
LINE
8
BLACK
6
CONTINUOUS
10
7.780213897637795
20
-3.0507542519685038
11
7.7794159055118106
21
-3.0537324803149604
0
LINE
8
BLACK
6
CONTINUOUS
10
7.7794159055118106
20
-3.0537324803149604
11
7.7778742519685036
21
-3.0564026771653543
0
LINE
8
BLACK
6
CONTINUOUS
10
7.7778742519685036
20
-3.0564026771653543
11
7.775694015748031
21
-3.0585829133858269
0
LINE
8
BLACK
6
CONTINUOUS
10
7.775694015748031
20
-3.0585829133858269
11
7.7730238188976379
21
-3.0601245669291339
0
LINE
8
BLACK
6
CONTINUOUS
10
7.7730238188976379
20
-3.0601245669291339
11
7.7700455905511809
21
-3.0609225590551179
0
LINE
8
BLACK
6
CONTINUOUS
10
7.7700455905511809
20
-3.0609225590551179
11
7.7669622834645669
21
-3.0609225590551179
0
LINE
8
BLACK
6
CONTINUOUS
10
7.7669622834645669
20
-3.0609225590551179
11
7.7639840551181099
21
-3.0601245669291339
0
LINE
8
BLACK
6
CONTINUOUS
10
7.7639840551181099
20
-3.0601245669291339
11
7.7613138582677159
21
-3.0585829133858269
0
LINE
8
BLACK
6
CONTINUOUS
10
7.7613138582677159
20
-3.0585829133858269
11
7.7591336220472442
21
-3.0564026771653543
0
LINE
8
BLACK
6
CONTINUOUS
10
7.7591336220472442
20
-3.0564026771653543
11
7.7575919685039372
21
-3.0537324803149604
0
LINE
8
BLACK
6
CONTINUOUS
10
7.7575919685039372
20
-3.0537324803149604
11
7.7567939763779528
21
-3.0507542519685038
0
LINE
8
BLACK
6
CONTINUOUS
10
7.7567939763779528
20
-3.0507542519685038
11
7.7566929133858267
21
-3.0492125984251968
0
LINE
8
BLACK
6
CONTINUOUS
10
7.7566929133858267
20
-3.0492125984251968
11
7.7566929133858267
21
-3.0019685039370079
0
LINE
8
BLACK
6
CONTINUOUS
10
7.7566929133858267
20
-3.0019685039370079
11
7.7567939763779528
21
-3.0004268503937008
0
LINE
8
BLACK
6
CONTINUOUS
10
7.416636496062992
20
-3.0004268503937008
11
7.4174344881889764
21
-2.9974486220472438
0
LINE
8
BLACK
6
CONTINUOUS
10
7.4174344881889764
20
-2.9974486220472438
11
7.4189761417322835
21
-2.9947784251968503
0
LINE
8
BLACK
6
CONTINUOUS
10
7.4189761417322835
20
-2.9947784251968503
11
7.4211563779527561
21
-2.9925981889763777
0
LINE
8
BLACK
6
CONTINUOUS
10
7.4211563779527561
20
-2.9925981889763777
11
7.4238265748031491
21
-2.9910565354330707
0
LINE
8
BLACK
6
CONTINUOUS
10
7.4238265748031491
20
-2.9910565354330707
11
7.4268048031496061
21
-2.9902585433070867
0
LINE
8
BLACK
6
CONTINUOUS
10
7.4268048031496061
20
-2.9902585433070867
11
7.4298881102362202
21
-2.9902585433070867
0
LINE
8
BLACK
6
CONTINUOUS
10
7.4298881102362202
20
-2.9902585433070867
11
7.4328663385826772
21
-2.9910565354330707
0
LINE
8
BLACK
6
CONTINUOUS
10
7.4328663385826772
20
-2.9910565354330707
11
7.4355365354330711
21
-2.9925981889763777
0
LINE
8
BLACK
6
CONTINUOUS
10
7.4355365354330711
20
-2.9925981889763777
11
7.4377167716535428
21
-2.9947784251968503
0
LINE
8
BLACK
6
CONTINUOUS
10
7.4377167716535428
20
-2.9947784251968503
11
7.4392584251968499
21
-2.9974486220472438
0
LINE
8
BLACK
6
CONTINUOUS
10
7.4392584251968499
20
-2.9974486220472438
11
7.4400564173228343
21
-3.0004268503937008
0
LINE
8
BLACK
6
CONTINUOUS
10
7.4400564173228343
20
-3.0004268503937008
11
7.4401574803149604
21
-3.0019685039370079
0
LINE
8
BLACK
6
CONTINUOUS
10
7.4401574803149604
20
-3.0019685039370079
11
7.4401574803149604
21
-3.0492125984251968
0
LINE
8
BLACK
6
CONTINUOUS
10
7.4401574803149604
20
-3.0492125984251968
11
7.4400564173228343
21
-3.0507542519685038
0
LINE
8
BLACK
6
CONTINUOUS
10
7.4400564173228343
20
-3.0507542519685038
11
7.4392584251968499
21
-3.0537324803149604
0
LINE
8
BLACK
6
CONTINUOUS
10
7.4392584251968499
20
-3.0537324803149604
11
7.4377167716535428
21
-3.0564026771653543
0
LINE
8
BLACK
6
CONTINUOUS
10
7.4377167716535428
20
-3.0564026771653543
11
7.4355365354330711
21
-3.0585829133858269
0
LINE
8
BLACK
6
CONTINUOUS
10
7.4355365354330711
20
-3.0585829133858269
11
7.4328663385826772
21
-3.0601245669291339
0
LINE
8
BLACK
6
CONTINUOUS
10
7.4328663385826772
20
-3.0601245669291339
11
7.4298881102362202
21
-3.0609225590551179
0
LINE
8
BLACK
6
CONTINUOUS
10
7.4298881102362202
20
-3.0609225590551179
11
7.4268048031496061
21
-3.0609225590551179
0
LINE
8
BLACK
6
CONTINUOUS
10
7.4268048031496061
20
-3.0609225590551179
11
7.4238265748031491
21
-3.0601245669291339
0
LINE
8
BLACK
6
CONTINUOUS
10
7.4238265748031491
20
-3.0601245669291339
11
7.4211563779527561
21
-3.0585829133858269
0
LINE
8
BLACK
6
CONTINUOUS
10
7.4211563779527561
20
-3.0585829133858269
11
7.4189761417322835
21
-3.0564026771653543
0
LINE
8
BLACK
6
CONTINUOUS
10
7.4189761417322835
20
-3.0564026771653543
11
7.4174344881889764
21
-3.0537324803149604
0
LINE
8
BLACK
6
CONTINUOUS
10
7.4174344881889764
20
-3.0537324803149604
11
7.416636496062992
21
-3.0507542519685038
0
LINE
8
BLACK
6
CONTINUOUS
10
7.416636496062992
20
-3.0507542519685038
11
7.4165354330708659
21
-3.0492125984251968
0
LINE
8
BLACK
6
CONTINUOUS
10
7.4165354330708659
20
-3.0492125984251968
11
7.4165354330708659
21
-3.0019685039370079
0
LINE
8
BLACK
6
CONTINUOUS
10
7.4165354330708659
20
-3.0019685039370079
11
7.416636496062992
21
-3.0004268503937008
0
LINE
8
BLACK
6
CONTINUOUS
10
7.7567939763779528
20
-3.165781181102362
11
7.7575919685039372
21
-3.1628029527559054
0
LINE
8
BLACK
6
CONTINUOUS
10
7.7575919685039372
20
-3.1628029527559054
11
7.7591336220472442
21
-3.1601327559055119
0
LINE
8
BLACK
6
CONTINUOUS
10
7.7591336220472442
20
-3.1601327559055119
11
7.7613138582677159
21
-3.1579525196850393
0
LINE
8
BLACK
6
CONTINUOUS
10
7.7613138582677159
20
-3.1579525196850393
11
7.7639840551181099
21
-3.1564108661417323
0
LINE
8
BLACK
6
CONTINUOUS
10
7.7639840551181099
20
-3.1564108661417323
11
7.7669622834645669
21
-3.1556128740157479
0
LINE
8
BLACK
6
CONTINUOUS
10
7.7669622834645669
20
-3.1556128740157479
11
7.7700455905511809
21
-3.1556128740157479
0
LINE
8
BLACK
6
CONTINUOUS
10
7.7700455905511809
20
-3.1556128740157479
11
7.7730238188976379
21
-3.1564108661417323
0
LINE
8
BLACK
6
CONTINUOUS
10
7.7730238188976379
20
-3.1564108661417323
11
7.775694015748031
21
-3.1579525196850393
0
LINE
8
BLACK
6
CONTINUOUS
10
7.775694015748031
20
-3.1579525196850393
11
7.7778742519685036
21
-3.1601327559055119
0
LINE
8
BLACK
6
CONTINUOUS
10
7.7778742519685036
20
-3.1601327559055119
11
7.7794159055118106
21
-3.1628029527559054
0
LINE
8
BLACK
6
CONTINUOUS
10
7.7794159055118106
20
-3.1628029527559054
11
7.780213897637795
21
-3.165781181102362
0
LINE
8
BLACK
6
CONTINUOUS
10
7.780213897637795
20
-3.165781181102362
11
7.7803149606299211
21
-3.1673228346456694
0
LINE
8
BLACK
6
CONTINUOUS
10
7.7803149606299211
20
-3.1673228346456694
11
7.7803149606299211
21
-3.1988188976377954
0
LINE
8
BLACK
6
CONTINUOUS
10
7.7803149606299211
20
-3.1988188976377954
11
7.780213897637795
21
-3.2003605511811024
0
LINE
8
BLACK
6
CONTINUOUS
10
7.780213897637795
20
-3.2003605511811024
11
7.7794159055118106
21
-3.203338779527559
0
LINE
8
BLACK
6
CONTINUOUS
10
7.7794159055118106
20
-3.203338779527559
11
7.7778742519685036
21
-3.2060089763779529
0
LINE
8
BLACK
6
CONTINUOUS
10
7.7778742519685036
20
-3.2060089763779529
11
7.775694015748031
21
-3.208189212598425
0
LINE
8
BLACK
6
CONTINUOUS
10
7.775694015748031
20
-3.208189212598425
11
7.7730238188976379
21
-3.2097308661417321
0
LINE
8
BLACK
6
CONTINUOUS
10
7.7730238188976379
20
-3.2097308661417321
11
7.7700455905511809
21
-3.2105288582677165
0
LINE
8
BLACK
6
CONTINUOUS
10
7.7700455905511809
20
-3.2105288582677165
11
7.7669622834645669
21
-3.2105288582677165
0
LINE
8
BLACK
6
CONTINUOUS
10
7.7669622834645669
20
-3.2105288582677165
11
7.7639840551181099
21
-3.2097308661417321
0
LINE
8
BLACK
6
CONTINUOUS
10
7.7639840551181099
20
-3.2097308661417321
11
7.7613138582677159
21
-3.208189212598425
0
LINE
8
BLACK
6
CONTINUOUS
10
7.7613138582677159
20
-3.208189212598425
11
7.7591336220472442
21
-3.2060089763779529
0
LINE
8
BLACK
6
CONTINUOUS
10
7.7591336220472442
20
-3.2060089763779529
11
7.7575919685039372
21
-3.203338779527559
0
LINE
8
BLACK
6
CONTINUOUS
10
7.7575919685039372
20
-3.203338779527559
11
7.7567939763779528
21
-3.2003605511811024
0
LINE
8
BLACK
6
CONTINUOUS
10
7.7567939763779528
20
-3.2003605511811024
11
7.7566929133858267
21
-3.1988188976377954
0
LINE
8
BLACK
6
CONTINUOUS
10
7.7566929133858267
20
-3.1988188976377954
11
7.7566929133858267
21
-3.1673228346456694
0
LINE
8
BLACK
6
CONTINUOUS
10
7.7566929133858267
20
-3.1673228346456694
11
7.7567939763779528
21
-3.165781181102362
0
LINE
8
BLACK
6
CONTINUOUS
10
7.416636496062992
20
-3.165781181102362
11
7.4174344881889764
21
-3.1628029527559054
0
LINE
8
BLACK
6
CONTINUOUS
10
7.4174344881889764
20
-3.1628029527559054
11
7.4189761417322835
21
-3.1601327559055119
0
LINE
8
BLACK
6
CONTINUOUS
10
7.4189761417322835
20
-3.1601327559055119
11
7.4211563779527561
21
-3.1579525196850393
0
LINE
8
BLACK
6
CONTINUOUS
10
7.4211563779527561
20
-3.1579525196850393
11
7.4238265748031491
21
-3.1564108661417323
0
LINE
8
BLACK
6
CONTINUOUS
10
7.4238265748031491
20
-3.1564108661417323
11
7.4268048031496061
21
-3.1556128740157479
0
LINE
8
BLACK
6
CONTINUOUS
10
7.4268048031496061
20
-3.1556128740157479
11
7.4298881102362202
21
-3.1556128740157479
0
LINE
8
BLACK
6
CONTINUOUS
10
7.4298881102362202
20
-3.1556128740157479
11
7.4328663385826772
21
-3.1564108661417323
0
LINE
8
BLACK
6
CONTINUOUS
10
7.4328663385826772
20
-3.1564108661417323
11
7.4355365354330711
21
-3.1579525196850393
0
LINE
8
BLACK
6
CONTINUOUS
10
7.4355365354330711
20
-3.1579525196850393
11
7.4377167716535428
21
-3.1601327559055119
0
LINE
8
BLACK
6
CONTINUOUS
10
7.4377167716535428
20
-3.1601327559055119
11
7.4392584251968499
21
-3.1628029527559054
0
LINE
8
BLACK
6
CONTINUOUS
10
7.4392584251968499
20
-3.1628029527559054
11
7.4400564173228343
21
-3.165781181102362
0
LINE
8
BLACK
6
CONTINUOUS
10
7.4400564173228343
20
-3.165781181102362
11
7.4401574803149604
21
-3.1673228346456694
0
LINE
8
BLACK
6
CONTINUOUS
10
7.4401574803149604
20
-3.1673228346456694
11
7.4401574803149604
21
-3.1988188976377954
0
LINE
8
BLACK
6
CONTINUOUS
10
7.4401574803149604
20
-3.1988188976377954
11
7.4400564173228343
21
-3.2003605511811024
0
LINE
8
BLACK
6
CONTINUOUS
10
7.4400564173228343
20
-3.2003605511811024
11
7.4392584251968499
21
-3.203338779527559
0
LINE
8
BLACK
6
CONTINUOUS
10
7.4392584251968499
20
-3.203338779527559
11
7.4377167716535428
21
-3.2060089763779529
0
LINE
8
BLACK
6
CONTINUOUS
10
7.4377167716535428
20
-3.2060089763779529
11
7.4355365354330711
21
-3.208189212598425
0
LINE
8
BLACK
6
CONTINUOUS
10
7.4355365354330711
20
-3.208189212598425
11
7.4328663385826772
21
-3.2097308661417321
0
LINE
8
BLACK
6
CONTINUOUS
10
7.4328663385826772
20
-3.2097308661417321
11
7.4298881102362202
21
-3.2105288582677165
0
LINE
8
BLACK
6
CONTINUOUS
10
7.4298881102362202
20
-3.2105288582677165
11
7.4268048031496061
21
-3.2105288582677165
0
LINE
8
BLACK
6
CONTINUOUS
10
7.4268048031496061
20
-3.2105288582677165
11
7.4238265748031491
21
-3.2097308661417321
0
LINE
8
BLACK
6
CONTINUOUS
10
7.4238265748031491
20
-3.2097308661417321
11
7.4211563779527561
21
-3.208189212598425
0
LINE
8
BLACK
6
CONTINUOUS
10
7.4211563779527561
20
-3.208189212598425
11
7.4189761417322835
21
-3.2060089763779529
0
LINE
8
BLACK
6
CONTINUOUS
10
7.4189761417322835
20
-3.2060089763779529
11
7.4174344881889764
21
-3.203338779527559
0
LINE
8
BLACK
6
CONTINUOUS
10
7.4174344881889764
20
-3.203338779527559
11
7.416636496062992
21
-3.2003605511811024
0
LINE
8
BLACK
6
CONTINUOUS
10
7.416636496062992
20
-3.2003605511811024
11
7.4165354330708659
21
-3.1988188976377954
0
LINE
8
BLACK
6
CONTINUOUS
10
7.4165354330708659
20
-3.1988188976377954
11
7.4165354330708659
21
-3.1673228346456694
0
LINE
8
BLACK
6
CONTINUOUS
10
7.4165354330708659
20
-3.1673228346456694
11
7.416636496062992
21
-3.165781181102362
0
CIRCLE
8
BLACK
10
5.2480314960629917
20
-4.9448818897637796
40
0.0590551181102362
0
CIRCLE
8
BLACK
10
8.7362204724409445
20
-3.3582677165354329
40
0.0590551181102362
0
CIRCLE
8
BLACK
10
7.7007874015748028
20
-5.5393700787401574
40
0.0590551181102362
0
CIRCLE
8
BLACK
10
5.2956692913385828
20
-3.1625984251968502
40
0.0196850393700787
0
CIRCLE
8
BLACK
10
5.2956692913385828
20
-3.2625984251968503
40
0.0196850393700787
0
CIRCLE
8
BLACK
10
5.2956692913385828
20
-3.3625984251968504
40
0.0196850393700787
0
CIRCLE
8
BLACK
10
5.2956692913385828
20
-3.4625984251968505
40
0.0196850393700787
0
CIRCLE
8
BLACK
10
2.7854330708661417
20
-5.4667322834645669
40
0.0196850393700787
0
CIRCLE
8
BLACK
10
2.8838582677165352
20
-5.4667322834645669
40
0.0196850393700787
0
CIRCLE
8
BLACK
10
2.8740157480314958
20
-3.3188976377952755
40
0.0590551181102362
0
CIRCLE
8
BLACK
10
6.1968503937007871
20
-3.5314960629921259
40
0.0590551181102362
0
CIRCLE
8
WHITE
10
8.5039370078740149
20
-5.5649606299212593
40
0.0324803149606299
0
CIRCLE
8
WHITE
10
8.3169291338582667
20
-5.5649606299212593
40
0.0324803149606299
0
CIRCLE
8
WHITE
10
3.0590551181102361
20
-5.1692913385826769
40
0.0590550787401575
0
CIRCLE
8
WHITE
10
2.372047244094488
20
-5.4647637795275585
40
0.0196850393700787
0
CIRCLE
8
WHITE
10
2.4704724409448819
20
-5.4647637795275585
40
0.0196850393700787
0
CIRCLE
8
WHITE
10
6.5452755905511806
20
-5.5275590551181102
40
0.0196850393700787
0
CIRCLE
8
WHITE
10
6.643700787401575
20
-5.5275590551181102
40
0.0196850393700787
0
CIRCLE
8
BLACK
10
4.5515748031496059
20
-3.3822834645669291
40
0.0039370078740157
0
CIRCLE
8
BLACK
10
4.5515748031496059
20
-3.4374015748031495
40
0.0039370078740157
0
CIRCLE
8
BLACK
10
4.5791338582677161
20
-3.3547244094488189
40
0.0039370078740157
0
CIRCLE
8
BLACK
10
4.5791338582677161
20
-3.4098425196850393
40
0.0039370078740157
0
CIRCLE
8
BLACK
10
4.5791338582677161
20
-3.4649606299212596
40
0.0039370078740157
0
CIRCLE
8
BLACK
10
4.6066929133858263
20
-3.3822834645669291
40
0.0039370078740157
0
CIRCLE
8
BLACK
10
4.6066929133858263
20
-3.4374015748031495
40
0.0039370078740157
0
CIRCLE
8
BLACK
10
4.6342519685039365
20
-3.3547244094488189
40
0.0039370078740157
0
CIRCLE
8
BLACK
10
4.6342519685039365
20
-3.4098425196850393
40
0.0039370078740157
0
CIRCLE
8
BLACK
10
4.6342519685039365
20
-3.4649606299212596
40
0.0039370078740157
0
CIRCLE
8
BLACK
10
4.6618110236220476
20
-3.3822834645669291
40
0.0039370078740157
0
CIRCLE
8
BLACK
10
4.6618110236220476
20
-3.4374015748031495
40
0.0039370078740157
0
CIRCLE
8
WHITE
10
2.6082677165354329
20
-3.2458661417322836
40
0.0196850393700787
0
CIRCLE
8
WHITE
10
2.5098425196850394
20
-3.2458661417322836
40
0.0196850393700787
0
CIRCLE
8
WHITE
10
5.5925196850393704
20
-5.5295275590551176
40
0.0196850393700787
0
CIRCLE
8
WHITE
10
5.6909448818897639
20
-5.5295275590551176
40
0.0196850393700787
0
CIRCLE
8
WHITE
10
6.1893700787401578
20
-4.6098425196850394
40
0.0688975984251969
0
CIRCLE
8
WHITE
10
6.0893700787401572
20
-5.265748031496063
40
0.0216535433070866
0
CIRCLE
8
WHITE
10
6.1893700787401578
20
-5.265748031496063
40
0.0216535433070866
0
CIRCLE
8
WHITE
10
6.2893700787401574
20
-5.265748031496063
40
0.0216535433070866
0
CIRCLE
8
WHITE
10
3.8440944881889765
20
-4.0433070866141732
40
0.0196850393700787
0
CIRCLE
8
WHITE
10
3.9440944881889761
20
-4.0433070866141732
40
0.0196850393700787
0
CIRCLE
8
WHITE
10
4.0440944881889767
20
-4.0433070866141732
40
0.0196850393700787
0
CIRCLE
8
WHITE
10
4.1440944881889763
20
-4.0433070866141732
40
0.0196850393700787
0
CIRCLE
8
WHITE
10
3.4429133858267718
20
-5.5295275590551176
40
0.0196850393700787
0
CIRCLE
8
WHITE
10
3.5413385826771653
20
-5.5295275590551176
40
0.0196850393700787
0
CIRCLE
8
WHITE
10
7.9822834645669287
20
-3.0578740157480313
40
0.0196850393700787
0
CIRCLE
8
WHITE
10
7.9822834645669287
20
-3.1578740157480314
40
0.0196850393700787
0
CIRCLE
8
WHITE
10
7.9822834645669287
20
-3.2578740157480315
40
0.0196850393700787
0
LINE
8
WHITE
6
CONTINUOUS
10
7.7803149606299211
20
-3.0492125984251968
11
7.7803149606299211
21
-3.0019685039370079
0
ARC
8
WHITE
10
7.7685039370078739
20
-3.0019685039370079
40
0.0118110236220472
50
0.00000000
51
180.00000000
0
LINE
8
WHITE
6
CONTINUOUS
10
7.7566929133858267
20
-3.0019685039370079
11
7.7566929133858267
21
-3.0492125984251968
0
ARC
8
WHITE
10
7.7685039370078739
20
-3.0492125984251968
40
0.0118110236220472
50
180.00000000
51
360.00000000
0
LINE
8
WHITE
6
CONTINUOUS
10
7.4401574803149604
20
-3.0492125984251968
11
7.4401574803149604
21
-3.0019685039370079
0
ARC
8
WHITE
10
7.4283464566929132
20
-3.0019685039370079
40
0.0118110236220472
50
0.00000000
51
180.00000000
0
LINE
8
WHITE
6
CONTINUOUS
10
7.4165354330708659
20
-3.0019685039370079
11
7.4165354330708659
21
-3.0492125984251968
0
ARC
8
WHITE
10
7.4283464566929132
20
-3.0492125984251968
40
0.0118110236220472
50
180.00000000
51
360.00000000
0
LINE
8
WHITE
6
CONTINUOUS
10
7.7803149606299211
20
-3.1988188976377954
11
7.7803149606299211
21
-3.1673228346456694
0
ARC
8
WHITE
10
7.7685039370078739
20
-3.1673228346456694
40
0.0118110236220472
50
0.00000000
51
180.00000000
0
LINE
8
WHITE
6
CONTINUOUS
10
7.7566929133858267
20
-3.1673228346456694
11
7.7566929133858267
21
-3.1988188976377954
0
ARC
8
WHITE
10
7.7685039370078739
20
-3.1988188976377954
40
0.0118110236220472
50
180.00000000
51
360.00000000
0
LINE
8
WHITE
6
CONTINUOUS
10
7.4401574803149604
20
-3.1988188976377954
11
7.4401574803149604
21
-3.1673228346456694
0
ARC
8
WHITE
10
7.4283464566929132
20
-3.1673228346456694
40
0.0118110236220472
50
0.00000000
51
180.00000000
0
LINE
8
WHITE
6
CONTINUOUS
10
7.4165354330708659
20
-3.1673228346456694
11
7.4165354330708659
21
-3.1988188976377954
0
ARC
8
WHITE
10
7.4283464566929132
20
-3.1988188976377954
40
0.0118110236220472
50
180.00000000
51
360.00000000
0
CIRCLE
8
WHITE
10
5.2480314960629917
20
-4.9448818897637796
40
0.0590550787401575
0
CIRCLE
8
WHITE
10
8.7362204724409445
20
-3.3582677165354329
40
0.0590550787401575
0
CIRCLE
8
WHITE
10
7.7007874015748028
20
-5.5393700787401574
40
0.0590550787401575
0
CIRCLE
8
WHITE
10
5.2956692913385828
20
-3.1625984251968502
40
0.0196850393700787
0
CIRCLE
8
WHITE
10
5.2956692913385828
20
-3.2625984251968503
40
0.0196850393700787
0
CIRCLE
8
WHITE
10
5.2956692913385828
20
-3.3625984251968504
40
0.0196850393700787
0
CIRCLE
8
WHITE
10
5.2956692913385828
20
-3.4625984251968505
40
0.0196850393700787
0
CIRCLE
8
WHITE
10
2.7854330708661417
20
-5.4667322834645669
40
0.0196850393700787
0
CIRCLE
8
WHITE
10
2.8838582677165352
20
-5.4667322834645669
40
0.0196850393700787
0
CIRCLE
8
WHITE
10
2.8740157480314958
20
-3.3188976377952755
40
0.0590550787401575
0
CIRCLE
8
WHITE
10
6.1968503937007871
20
-3.5314960629921259
40
0.0590550787401575
  0
ENDSEC
  0
EOF
