  0
SECTION
  2
HEADER
  9
$ANGBASE
  50
0.0
  9
$ANGDIR
  70
1
  9
$MEASUREMENT
  70
0
  0
ENDSEC
  0
SECTION
  2
TABLES
  0
TABLE
  2
LTYPE
  70
4
  0
LTYPE
  5
40F
  2
CONTINUOUS
  70
0
  3
Solid line
  72
65
  73
0
  40
0.0
  0
LTYPE
  5
410
  2
DASHDOT
 70
0
  3
Dash Dot ____ _ ____ _
 72
65
 73
4
 40
2.0
 49
1.25
 49
-0.25
 49
0.25
 49
-0.25
  0
LTYPE
  5
411
  2
DASHED
 70
0
  3
Dashed __ __ __ __ __
 72
65
 73
2
 40
0.75
 49
0.5
 49
-0.25
  0
LTYPE
  5
43B
  2
DOTTED
 70
0
  3
Dotted .  .  .  .
 72
65
 73
2
 40
0.2
 49
0.0
 49
-0.2
  0
ENDTAB
  0
TABLE
  2
STYLE
  70
4
  0
STYLE
  2
KICAD
  70
0
  40
0
  41
1
  42
1
  50
0
  71
0
  3
isocp.shx
  0
STYLE
  2
KICADB
  70
0
  40
0
  41
1
  42
1
  50
0
  71
0
  3
isocp.shx
  0
STYLE
  2
KICADI
  70
0
  40
0
  41
1
  42
1
  50
15
  71
0
  3
isocp.shx
  0
STYLE
  2
KICADBI
  70
0
  40
0
  41
1
  42
1
  50
15
  71
0
  3
isocp.shx
  0
ENDTAB
  0
TABLE
  2
LAYER
  70
1
  0
LAYER
  2
BLACK
  70
0
  62
7
  6
CONTINUOUS
  0
ENDTAB
  0
ENDSEC
  0
SECTION
  2
ENTITIES
0
CIRCLE
8
BLACK
10
8.5039370078740149
20
-5.5649606299212593
40
0.0324803149606299
0
CIRCLE
8
BLACK
10
8.3169291338582667
20
-5.5649606299212593
40
0.0324803149606299
0
CIRCLE
8
BLACK
10
3.0590551181102361
20
-5.1692913385826769
40
0.0590551181102362
0
CIRCLE
8
BLACK
10
2.372047244094488
20
-5.4647637795275585
40
0.0196850393700787
0
CIRCLE
8
BLACK
10
2.4704724409448819
20
-5.4647637795275585
40
0.0196850393700787
0
CIRCLE
8
BLACK
10
6.5452755905511806
20
-5.5275590551181102
40
0.0196850393700787
0
CIRCLE
8
BLACK
10
6.643700787401575
20
-5.5275590551181102
40
0.0196850393700787
0
CIRCLE
8
BLACK
10
4.5515748031496059
20
-3.3822834645669291
40
0.0039370078740157
0
CIRCLE
8
BLACK
10
4.5515748031496059
20
-3.4374015748031495
40
0.0039370078740157
0
CIRCLE
8
BLACK
10
4.5791338582677161
20
-3.3547244094488189
40
0.0039370078740157
0
CIRCLE
8
BLACK
10
4.5791338582677161
20
-3.4098425196850393
40
0.0039370078740157
0
CIRCLE
8
BLACK
10
4.5791338582677161
20
-3.4649606299212596
40
0.0039370078740157
0
CIRCLE
8
BLACK
10
4.6066929133858263
20
-3.3822834645669291
40
0.0039370078740157
0
CIRCLE
8
BLACK
10
4.6066929133858263
20
-3.4374015748031495
40
0.0039370078740157
0
CIRCLE
8
BLACK
10
4.6342519685039365
20
-3.3547244094488189
40
0.0039370078740157
0
CIRCLE
8
BLACK
10
4.6342519685039365
20
-3.4098425196850393
40
0.0039370078740157
0
CIRCLE
8
BLACK
10
4.6342519685039365
20
-3.4649606299212596
40
0.0039370078740157
0
CIRCLE
8
BLACK
10
4.6618110236220476
20
-3.3822834645669291
40
0.0039370078740157
0
CIRCLE
8
BLACK
10
4.6618110236220476
20
-3.4374015748031495
40
0.0039370078740157
0
CIRCLE
8
BLACK
10
2.6082677165354329
20
-3.2458661417322836
40
0.0196850393700787
0
CIRCLE
8
BLACK
10
2.5098425196850394
20
-3.2458661417322836
40
0.0196850393700787
0
CIRCLE
8
BLACK
10
5.5925196850393704
20
-5.5295275590551176
40
0.0196850393700787
0
CIRCLE
8
BLACK
10
5.6909448818897639
20
-5.5295275590551176
40
0.0196850393700787
0
CIRCLE
8
BLACK
10
6.1893700787401578
20
-4.6098425196850394
40
0.0688976377952756
0
CIRCLE
8
BLACK
10
6.0893700787401572
20
-5.265748031496063
40
0.0216535433070866
0
CIRCLE
8
BLACK
10
6.1893700787401578
20
-5.265748031496063
40
0.0216535433070866
0
CIRCLE
8
BLACK
10
6.2893700787401574
20
-5.265748031496063
40
0.0216535433070866
0
CIRCLE
8
BLACK
10
3.8440944881889765
20
-4.0433070866141732
40
0.0196850393700787
0
CIRCLE
8
BLACK
10
3.9440944881889761
20
-4.0433070866141732
40
0.0196850393700787
0
CIRCLE
8
BLACK
10
4.0440944881889767
20
-4.0433070866141732
40
0.0196850393700787
0
CIRCLE
8
BLACK
10
4.1440944881889763
20
-4.0433070866141732
40
0.0196850393700787
0
CIRCLE
8
BLACK
10
3.4429133858267718
20
-5.5295275590551176
40
0.0196850393700787
0
CIRCLE
8
BLACK
10
3.5413385826771653
20
-5.5295275590551176
40
0.0196850393700787
0
CIRCLE
8
BLACK
10
7.9822834645669287
20
-3.0578740157480313
40
0.0196850393700787
0
CIRCLE
8
BLACK
10
7.9822834645669287
20
-3.1578740157480314
40
0.0196850393700787
0
CIRCLE
8
BLACK
10
7.9822834645669287
20
-3.2578740157480315
40
0.0196850393700787
0
LINE
8
BLACK
6
CONTINUOUS
10
7.7567939763779528
20
-3.0004268503937008
11
7.7575919685039372
21
-2.9974486220472438
0
LINE
8
BLACK
6
CONTINUOUS
10
7.7575919685039372
20
-2.9974486220472438
11
7.7591336220472442
21
-2.9947784251968503
0
LINE
8
BLACK
6
CONTINUOUS
10
7.7591336220472442
20
-2.9947784251968503
11
7.7613138582677159
21
-2.9925981889763777
0
LINE
8
BLACK
6
CONTINUOUS
10
7.7613138582677159
20
-2.9925981889763777
11
7.7639840551181099
21
-2.9910565354330707
0
LINE
8
BLACK
6
CONTINUOUS
10
7.7639840551181099
20
-2.9910565354330707
11
7.7669622834645669
21
-2.9902585433070867
0
LINE
8
BLACK
6
CONTINUOUS
10
7.7669622834645669
20
-2.9902585433070867
11
7.7700455905511809
21
-2.9902585433070867
0
LINE
8
BLACK
6
CONTINUOUS
10
7.7700455905511809
20
-2.9902585433070867
11
7.7730238188976379
21
-2.9910565354330707
0
LINE
8
BLACK
6
CONTINUOUS
10
7.7730238188976379
20
-2.9910565354330707
11
7.775694015748031
21
-2.9925981889763777
0
LINE
8
BLACK
6
CONTINUOUS
10
7.775694015748031
20
-2.9925981889763777
11
7.7778742519685036
21
-2.9947784251968503
0
LINE
8
BLACK
6
CONTINUOUS
10
7.7778742519685036
20
-2.9947784251968503
11
7.7794159055118106
21
-2.9974486220472438
0
LINE
8
BLACK
6
CONTINUOUS
10
7.7794159055118106
20
-2.9974486220472438
11
7.780213897637795
21
-3.0004268503937008
0
LINE
8
BLACK
6
CONTINUOUS
10
7.780213897637795
20
-3.0004268503937008
11
7.7803149606299211
21
-3.0019685039370079
0
LINE
8
BLACK
6
CONTINUOUS
10
7.7803149606299211
20
-3.0019685039370079
11
7.7803149606299211
21
-3.0492125984251968
0
LINE
8
BLACK
6
CONTINUOUS
10
7.7803149606299211
20
-3.0492125984251968
11
7.780213897637795
21
-3.0507542519685038
0
LINE
8
BLACK
6
CONTINUOUS
10
7.780213897637795
20
-3.0507542519685038
11
7.7794159055118106
21
-3.0537324803149604
0
LINE
8
BLACK
6
CONTINUOUS
10
7.7794159055118106
20
-3.0537324803149604
11
7.7778742519685036
21
-3.0564026771653543
0
LINE
8
BLACK
6
CONTINUOUS
10
7.7778742519685036
20
-3.0564026771653543
11
7.775694015748031
21
-3.0585829133858269
0
LINE
8
BLACK
6
CONTINUOUS
10
7.775694015748031
20
-3.0585829133858269
11
7.7730238188976379
21
-3.0601245669291339
0
LINE
8
BLACK
6
CONTINUOUS
10
7.7730238188976379
20
-3.0601245669291339
11
7.7700455905511809
21
-3.0609225590551179
0
LINE
8
BLACK
6
CONTINUOUS
10
7.7700455905511809
20
-3.0609225590551179
11
7.7669622834645669
21
-3.0609225590551179
0
LINE
8
BLACK
6
CONTINUOUS
10
7.7669622834645669
20
-3.0609225590551179
11
7.7639840551181099
21
-3.0601245669291339
0
LINE
8
BLACK
6
CONTINUOUS
10
7.7639840551181099
20
-3.0601245669291339
11
7.7613138582677159
21
-3.0585829133858269
0
LINE
8
BLACK
6
CONTINUOUS
10
7.7613138582677159
20
-3.0585829133858269
11
7.7591336220472442
21
-3.0564026771653543
0
LINE
8
BLACK
6
CONTINUOUS
10
7.7591336220472442
20
-3.0564026771653543
11
7.7575919685039372
21
-3.0537324803149604
0
LINE
8
BLACK
6
CONTINUOUS
10
7.7575919685039372
20
-3.0537324803149604
11
7.7567939763779528
21
-3.0507542519685038
0
LINE
8
BLACK
6
CONTINUOUS
10
7.7567939763779528
20
-3.0507542519685038
11
7.7566929133858267
21
-3.0492125984251968
0
LINE
8
BLACK
6
CONTINUOUS
10
7.7566929133858267
20
-3.0492125984251968
11
7.7566929133858267
21
-3.0019685039370079
0
LINE
8
BLACK
6
CONTINUOUS
10
7.7566929133858267
20
-3.0019685039370079
11
7.7567939763779528
21
-3.0004268503937008
0
LINE
8
BLACK
6
CONTINUOUS
10
7.416636496062992
20
-3.0004268503937008
11
7.4174344881889764
21
-2.9974486220472438
0
LINE
8
BLACK
6
CONTINUOUS
10
7.4174344881889764
20
-2.9974486220472438
11
7.4189761417322835
21
-2.9947784251968503
0
LINE
8
BLACK
6
CONTINUOUS
10
7.4189761417322835
20
-2.9947784251968503
11
7.4211563779527561
21
-2.9925981889763777
0
LINE
8
BLACK
6
CONTINUOUS
10
7.4211563779527561
20
-2.9925981889763777
11
7.4238265748031491
21
-2.9910565354330707
0
LINE
8
BLACK
6
CONTINUOUS
10
7.4238265748031491
20
-2.9910565354330707
11
7.4268048031496061
21
-2.9902585433070867
0
LINE
8
BLACK
6
CONTINUOUS
10
7.4268048031496061
20
-2.9902585433070867
11
7.4298881102362202
21
-2.9902585433070867
0
LINE
8
BLACK
6
CONTINUOUS
10
7.4298881102362202
20
-2.9902585433070867
11
7.4328663385826772
21
-2.9910565354330707
0
LINE
8
BLACK
6
CONTINUOUS
10
7.4328663385826772
20
-2.9910565354330707
11
7.4355365354330711
21
-2.9925981889763777
0
LINE
8
BLACK
6
CONTINUOUS
10
7.4355365354330711
20
-2.9925981889763777
11
7.4377167716535428
21
-2.9947784251968503
0
LINE
8
BLACK
6
CONTINUOUS
10
7.4377167716535428
20
-2.9947784251968503
11
7.4392584251968499
21
-2.9974486220472438
0
LINE
8
BLACK
6
CONTINUOUS
10
7.4392584251968499
20
-2.9974486220472438
11
7.4400564173228343
21
-3.0004268503937008
0
LINE
8
BLACK
6
CONTINUOUS
10
7.4400564173228343
20
-3.0004268503937008
11
7.4401574803149604
21
-3.0019685039370079
0
LINE
8
BLACK
6
CONTINUOUS
10
7.4401574803149604
20
-3.0019685039370079
11
7.4401574803149604
21
-3.0492125984251968
0
LINE
8
BLACK
6
CONTINUOUS
10
7.4401574803149604
20
-3.0492125984251968
11
7.4400564173228343
21
-3.0507542519685038
0
LINE
8
BLACK
6
CONTINUOUS
10
7.4400564173228343
20
-3.0507542519685038
11
7.4392584251968499
21
-3.0537324803149604
0
LINE
8
BLACK
6
CONTINUOUS
10
7.4392584251968499
20
-3.0537324803149604
11
7.4377167716535428
21
-3.0564026771653543
0
LINE
8
BLACK
6
CONTINUOUS
10
7.4377167716535428
20
-3.0564026771653543
11
7.4355365354330711
21
-3.0585829133858269
0
LINE
8
BLACK
6
CONTINUOUS
10
7.4355365354330711
20
-3.0585829133858269
11
7.4328663385826772
21
-3.0601245669291339
0
LINE
8
BLACK
6
CONTINUOUS
10
7.4328663385826772
20
-3.0601245669291339
11
7.4298881102362202
21
-3.0609225590551179
0
LINE
8
BLACK
6
CONTINUOUS
10
7.4298881102362202
20
-3.0609225590551179
11
7.4268048031496061
21
-3.0609225590551179
0
LINE
8
BLACK
6
CONTINUOUS
10
7.4268048031496061
20
-3.0609225590551179
11
7.4238265748031491
21
-3.0601245669291339
0
LINE
8
BLACK
6
CONTINUOUS
10
7.4238265748031491
20
-3.0601245669291339
11
7.4211563779527561
21
-3.0585829133858269
0
LINE
8
BLACK
6
CONTINUOUS
10
7.4211563779527561
20
-3.0585829133858269
11
7.4189761417322835
21
-3.0564026771653543
0
LINE
8
BLACK
6
CONTINUOUS
10
7.4189761417322835
20
-3.0564026771653543
11
7.4174344881889764
21
-3.0537324803149604
0
LINE
8
BLACK
6
CONTINUOUS
10
7.4174344881889764
20
-3.0537324803149604
11
7.416636496062992
21
-3.0507542519685038
0
LINE
8
BLACK
6
CONTINUOUS
10
7.416636496062992
20
-3.0507542519685038
11
7.4165354330708659
21
-3.0492125984251968
0
LINE
8
BLACK
6
CONTINUOUS
10
7.4165354330708659
20
-3.0492125984251968
11
7.4165354330708659
21
-3.0019685039370079
0
LINE
8
BLACK
6
CONTINUOUS
10
7.4165354330708659
20
-3.0019685039370079
11
7.416636496062992
21
-3.0004268503937008
0
LINE
8
BLACK
6
CONTINUOUS
10
7.7567939763779528
20
-3.165781181102362
11
7.7575919685039372
21
-3.1628029527559054
0
LINE
8
BLACK
6
CONTINUOUS
10
7.7575919685039372
20
-3.1628029527559054
11
7.7591336220472442
21
-3.1601327559055119
0
LINE
8
BLACK
6
CONTINUOUS
10
7.7591336220472442
20
-3.1601327559055119
11
7.7613138582677159
21
-3.1579525196850393
0
LINE
8
BLACK
6
CONTINUOUS
10
7.7613138582677159
20
-3.1579525196850393
11
7.7639840551181099
21
-3.1564108661417323
0
LINE
8
BLACK
6
CONTINUOUS
10
7.7639840551181099
20
-3.1564108661417323
11
7.7669622834645669
21
-3.1556128740157479
0
LINE
8
BLACK
6
CONTINUOUS
10
7.7669622834645669
20
-3.1556128740157479
11
7.7700455905511809
21
-3.1556128740157479
0
LINE
8
BLACK
6
CONTINUOUS
10
7.7700455905511809
20
-3.1556128740157479
11
7.7730238188976379
21
-3.1564108661417323
0
LINE
8
BLACK
6
CONTINUOUS
10
7.7730238188976379
20
-3.1564108661417323
11
7.775694015748031
21
-3.1579525196850393
0
LINE
8
BLACK
6
CONTINUOUS
10
7.775694015748031
20
-3.1579525196850393
11
7.7778742519685036
21
-3.1601327559055119
0
LINE
8
BLACK
6
CONTINUOUS
10
7.7778742519685036
20
-3.1601327559055119
11
7.7794159055118106
21
-3.1628029527559054
0
LINE
8
BLACK
6
CONTINUOUS
10
7.7794159055118106
20
-3.1628029527559054
11
7.780213897637795
21
-3.165781181102362
0
LINE
8
BLACK
6
CONTINUOUS
10
7.780213897637795
20
-3.165781181102362
11
7.7803149606299211
21
-3.1673228346456694
0
LINE
8
BLACK
6
CONTINUOUS
10
7.7803149606299211
20
-3.1673228346456694
11
7.7803149606299211
21
-3.1988188976377954
0
LINE
8
BLACK
6
CONTINUOUS
10
7.7803149606299211
20
-3.1988188976377954
11
7.780213897637795
21
-3.2003605511811024
0
LINE
8
BLACK
6
CONTINUOUS
10
7.780213897637795
20
-3.2003605511811024
11
7.7794159055118106
21
-3.203338779527559
0
LINE
8
BLACK
6
CONTINUOUS
10
7.7794159055118106
20
-3.203338779527559
11
7.7778742519685036
21
-3.2060089763779529
0
LINE
8
BLACK
6
CONTINUOUS
10
7.7778742519685036
20
-3.2060089763779529
11
7.775694015748031
21
-3.208189212598425
0
LINE
8
BLACK
6
CONTINUOUS
10
7.775694015748031
20
-3.208189212598425
11
7.7730238188976379
21
-3.2097308661417321
0
LINE
8
BLACK
6
CONTINUOUS
10
7.7730238188976379
20
-3.2097308661417321
11
7.7700455905511809
21
-3.2105288582677165
0
LINE
8
BLACK
6
CONTINUOUS
10
7.7700455905511809
20
-3.2105288582677165
11
7.7669622834645669
21
-3.2105288582677165
0
LINE
8
BLACK
6
CONTINUOUS
10
7.7669622834645669
20
-3.2105288582677165
11
7.7639840551181099
21
-3.2097308661417321
0
LINE
8
BLACK
6
CONTINUOUS
10
7.7639840551181099
20
-3.2097308661417321
11
7.7613138582677159
21
-3.208189212598425
0
LINE
8
BLACK
6
CONTINUOUS
10
7.7613138582677159
20
-3.208189212598425
11
7.7591336220472442
21
-3.2060089763779529
0
LINE
8
BLACK
6
CONTINUOUS
10
7.7591336220472442
20
-3.2060089763779529
11
7.7575919685039372
21
-3.203338779527559
0
LINE
8
BLACK
6
CONTINUOUS
10
7.7575919685039372
20
-3.203338779527559
11
7.7567939763779528
21
-3.2003605511811024
0
LINE
8
BLACK
6
CONTINUOUS
10
7.7567939763779528
20
-3.2003605511811024
11
7.7566929133858267
21
-3.1988188976377954
0
LINE
8
BLACK
6
CONTINUOUS
10
7.7566929133858267
20
-3.1988188976377954
11
7.7566929133858267
21
-3.1673228346456694
0
LINE
8
BLACK
6
CONTINUOUS
10
7.7566929133858267
20
-3.1673228346456694
11
7.7567939763779528
21
-3.165781181102362
0
LINE
8
BLACK
6
CONTINUOUS
10
7.416636496062992
20
-3.165781181102362
11
7.4174344881889764
21
-3.1628029527559054
0
LINE
8
BLACK
6
CONTINUOUS
10
7.4174344881889764
20
-3.1628029527559054
11
7.4189761417322835
21
-3.1601327559055119
0
LINE
8
BLACK
6
CONTINUOUS
10
7.4189761417322835
20
-3.1601327559055119
11
7.4211563779527561
21
-3.1579525196850393
0
LINE
8
BLACK
6
CONTINUOUS
10
7.4211563779527561
20
-3.1579525196850393
11
7.4238265748031491
21
-3.1564108661417323
0
LINE
8
BLACK
6
CONTINUOUS
10
7.4238265748031491
20
-3.1564108661417323
11
7.4268048031496061
21
-3.1556128740157479
0
LINE
8
BLACK
6
CONTINUOUS
10
7.4268048031496061
20
-3.1556128740157479
11
7.4298881102362202
21
-3.1556128740157479
0
LINE
8
BLACK
6
CONTINUOUS
10
7.4298881102362202
20
-3.1556128740157479
11
7.4328663385826772
21
-3.1564108661417323
0
LINE
8
BLACK
6
CONTINUOUS
10
7.4328663385826772
20
-3.1564108661417323
11
7.4355365354330711
21
-3.1579525196850393
0
LINE
8
BLACK
6
CONTINUOUS
10
7.4355365354330711
20
-3.1579525196850393
11
7.4377167716535428
21
-3.1601327559055119
0
LINE
8
BLACK
6
CONTINUOUS
10
7.4377167716535428
20
-3.1601327559055119
11
7.4392584251968499
21
-3.1628029527559054
0
LINE
8
BLACK
6
CONTINUOUS
10
7.4392584251968499
20
-3.1628029527559054
11
7.4400564173228343
21
-3.165781181102362
0
LINE
8
BLACK
6
CONTINUOUS
10
7.4400564173228343
20
-3.165781181102362
11
7.4401574803149604
21
-3.1673228346456694
0
LINE
8
BLACK
6
CONTINUOUS
10
7.4401574803149604
20
-3.1673228346456694
11
7.4401574803149604
21
-3.1988188976377954
0
LINE
8
BLACK
6
CONTINUOUS
10
7.4401574803149604
20
-3.1988188976377954
11
7.4400564173228343
21
-3.2003605511811024
0
LINE
8
BLACK
6
CONTINUOUS
10
7.4400564173228343
20
-3.2003605511811024
11
7.4392584251968499
21
-3.203338779527559
0
LINE
8
BLACK
6
CONTINUOUS
10
7.4392584251968499
20
-3.203338779527559
11
7.4377167716535428
21
-3.2060089763779529
0
LINE
8
BLACK
6
CONTINUOUS
10
7.4377167716535428
20
-3.2060089763779529
11
7.4355365354330711
21
-3.208189212598425
0
LINE
8
BLACK
6
CONTINUOUS
10
7.4355365354330711
20
-3.208189212598425
11
7.4328663385826772
21
-3.2097308661417321
0
LINE
8
BLACK
6
CONTINUOUS
10
7.4328663385826772
20
-3.2097308661417321
11
7.4298881102362202
21
-3.2105288582677165
0
LINE
8
BLACK
6
CONTINUOUS
10
7.4298881102362202
20
-3.2105288582677165
11
7.4268048031496061
21
-3.2105288582677165
0
LINE
8
BLACK
6
CONTINUOUS
10
7.4268048031496061
20
-3.2105288582677165
11
7.4238265748031491
21
-3.2097308661417321
0
LINE
8
BLACK
6
CONTINUOUS
10
7.4238265748031491
20
-3.2097308661417321
11
7.4211563779527561
21
-3.208189212598425
0
LINE
8
BLACK
6
CONTINUOUS
10
7.4211563779527561
20
-3.208189212598425
11
7.4189761417322835
21
-3.2060089763779529
0
LINE
8
BLACK
6
CONTINUOUS
10
7.4189761417322835
20
-3.2060089763779529
11
7.4174344881889764
21
-3.203338779527559
0
LINE
8
BLACK
6
CONTINUOUS
10
7.4174344881889764
20
-3.203338779527559
11
7.416636496062992
21
-3.2003605511811024
0
LINE
8
BLACK
6
CONTINUOUS
10
7.416636496062992
20
-3.2003605511811024
11
7.4165354330708659
21
-3.1988188976377954
0
LINE
8
BLACK
6
CONTINUOUS
10
7.4165354330708659
20
-3.1988188976377954
11
7.4165354330708659
21
-3.1673228346456694
0
LINE
8
BLACK
6
CONTINUOUS
10
7.4165354330708659
20
-3.1673228346456694
11
7.416636496062992
21
-3.165781181102362
0
CIRCLE
8
BLACK
10
5.2480314960629917
20
-4.9448818897637796
40
0.0590551181102362
0
CIRCLE
8
BLACK
10
8.7362204724409445
20
-3.3582677165354329
40
0.0590551181102362
0
CIRCLE
8
BLACK
10
7.7007874015748028
20
-5.5393700787401574
40
0.0590551181102362
0
CIRCLE
8
BLACK
10
5.2956692913385828
20
-3.1625984251968502
40
0.0196850393700787
0
CIRCLE
8
BLACK
10
5.2956692913385828
20
-3.2625984251968503
40
0.0196850393700787
0
CIRCLE
8
BLACK
10
5.2956692913385828
20
-3.3625984251968504
40
0.0196850393700787
0
CIRCLE
8
BLACK
10
5.2956692913385828
20
-3.4625984251968505
40
0.0196850393700787
0
CIRCLE
8
BLACK
10
2.7854330708661417
20
-5.4667322834645669
40
0.0196850393700787
0
CIRCLE
8
BLACK
10
2.8838582677165352
20
-5.4667322834645669
40
0.0196850393700787
0
CIRCLE
8
BLACK
10
2.8740157480314958
20
-3.3188976377952755
40
0.0590551181102362
0
CIRCLE
8
BLACK
10
6.1968503937007871
20
-3.5314960629921259
40
0.0590551181102362
0
CIRCLE
8
BLACK
10
8.5039370078740149
20
-5.5649606299212593
40
0.0324803149606299
0
CIRCLE
8
BLACK
10
8.3169291338582667
20
-5.5649606299212593
40
0.0324803149606299
0
CIRCLE
8
BLACK
10
3.0590551181102361
20
-5.1692913385826769
40
0.0590550787401575
0
CIRCLE
8
BLACK
10
2.372047244094488
20
-5.4647637795275585
40
0.0196850393700787
0
CIRCLE
8
BLACK
10
2.4704724409448819
20
-5.4647637795275585
40
0.0196850393700787
0
CIRCLE
8
BLACK
10
6.5452755905511806
20
-5.5275590551181102
40
0.0196850393700787
0
CIRCLE
8
BLACK
10
6.643700787401575
20
-5.5275590551181102
40
0.0196850393700787
0
CIRCLE
8
BLACK
10
4.5515748031496059
20
-3.3822834645669291
40
0.0039370078740157
0
CIRCLE
8
BLACK
10
4.5515748031496059
20
-3.4374015748031495
40
0.0039370078740157
0
CIRCLE
8
BLACK
10
4.5791338582677161
20
-3.3547244094488189
40
0.0039370078740157
0
CIRCLE
8
BLACK
10
4.5791338582677161
20
-3.4098425196850393
40
0.0039370078740157
0
CIRCLE
8
BLACK
10
4.5791338582677161
20
-3.4649606299212596
40
0.0039370078740157
0
CIRCLE
8
BLACK
10
4.6066929133858263
20
-3.3822834645669291
40
0.0039370078740157
0
CIRCLE
8
BLACK
10
4.6066929133858263
20
-3.4374015748031495
40
0.0039370078740157
0
CIRCLE
8
BLACK
10
4.6342519685039365
20
-3.3547244094488189
40
0.0039370078740157
0
CIRCLE
8
BLACK
10
4.6342519685039365
20
-3.4098425196850393
40
0.0039370078740157
0
CIRCLE
8
BLACK
10
4.6342519685039365
20
-3.4649606299212596
40
0.0039370078740157
0
CIRCLE
8
BLACK
10
4.6618110236220476
20
-3.3822834645669291
40
0.0039370078740157
0
CIRCLE
8
BLACK
10
4.6618110236220476
20
-3.4374015748031495
40
0.0039370078740157
0
CIRCLE
8
BLACK
10
2.6082677165354329
20
-3.2458661417322836
40
0.0196850393700787
0
CIRCLE
8
BLACK
10
2.5098425196850394
20
-3.2458661417322836
40
0.0196850393700787
0
CIRCLE
8
BLACK
10
5.5925196850393704
20
-5.5295275590551176
40
0.0196850393700787
0
CIRCLE
8
BLACK
10
5.6909448818897639
20
-5.5295275590551176
40
0.0196850393700787
0
CIRCLE
8
BLACK
10
6.1893700787401578
20
-4.6098425196850394
40
0.0688975984251969
0
CIRCLE
8
BLACK
10
6.0893700787401572
20
-5.265748031496063
40
0.0216535433070866
0
CIRCLE
8
BLACK
10
6.1893700787401578
20
-5.265748031496063
40
0.0216535433070866
0
CIRCLE
8
BLACK
10
6.2893700787401574
20
-5.265748031496063
40
0.0216535433070866
0
CIRCLE
8
BLACK
10
3.8440944881889765
20
-4.0433070866141732
40
0.0196850393700787
0
CIRCLE
8
BLACK
10
3.9440944881889761
20
-4.0433070866141732
40
0.0196850393700787
0
CIRCLE
8
BLACK
10
4.0440944881889767
20
-4.0433070866141732
40
0.0196850393700787
0
CIRCLE
8
BLACK
10
4.1440944881889763
20
-4.0433070866141732
40
0.0196850393700787
0
CIRCLE
8
BLACK
10
3.4429133858267718
20
-5.5295275590551176
40
0.0196850393700787
0
CIRCLE
8
BLACK
10
3.5413385826771653
20
-5.5295275590551176
40
0.0196850393700787
0
CIRCLE
8
BLACK
10
7.9822834645669287
20
-3.0578740157480313
40
0.0196850393700787
0
CIRCLE
8
BLACK
10
7.9822834645669287
20
-3.1578740157480314
40
0.0196850393700787
0
CIRCLE
8
BLACK
10
7.9822834645669287
20
-3.2578740157480315
40
0.0196850393700787
0
LINE
8
BLACK
6
CONTINUOUS
10
7.7803149606299211
20
-3.0492125984251968
11
7.7803149606299211
21
-3.0019685039370079
0
ARC
8
BLACK
10
7.7685039370078739
20
-3.0019685039370079
40
0.0118110236220472
50
0.00000000
51
180.00000000
0
LINE
8
BLACK
6
CONTINUOUS
10
7.7566929133858267
20
-3.0019685039370079
11
7.7566929133858267
21
-3.0492125984251968
0
ARC
8
BLACK
10
7.7685039370078739
20
-3.0492125984251968
40
0.0118110236220472
50
180.00000000
51
360.00000000
0
LINE
8
BLACK
6
CONTINUOUS
10
7.4401574803149604
20
-3.0492125984251968
11
7.4401574803149604
21
-3.0019685039370079
0
ARC
8
BLACK
10
7.4283464566929132
20
-3.0019685039370079
40
0.0118110236220472
50
0.00000000
51
180.00000000
0
LINE
8
BLACK
6
CONTINUOUS
10
7.4165354330708659
20
-3.0019685039370079
11
7.4165354330708659
21
-3.0492125984251968
0
ARC
8
BLACK
10
7.4283464566929132
20
-3.0492125984251968
40
0.0118110236220472
50
180.00000000
51
360.00000000
0
LINE
8
BLACK
6
CONTINUOUS
10
7.7803149606299211
20
-3.1988188976377954
11
7.7803149606299211
21
-3.1673228346456694
0
ARC
8
BLACK
10
7.7685039370078739
20
-3.1673228346456694
40
0.0118110236220472
50
0.00000000
51
180.00000000
0
LINE
8
BLACK
6
CONTINUOUS
10
7.7566929133858267
20
-3.1673228346456694
11
7.7566929133858267
21
-3.1988188976377954
0
ARC
8
BLACK
10
7.7685039370078739
20
-3.1988188976377954
40
0.0118110236220472
50
180.00000000
51
360.00000000
0
LINE
8
BLACK
6
CONTINUOUS
10
7.4401574803149604
20
-3.1988188976377954
11
7.4401574803149604
21
-3.1673228346456694
0
ARC
8
BLACK
10
7.4283464566929132
20
-3.1673228346456694
40
0.0118110236220472
50
0.00000000
51
180.00000000
0
LINE
8
BLACK
6
CONTINUOUS
10
7.4165354330708659
20
-3.1673228346456694
11
7.4165354330708659
21
-3.1988188976377954
0
ARC
8
BLACK
10
7.4283464566929132
20
-3.1988188976377954
40
0.0118110236220472
50
180.00000000
51
360.00000000
0
CIRCLE
8
BLACK
10
5.2480314960629917
20
-4.9448818897637796
40
0.0590550787401575
0
CIRCLE
8
BLACK
10
8.7362204724409445
20
-3.3582677165354329
40
0.0590550787401575
0
CIRCLE
8
BLACK
10
7.7007874015748028
20
-5.5393700787401574
40
0.0590550787401575
0
CIRCLE
8
BLACK
10
5.2956692913385828
20
-3.1625984251968502
40
0.0196850393700787
0
CIRCLE
8
BLACK
10
5.2956692913385828
20
-3.2625984251968503
40
0.0196850393700787
0
CIRCLE
8
BLACK
10
5.2956692913385828
20
-3.3625984251968504
40
0.0196850393700787
0
CIRCLE
8
BLACK
10
5.2956692913385828
20
-3.4625984251968505
40
0.0196850393700787
0
CIRCLE
8
BLACK
10
2.7854330708661417
20
-5.4667322834645669
40
0.0196850393700787
0
CIRCLE
8
BLACK
10
2.8838582677165352
20
-5.4667322834645669
40
0.0196850393700787
0
CIRCLE
8
BLACK
10
2.8740157480314958
20
-3.3188976377952755
40
0.0590550787401575
0
CIRCLE
8
BLACK
10
6.1968503937007871
20
-3.5314960629921259
40
0.0590550787401575
  0
ENDSEC
  0
EOF
